<?xml version="1.0" encoding="utf-8"?>
<svg xmlns="http://www.w3.org/2000/svg" xmlns:xlink="http://www.w3.org/1999/xlink" width="600" height="400" viewBox="0 0 2400 1600">
<defs>
  <clipPath id="clip020">
    <rect x="0" y="0" width="2400" height="1600"/>
  </clipPath>
</defs>
<path clip-path="url(#clip020)" d="M0 1600 L2400 1600 L2400 0 L0 0  Z" fill="#ffffff" fill-rule="evenodd" fill-opacity="1"/>
<defs>
  <clipPath id="clip021">
    <rect x="247" y="123" width="2106" height="1347"/>
  </clipPath>
</defs>
<path clip-path="url(#clip020)" d="M247.408 1469.17 L2352.76 1469.17 L2352.76 123.472 L247.408 123.472  Z" fill="#ffffff" fill-rule="evenodd" fill-opacity="1"/>
<polyline clip-path="url(#clip021)" style="stroke:#000000; stroke-linecap:round; stroke-linejoin:round; stroke-width:2; stroke-opacity:0.1; fill:none" points="598.299,1469.17 598.299,123.472 "/>
<polyline clip-path="url(#clip021)" style="stroke:#000000; stroke-linecap:round; stroke-linejoin:round; stroke-width:2; stroke-opacity:0.1; fill:none" points="1159.73,1469.17 1159.73,123.472 "/>
<polyline clip-path="url(#clip021)" style="stroke:#000000; stroke-linecap:round; stroke-linejoin:round; stroke-width:2; stroke-opacity:0.1; fill:none" points="1721.15,1469.17 1721.15,123.472 "/>
<polyline clip-path="url(#clip021)" style="stroke:#000000; stroke-linecap:round; stroke-linejoin:round; stroke-width:2; stroke-opacity:0.1; fill:none" points="2282.58,1469.17 2282.58,123.472 "/>
<polyline clip-path="url(#clip021)" style="stroke:#000000; stroke-linecap:round; stroke-linejoin:round; stroke-width:2; stroke-opacity:0.1; fill:none" points="247.408,1269.94 2352.76,1269.94 "/>
<polyline clip-path="url(#clip021)" style="stroke:#000000; stroke-linecap:round; stroke-linejoin:round; stroke-width:2; stroke-opacity:0.1; fill:none" points="247.408,1067.26 2352.76,1067.26 "/>
<polyline clip-path="url(#clip021)" style="stroke:#000000; stroke-linecap:round; stroke-linejoin:round; stroke-width:2; stroke-opacity:0.1; fill:none" points="247.408,864.57 2352.76,864.57 "/>
<polyline clip-path="url(#clip021)" style="stroke:#000000; stroke-linecap:round; stroke-linejoin:round; stroke-width:2; stroke-opacity:0.1; fill:none" points="247.408,661.883 2352.76,661.883 "/>
<polyline clip-path="url(#clip021)" style="stroke:#000000; stroke-linecap:round; stroke-linejoin:round; stroke-width:2; stroke-opacity:0.1; fill:none" points="247.408,459.196 2352.76,459.196 "/>
<polyline clip-path="url(#clip021)" style="stroke:#000000; stroke-linecap:round; stroke-linejoin:round; stroke-width:2; stroke-opacity:0.1; fill:none" points="247.408,256.509 2352.76,256.509 "/>
<polyline clip-path="url(#clip020)" style="stroke:#000000; stroke-linecap:round; stroke-linejoin:round; stroke-width:4; stroke-opacity:1; fill:none" points="247.408,1469.17 2352.76,1469.17 "/>
<polyline clip-path="url(#clip020)" style="stroke:#000000; stroke-linecap:round; stroke-linejoin:round; stroke-width:4; stroke-opacity:1; fill:none" points="598.299,1469.17 598.299,1450.27 "/>
<polyline clip-path="url(#clip020)" style="stroke:#000000; stroke-linecap:round; stroke-linejoin:round; stroke-width:4; stroke-opacity:1; fill:none" points="1159.73,1469.17 1159.73,1450.27 "/>
<polyline clip-path="url(#clip020)" style="stroke:#000000; stroke-linecap:round; stroke-linejoin:round; stroke-width:4; stroke-opacity:1; fill:none" points="1721.15,1469.17 1721.15,1450.27 "/>
<polyline clip-path="url(#clip020)" style="stroke:#000000; stroke-linecap:round; stroke-linejoin:round; stroke-width:4; stroke-opacity:1; fill:none" points="2282.58,1469.17 2282.58,1450.27 "/>
<path clip-path="url(#clip020)" d="M598.299 1505.95 Q592.883 1505.95 590.14 1511.29 Q587.431 1516.61 587.431 1527.3 Q587.431 1537.96 590.14 1543.31 Q592.883 1548.62 598.299 1548.62 Q603.751 1548.62 606.459 1543.31 Q609.202 1537.96 609.202 1527.3 Q609.202 1516.61 606.459 1511.29 Q603.751 1505.95 598.299 1505.95 M598.299 1500.39 Q607.014 1500.39 611.598 1507.3 Q616.216 1514.18 616.216 1527.3 Q616.216 1540.39 611.598 1547.3 Q607.014 1554.17 598.299 1554.17 Q589.584 1554.17 584.966 1547.3 Q580.383 1540.39 580.383 1527.3 Q580.383 1514.18 584.966 1507.3 Q589.584 1500.39 598.299 1500.39 Z" fill="#000000" fill-rule="nonzero" fill-opacity="1" /><path clip-path="url(#clip020)" d="M1151.7 1547.27 L1176.18 1547.27 L1176.18 1553.17 L1143.27 1553.17 L1143.27 1547.27 Q1147.26 1543.13 1154.14 1536.19 Q1161.04 1529.21 1162.82 1527.2 Q1166.18 1523.41 1167.5 1520.81 Q1168.86 1518.17 1168.86 1515.63 Q1168.86 1511.5 1165.94 1508.9 Q1163.06 1506.29 1158.41 1506.29 Q1155.11 1506.29 1151.43 1507.44 Q1147.78 1508.58 1143.61 1510.91 L1143.61 1503.83 Q1147.85 1502.13 1151.53 1501.26 Q1155.21 1500.39 1158.27 1500.39 Q1166.32 1500.39 1171.11 1504.42 Q1175.91 1508.45 1175.91 1515.18 Q1175.91 1518.38 1174.69 1521.26 Q1173.51 1524.11 1170.35 1527.99 Q1169.48 1529 1164.83 1533.83 Q1160.18 1538.62 1151.7 1547.27 Z" fill="#000000" fill-rule="nonzero" fill-opacity="1" /><path clip-path="url(#clip020)" d="M1725.67 1507.44 L1707.96 1535.11 L1725.67 1535.11 L1725.67 1507.44 M1723.83 1501.33 L1732.64 1501.33 L1732.64 1535.11 L1740.04 1535.11 L1740.04 1540.95 L1732.64 1540.95 L1732.64 1553.17 L1725.67 1553.17 L1725.67 1540.95 L1702.26 1540.95 L1702.26 1534.17 L1723.83 1501.33 Z" fill="#000000" fill-rule="nonzero" fill-opacity="1" /><path clip-path="url(#clip020)" d="M2283.19 1524.45 Q2278.46 1524.45 2275.69 1527.68 Q2272.94 1530.91 2272.94 1536.54 Q2272.94 1542.13 2275.69 1545.39 Q2278.46 1548.62 2283.19 1548.62 Q2287.91 1548.62 2290.65 1545.39 Q2293.43 1542.13 2293.43 1536.54 Q2293.43 1530.91 2290.65 1527.68 Q2287.91 1524.45 2283.19 1524.45 M2297.11 1502.47 L2297.11 1508.86 Q2294.47 1507.61 2291.76 1506.95 Q2289.09 1506.29 2286.45 1506.29 Q2279.5 1506.29 2275.82 1510.98 Q2272.18 1515.67 2271.66 1525.15 Q2273.71 1522.13 2276.8 1520.53 Q2279.89 1518.9 2283.6 1518.9 Q2291.41 1518.9 2295.93 1523.65 Q2300.48 1528.38 2300.48 1536.54 Q2300.48 1544.52 2295.75 1549.35 Q2291.03 1554.17 2283.19 1554.17 Q2274.19 1554.17 2269.44 1547.3 Q2264.68 1540.39 2264.68 1527.3 Q2264.68 1515.01 2270.51 1507.72 Q2276.35 1500.39 2286.17 1500.39 Q2288.81 1500.39 2291.48 1500.91 Q2294.19 1501.43 2297.11 1502.47 Z" fill="#000000" fill-rule="nonzero" fill-opacity="1" /><polyline clip-path="url(#clip020)" style="stroke:#000000; stroke-linecap:round; stroke-linejoin:round; stroke-width:4; stroke-opacity:1; fill:none" points="247.408,1469.17 247.408,123.472 "/>
<polyline clip-path="url(#clip020)" style="stroke:#000000; stroke-linecap:round; stroke-linejoin:round; stroke-width:4; stroke-opacity:1; fill:none" points="247.408,1269.94 266.306,1269.94 "/>
<polyline clip-path="url(#clip020)" style="stroke:#000000; stroke-linecap:round; stroke-linejoin:round; stroke-width:4; stroke-opacity:1; fill:none" points="247.408,1067.26 266.306,1067.26 "/>
<polyline clip-path="url(#clip020)" style="stroke:#000000; stroke-linecap:round; stroke-linejoin:round; stroke-width:4; stroke-opacity:1; fill:none" points="247.408,864.57 266.306,864.57 "/>
<polyline clip-path="url(#clip020)" style="stroke:#000000; stroke-linecap:round; stroke-linejoin:round; stroke-width:4; stroke-opacity:1; fill:none" points="247.408,661.883 266.306,661.883 "/>
<polyline clip-path="url(#clip020)" style="stroke:#000000; stroke-linecap:round; stroke-linejoin:round; stroke-width:4; stroke-opacity:1; fill:none" points="247.408,459.196 266.306,459.196 "/>
<polyline clip-path="url(#clip020)" style="stroke:#000000; stroke-linecap:round; stroke-linejoin:round; stroke-width:4; stroke-opacity:1; fill:none" points="247.408,256.509 266.306,256.509 "/>
<path clip-path="url(#clip020)" d="M50.9921 1270.62 L95.5058 1270.62 L95.5058 1276.52 L50.9921 1276.52 L50.9921 1270.62 Z" fill="#000000" fill-rule="nonzero" fill-opacity="1" /><path clip-path="url(#clip020)" d="M111.86 1289.96 L123.318 1289.96 L123.318 1250.41 L110.853 1252.91 L110.853 1246.52 L123.249 1244.02 L130.263 1244.02 L130.263 1289.96 L141.721 1289.96 L141.721 1295.86 L111.86 1295.86 L111.86 1289.96 Z" fill="#000000" fill-rule="nonzero" fill-opacity="1" /><path clip-path="url(#clip020)" d="M155.887 1287.04 L163.214 1287.04 L163.214 1295.86 L155.887 1295.86 L155.887 1287.04 Z" fill="#000000" fill-rule="nonzero" fill-opacity="1" /><path clip-path="url(#clip020)" d="M193.491 1248.64 Q188.075 1248.64 185.332 1253.99 Q182.623 1259.3 182.623 1270 Q182.623 1280.66 185.332 1286 Q188.075 1291.32 193.491 1291.32 Q198.943 1291.32 201.651 1286 Q204.394 1280.66 204.394 1270 Q204.394 1259.3 201.651 1253.99 Q198.943 1248.64 193.491 1248.64 M193.491 1243.09 Q202.207 1243.09 206.79 1250 Q211.408 1256.87 211.408 1270 Q211.408 1283.09 206.79 1290 Q202.207 1296.87 193.491 1296.87 Q184.776 1296.87 180.158 1290 Q175.575 1283.09 175.575 1270 Q175.575 1256.87 180.158 1250 Q184.776 1243.09 193.491 1243.09 Z" fill="#000000" fill-rule="nonzero" fill-opacity="1" /><path clip-path="url(#clip020)" d="M52.4852 1067.93 L96.9988 1067.93 L96.9988 1073.84 L52.4852 1073.84 L52.4852 1067.93 Z" fill="#000000" fill-rule="nonzero" fill-opacity="1" /><path clip-path="url(#clip020)" d="M127.138 1045.96 Q121.721 1045.96 118.978 1051.3 Q116.27 1056.61 116.27 1067.31 Q116.27 1077.97 118.978 1083.32 Q121.721 1088.63 127.138 1088.63 Q132.589 1088.63 135.297 1083.32 Q138.04 1077.97 138.04 1067.31 Q138.04 1056.61 135.297 1051.3 Q132.589 1045.96 127.138 1045.96 M127.138 1040.4 Q135.853 1040.4 140.436 1047.31 Q145.054 1054.18 145.054 1067.31 Q145.054 1080.4 140.436 1087.31 Q135.853 1094.18 127.138 1094.18 Q118.422 1094.18 113.804 1087.31 Q109.221 1080.4 109.221 1067.31 Q109.221 1054.18 113.804 1047.31 Q118.422 1040.4 127.138 1040.4 Z" fill="#000000" fill-rule="nonzero" fill-opacity="1" /><path clip-path="url(#clip020)" d="M157.38 1084.36 L164.707 1084.36 L164.707 1093.18 L157.38 1093.18 L157.38 1084.36 Z" fill="#000000" fill-rule="nonzero" fill-opacity="1" /><path clip-path="url(#clip020)" d="M180.054 1041.34 L207.589 1041.34 L207.589 1047.24 L186.478 1047.24 L186.478 1059.95 Q188.005 1059.43 189.533 1059.18 Q191.061 1058.91 192.589 1058.91 Q201.269 1058.91 206.339 1063.66 Q211.408 1068.42 211.408 1076.55 Q211.408 1084.91 206.2 1089.57 Q200.991 1094.18 191.512 1094.18 Q188.248 1094.18 184.846 1093.63 Q181.478 1093.07 177.866 1091.96 L177.866 1084.91 Q180.991 1086.61 184.325 1087.45 Q187.658 1088.28 191.373 1088.28 Q197.38 1088.28 200.887 1085.12 Q204.394 1081.96 204.394 1076.55 Q204.394 1071.13 200.887 1067.97 Q197.38 1064.81 191.373 1064.81 Q188.561 1064.81 185.748 1065.43 Q182.971 1066.06 180.054 1067.38 L180.054 1041.34 Z" fill="#000000" fill-rule="nonzero" fill-opacity="1" /><path clip-path="url(#clip020)" d="M125.645 843.268 Q120.228 843.268 117.485 848.615 Q114.777 853.928 114.777 864.622 Q114.777 875.282 117.485 880.629 Q120.228 885.941 125.645 885.941 Q131.096 885.941 133.804 880.629 Q136.547 875.282 136.547 864.622 Q136.547 853.928 133.804 848.615 Q131.096 843.268 125.645 843.268 M125.645 837.713 Q134.36 837.713 138.943 844.622 Q143.561 851.497 143.561 864.622 Q143.561 877.712 138.943 884.622 Q134.36 891.497 125.645 891.497 Q116.929 891.497 112.311 884.622 Q107.728 877.712 107.728 864.622 Q107.728 851.497 112.311 844.622 Q116.929 837.713 125.645 837.713 Z" fill="#000000" fill-rule="nonzero" fill-opacity="1" /><path clip-path="url(#clip020)" d="M155.887 881.671 L163.214 881.671 L163.214 890.49 L155.887 890.49 L155.887 881.671 Z" fill="#000000" fill-rule="nonzero" fill-opacity="1" /><path clip-path="url(#clip020)" d="M193.491 843.268 Q188.075 843.268 185.332 848.615 Q182.623 853.928 182.623 864.622 Q182.623 875.282 185.332 880.629 Q188.075 885.941 193.491 885.941 Q198.943 885.941 201.651 880.629 Q204.394 875.282 204.394 864.622 Q204.394 853.928 201.651 848.615 Q198.943 843.268 193.491 843.268 M193.491 837.713 Q202.207 837.713 206.79 844.622 Q211.408 851.497 211.408 864.622 Q211.408 877.712 206.79 884.622 Q202.207 891.497 193.491 891.497 Q184.776 891.497 180.158 884.622 Q175.575 877.712 175.575 864.622 Q175.575 851.497 180.158 844.622 Q184.776 837.713 193.491 837.713 Z" fill="#000000" fill-rule="nonzero" fill-opacity="1" /><path clip-path="url(#clip020)" d="M127.138 640.581 Q121.721 640.581 118.978 645.928 Q116.27 651.241 116.27 661.935 Q116.27 672.595 118.978 677.942 Q121.721 683.254 127.138 683.254 Q132.589 683.254 135.297 677.942 Q138.04 672.595 138.04 661.935 Q138.04 651.241 135.297 645.928 Q132.589 640.581 127.138 640.581 M127.138 635.025 Q135.853 635.025 140.436 641.935 Q145.054 648.81 145.054 661.935 Q145.054 675.025 140.436 681.935 Q135.853 688.81 127.138 688.81 Q118.422 688.81 113.804 681.935 Q109.221 675.025 109.221 661.935 Q109.221 648.81 113.804 641.935 Q118.422 635.025 127.138 635.025 Z" fill="#000000" fill-rule="nonzero" fill-opacity="1" /><path clip-path="url(#clip020)" d="M157.38 678.984 L164.707 678.984 L164.707 687.803 L157.38 687.803 L157.38 678.984 Z" fill="#000000" fill-rule="nonzero" fill-opacity="1" /><path clip-path="url(#clip020)" d="M180.054 635.963 L207.589 635.963 L207.589 641.866 L186.478 641.866 L186.478 654.574 Q188.005 654.053 189.533 653.81 Q191.061 653.532 192.589 653.532 Q201.269 653.532 206.339 658.289 Q211.408 663.046 211.408 671.171 Q211.408 679.539 206.2 684.192 Q200.991 688.81 191.512 688.81 Q188.248 688.81 184.846 688.254 Q181.478 687.699 177.866 686.588 L177.866 679.539 Q180.991 681.24 184.325 682.074 Q187.658 682.907 191.373 682.907 Q197.38 682.907 200.887 679.747 Q204.394 676.588 204.394 671.171 Q204.394 665.754 200.887 662.595 Q197.38 659.435 191.373 659.435 Q188.561 659.435 185.748 660.06 Q182.971 660.685 180.054 662.004 L180.054 635.963 Z" fill="#000000" fill-rule="nonzero" fill-opacity="1" /><path clip-path="url(#clip020)" d="M111.86 479.213 L123.318 479.213 L123.318 439.665 L110.853 442.165 L110.853 435.776 L123.249 433.276 L130.263 433.276 L130.263 479.213 L141.721 479.213 L141.721 485.116 L111.86 485.116 L111.86 479.213 Z" fill="#000000" fill-rule="nonzero" fill-opacity="1" /><path clip-path="url(#clip020)" d="M155.887 476.296 L163.214 476.296 L163.214 485.116 L155.887 485.116 L155.887 476.296 Z" fill="#000000" fill-rule="nonzero" fill-opacity="1" /><path clip-path="url(#clip020)" d="M193.491 437.894 Q188.075 437.894 185.332 443.241 Q182.623 448.554 182.623 459.248 Q182.623 469.908 185.332 475.255 Q188.075 480.567 193.491 480.567 Q198.943 480.567 201.651 475.255 Q204.394 469.908 204.394 459.248 Q204.394 448.554 201.651 443.241 Q198.943 437.894 193.491 437.894 M193.491 432.338 Q202.207 432.338 206.79 439.248 Q211.408 446.123 211.408 459.248 Q211.408 472.338 206.79 479.248 Q202.207 486.123 193.491 486.123 Q184.776 486.123 180.158 479.248 Q175.575 472.338 175.575 459.248 Q175.575 446.123 180.158 439.248 Q184.776 432.338 193.491 432.338 Z" fill="#000000" fill-rule="nonzero" fill-opacity="1" /><path clip-path="url(#clip020)" d="M113.353 276.526 L124.811 276.526 L124.811 236.978 L112.346 239.478 L112.346 233.089 L124.742 230.589 L131.756 230.589 L131.756 276.526 L143.214 276.526 L143.214 282.429 L113.353 282.429 L113.353 276.526 Z" fill="#000000" fill-rule="nonzero" fill-opacity="1" /><path clip-path="url(#clip020)" d="M157.38 273.609 L164.707 273.609 L164.707 282.429 L157.38 282.429 L157.38 273.609 Z" fill="#000000" fill-rule="nonzero" fill-opacity="1" /><path clip-path="url(#clip020)" d="M180.054 230.589 L207.589 230.589 L207.589 236.491 L186.478 236.491 L186.478 249.2 Q188.005 248.679 189.533 248.436 Q191.061 248.158 192.589 248.158 Q201.269 248.158 206.339 252.915 Q211.408 257.672 211.408 265.797 Q211.408 274.165 206.2 278.818 Q200.991 283.436 191.512 283.436 Q188.248 283.436 184.846 282.88 Q181.478 282.325 177.866 281.213 L177.866 274.165 Q180.991 275.866 184.325 276.7 Q187.658 277.533 191.373 277.533 Q197.38 277.533 200.887 274.373 Q204.394 271.213 204.394 265.797 Q204.394 260.38 200.887 257.221 Q197.38 254.061 191.373 254.061 Q188.561 254.061 185.748 254.686 Q182.971 255.311 180.054 256.63 L180.054 230.589 Z" fill="#000000" fill-rule="nonzero" fill-opacity="1" /><path clip-path="url(#clip020)" d="M1062.25 12.096 L1074.45 12.096 L1089.88 53.2532 L1105.4 12.096 L1117.59 12.096 L1117.59 72.576 L1109.61 72.576 L1109.61 19.4686 L1094.01 60.9499 L1085.79 60.9499 L1070.19 19.4686 L1070.19 72.576 L1062.25 72.576 L1062.25 12.096 Z" fill="#000000" fill-rule="nonzero" fill-opacity="1" /><path clip-path="url(#clip020)" d="M1132.74 54.671 L1132.74 27.2059 L1140.19 27.2059 L1140.19 54.3874 Q1140.19 60.8284 1142.7 64.0691 Q1145.22 67.2693 1150.24 67.2693 Q1156.27 67.2693 1159.76 63.421 Q1163.28 59.5726 1163.28 52.9291 L1163.28 27.2059 L1170.74 27.2059 L1170.74 72.576 L1163.28 72.576 L1163.28 65.6084 Q1160.57 69.7404 1156.96 71.7658 Q1153.4 73.7508 1148.66 73.7508 Q1140.84 73.7508 1136.79 68.8897 Q1132.74 64.0286 1132.74 54.671 M1151.49 26.1121 L1151.49 26.1121 Z" fill="#000000" fill-rule="nonzero" fill-opacity="1" /><path clip-path="url(#clip020)" d="M1186.09 9.54393 L1193.54 9.54393 L1193.54 72.576 L1186.09 72.576 L1186.09 9.54393 Z" fill="#000000" fill-rule="nonzero" fill-opacity="1" /><path clip-path="url(#clip020)" d="M1216.51 14.324 L1216.51 27.2059 L1231.86 27.2059 L1231.86 32.9987 L1216.51 32.9987 L1216.51 57.6282 Q1216.51 63.1779 1218.01 64.7578 Q1219.55 66.3376 1224.21 66.3376 L1231.86 66.3376 L1231.86 72.576 L1224.21 72.576 Q1215.58 72.576 1212.3 69.3758 Q1209.02 66.1351 1209.02 57.6282 L1209.02 32.9987 L1203.55 32.9987 L1203.55 27.2059 L1209.02 27.2059 L1209.02 14.324 L1216.51 14.324 Z" fill="#000000" fill-rule="nonzero" fill-opacity="1" /><path clip-path="url(#clip020)" d="M1241.67 27.2059 L1249.12 27.2059 L1249.12 72.576 L1241.67 72.576 L1241.67 27.2059 M1241.67 9.54393 L1249.12 9.54393 L1249.12 18.9825 L1241.67 18.9825 L1241.67 9.54393 Z" fill="#000000" fill-rule="nonzero" fill-opacity="1" /><path clip-path="url(#clip020)" d="M1260.95 46.5287 L1282.78 46.5287 L1282.78 53.1722 L1260.95 53.1722 L1260.95 46.5287 Z" fill="#000000" fill-rule="nonzero" fill-opacity="1" /><path clip-path="url(#clip020)" d="M1331.23 14.0809 L1331.23 22.0612 Q1326.57 19.8332 1322.44 18.7395 Q1318.31 17.6457 1314.46 17.6457 Q1307.78 17.6457 1304.13 20.2383 Q1300.53 22.8309 1300.53 27.611 Q1300.53 31.6214 1302.92 33.6873 Q1305.35 35.7128 1312.07 36.9686 L1317.01 37.9813 Q1326.17 39.7232 1330.5 44.1387 Q1334.88 48.5136 1334.88 55.8863 Q1334.88 64.6767 1328.96 69.2137 Q1323.09 73.7508 1311.71 73.7508 Q1307.41 73.7508 1302.55 72.7785 Q1297.73 71.8063 1292.55 69.9024 L1292.55 61.4765 Q1297.53 64.2716 1302.31 65.6895 Q1307.09 67.1073 1311.71 67.1073 Q1318.72 67.1073 1322.52 64.3527 Q1326.33 61.598 1326.33 56.4939 Q1326.33 52.0379 1323.58 49.5264 Q1320.86 47.0148 1314.62 45.759 L1309.64 44.7868 Q1300.49 42.9639 1296.4 39.075 Q1292.3 35.1862 1292.3 28.2591 Q1292.3 20.2383 1297.93 15.6203 Q1303.61 11.0023 1313.53 11.0023 Q1317.78 11.0023 1322.2 11.7719 Q1326.62 12.5416 1331.23 14.0809 Z" fill="#000000" fill-rule="nonzero" fill-opacity="1" /><path clip-path="url(#clip020)" d="M1386.12 48.0275 L1386.12 51.6733 L1351.85 51.6733 Q1352.34 59.3701 1356.47 63.421 Q1360.64 67.4314 1368.06 67.4314 Q1372.35 67.4314 1376.36 66.3781 Q1380.41 65.3249 1384.38 63.2184 L1384.38 70.267 Q1380.37 71.9684 1376.16 72.8596 Q1371.94 73.7508 1367.61 73.7508 Q1356.75 73.7508 1350.39 67.4314 Q1344.07 61.1119 1344.07 50.3365 Q1344.07 39.1965 1350.07 32.6746 Q1356.11 26.1121 1366.31 26.1121 Q1375.47 26.1121 1380.78 32.0264 Q1386.12 37.9003 1386.12 48.0275 M1378.67 45.84 Q1378.59 39.7232 1375.23 36.0774 Q1371.9 32.4315 1366.4 32.4315 Q1360.16 32.4315 1356.39 35.9558 Q1352.66 39.4801 1352.1 45.8805 L1378.67 45.84 Z" fill="#000000" fill-rule="nonzero" fill-opacity="1" /><path clip-path="url(#clip020)" d="M1424.65 34.1734 Q1423.39 33.4443 1421.89 33.1202 Q1420.43 32.7556 1418.65 32.7556 Q1412.33 32.7556 1408.93 36.8875 Q1405.57 40.9789 1405.57 48.6757 L1405.57 72.576 L1398.07 72.576 L1398.07 27.2059 L1405.57 27.2059 L1405.57 34.2544 Q1407.92 30.1225 1411.68 28.1376 Q1415.45 26.1121 1420.84 26.1121 Q1421.61 26.1121 1422.54 26.2337 Q1423.47 26.3147 1424.61 26.5172 L1424.65 34.1734 Z" fill="#000000" fill-rule="nonzero" fill-opacity="1" /><path clip-path="url(#clip020)" d="M1432.47 27.2059 L1439.92 27.2059 L1439.92 72.576 L1432.47 72.576 L1432.47 27.2059 M1432.47 9.54393 L1439.92 9.54393 L1439.92 18.9825 L1432.47 18.9825 L1432.47 9.54393 Z" fill="#000000" fill-rule="nonzero" fill-opacity="1" /><path clip-path="url(#clip020)" d="M1494.32 48.0275 L1494.32 51.6733 L1460.05 51.6733 Q1460.54 59.3701 1464.67 63.421 Q1468.84 67.4314 1476.26 67.4314 Q1480.55 67.4314 1484.56 66.3781 Q1488.61 65.3249 1492.58 63.2184 L1492.58 70.267 Q1488.57 71.9684 1484.36 72.8596 Q1480.14 73.7508 1475.81 73.7508 Q1464.95 73.7508 1458.59 67.4314 Q1452.27 61.1119 1452.27 50.3365 Q1452.27 39.1965 1458.27 32.6746 Q1464.31 26.1121 1474.51 26.1121 Q1483.67 26.1121 1488.98 32.0264 Q1494.32 37.9003 1494.32 48.0275 M1486.87 45.84 Q1486.79 39.7232 1483.43 36.0774 Q1480.1 32.4315 1474.59 32.4315 Q1468.36 32.4315 1464.59 35.9558 Q1460.86 39.4801 1460.3 45.8805 L1486.87 45.84 Z" fill="#000000" fill-rule="nonzero" fill-opacity="1" /><path clip-path="url(#clip020)" d="M1535.48 28.5427 L1535.48 35.5912 Q1532.32 33.9709 1528.92 33.1607 Q1525.51 32.3505 1521.87 32.3505 Q1516.32 32.3505 1513.52 34.0519 Q1510.77 35.7533 1510.77 39.156 Q1510.77 41.7486 1512.75 43.2475 Q1514.74 44.7058 1520.73 46.0426 L1523.29 46.6097 Q1531.23 48.3111 1534.55 51.4303 Q1537.91 54.509 1537.91 60.0587 Q1537.91 66.3781 1532.89 70.0644 Q1527.9 73.7508 1519.15 73.7508 Q1515.51 73.7508 1511.54 73.0216 Q1507.61 72.3329 1503.23 70.9151 L1503.23 63.2184 Q1507.37 65.3654 1511.38 66.4591 Q1515.39 67.5124 1519.32 67.5124 Q1524.58 67.5124 1527.42 65.73 Q1530.25 63.9071 1530.25 60.6258 Q1530.25 57.5877 1528.19 55.9673 Q1526.16 54.3469 1519.24 52.8481 L1516.64 52.2405 Q1509.72 50.7821 1506.64 47.7845 Q1503.56 44.7463 1503.56 39.4801 Q1503.56 33.0797 1508.1 29.5959 Q1512.63 26.1121 1520.98 26.1121 Q1525.11 26.1121 1528.76 26.7198 Q1532.4 27.3274 1535.48 28.5427 Z" fill="#000000" fill-rule="nonzero" fill-opacity="1" /><path clip-path="url(#clip021)" d="M-2.80713e+12 4.05374e+12 L598.299 4.05374e+12 L598.299 -4.05374e+12 L-2.80713e+12 -4.05374e+12 L-2.80713e+12 4.05374e+12  Z" fill="#808080" fill-rule="evenodd" fill-opacity="0.1"/>
<polyline clip-path="url(#clip021)" style="stroke:#000000; stroke-linecap:round; stroke-linejoin:round; stroke-width:0; stroke-opacity:1; fill:none" points="-2.80713e+12,4.05374e+12 598.299,4.1943e+06 598.299,-4.1943e+06 -4.1943e+06,-4.1943e+06 -4.1943e+06,4.1943e+06 "/>
<path clip-path="url(#clip021)" d="M2001.86 4.05374e+12 L2.80713e+12 4.05374e+12 L2.80713e+12 -4.05374e+12 L2001.86 -4.05374e+12 L2001.86 4.05374e+12  Z" fill="#808080" fill-rule="evenodd" fill-opacity="0.1"/>
<polyline clip-path="url(#clip021)" style="stroke:#000000; stroke-linecap:round; stroke-linejoin:round; stroke-width:0; stroke-opacity:1; fill:none" points="2001.86,4.05374e+12 4.1943e+06,4.1943e+06 4.1943e+06,-4.1943e+06 2001.86,-4.1943e+06 2001.86,4.1943e+06 "/>
<polyline clip-path="url(#clip021)" style="stroke:#808080; stroke-linecap:round; stroke-linejoin:round; stroke-width:4; stroke-opacity:0.5; fill:none" stroke-dasharray="2, 4" points="598.299,2814.86 598.299,-1222.22 "/>
<polyline clip-path="url(#clip021)" style="stroke:#808080; stroke-linecap:round; stroke-linejoin:round; stroke-width:4; stroke-opacity:0.5; fill:none" stroke-dasharray="2, 4" points="2001.86,2814.86 2001.86,-1222.22 "/>
<circle clip-path="url(#clip021)" cx="598.299" cy="864.57" r="24.336" fill="#0000ff" fill-rule="evenodd" fill-opacity="0.723" stroke="none"/>
<circle clip-path="url(#clip021)" cx="879.012" cy="523.459" r="24.336" fill="#0000ff" fill-rule="evenodd" fill-opacity="0.723" stroke="none"/>
<circle clip-path="url(#clip021)" cx="1159.73" cy="495.964" r="24.336" fill="#0000ff" fill-rule="evenodd" fill-opacity="0.723" stroke="none"/>
<circle clip-path="url(#clip021)" cx="1440.44" cy="807.364" r="24.336" fill="#0000ff" fill-rule="evenodd" fill-opacity="0.723" stroke="none"/>
<circle clip-path="url(#clip021)" cx="1721.15" cy="1171.36" r="24.336" fill="#0000ff" fill-rule="evenodd" fill-opacity="0.723" stroke="none"/>
<circle clip-path="url(#clip021)" cx="2001.86" cy="1253.29" r="24.336" fill="#0000ff" fill-rule="evenodd" fill-opacity="0.723" stroke="none"/>
<polyline clip-path="url(#clip021)" style="stroke:#0000ff; stroke-linecap:round; stroke-linejoin:round; stroke-width:8; stroke-opacity:1; fill:none" points="247.408,1247.32 255.863,1243.73 264.318,1239.73 272.774,1235.32 281.229,1230.53 289.684,1225.35 298.139,1219.8 306.594,1213.89 315.05,1207.63 323.505,1201.02 331.96,1194.09 340.415,1186.84 348.87,1179.27 357.326,1171.41 365.781,1163.25 374.236,1154.82 382.691,1146.12 391.147,1137.15 399.602,1127.94 408.057,1118.49 416.512,1108.81 424.967,1098.91 433.423,1088.8 441.878,1078.49 450.333,1068 458.788,1057.32 467.243,1046.48 475.699,1035.49 484.154,1024.34 492.609,1013.06 501.064,1001.64 509.52,990.117 517.975,978.482 526.43,966.751 534.885,954.933 543.34,943.039 551.796,931.079 560.251,919.063 568.706,907.001 577.161,894.903 585.616,882.78 594.072,870.642 602.527,858.498 610.982,846.36 619.437,834.237 627.893,822.139 636.348,810.077 644.803,798.061 653.258,786.101 661.713,774.207 670.169,762.389 678.624,750.658 687.079,739.023 695.534,727.495 703.989,716.085 712.445,704.801 720.9,693.655 729.355,682.656 737.81,671.816 746.265,661.143 754.721,650.648 763.176,640.341 771.631,630.233 780.086,620.333 788.542,610.652 796.997,601.201 805.452,591.988 813.907,583.025 822.362,574.321 830.818,565.886 839.273,557.732 847.728,549.868 856.183,542.304 864.638,535.05 873.094,528.116 881.549,521.514 890.004,515.249 898.459,509.322 906.915,503.735 915.37,498.487 923.825,493.579 932.28,489.012 940.735,484.787 949.191,480.903 957.646,477.361 966.101,474.162 974.556,471.307 983.011,468.795 991.467,466.629 999.922,464.807 1008.38,463.33 1016.83,462.2 1025.29,461.417 1033.74,460.98 1042.2,460.892 1050.65,461.151 1059.11,461.76 1067.56,462.717 1076.02,464.025 1084.47,465.683 1092.93,467.692 1101.38,470.053 1109.84,472.765 1118.29,475.83 1126.75,479.249 1135.21,483.021 1143.66,487.147 1152.12,491.628 1160.57,496.464 1169.03,501.654 1177.48,507.191 1185.94,513.066 1194.39,519.272 1202.85,525.8 1211.3,532.642 1219.76,539.79 1228.21,547.235 1236.67,554.97 1245.12,562.986 1253.58,571.275 1262.03,579.829 1270.49,588.64 1278.94,597.699 1287.4,606.998 1295.85,616.53 1304.31,626.285 1312.76,636.256 1321.22,646.434 1329.68,656.812 1338.13,667.381 1346.59,678.133 1355.04,689.06 1363.5,700.153 1371.95,711.405 1380.41,722.807 1388.86,734.351 1397.32,746.028 1405.77,757.831 1414.23,769.752 1422.68,781.782 1431.14,793.913 1439.59,806.136 1448.05,818.444 1456.5,830.822 1464.96,843.256 1473.41,855.731 1481.87,868.233 1490.32,880.746 1498.78,893.257 1507.23,905.749 1515.69,918.21 1524.15,930.623 1532.6,942.974 1541.06,955.248 1549.51,967.432 1557.97,979.509 1566.42,991.465 1574.88,1003.29 1583.33,1014.96 1591.79,1026.46 1600.24,1037.79 1608.7,1048.92 1617.15,1059.84 1625.61,1070.54 1634.06,1081 1642.52,1091.21 1650.97,1101.15 1659.43,1110.81 1667.88,1120.17 1676.34,1129.21 1684.79,1137.94 1693.25,1146.31 1701.7,1154.34 1710.16,1161.99 1718.61,1169.26 1727.07,1176.12 1735.53,1182.59 1743.98,1188.68 1752.44,1194.4 1760.89,1199.75 1769.35,1204.76 1777.8,1209.43 1786.26,1213.78 1794.71,1217.82 1803.17,1221.56 1811.62,1225.02 1820.08,1228.19 1828.53,1231.11 1836.99,1233.78 1845.44,1236.21 1853.9,1238.41 1862.35,1240.4 1870.81,1242.19 1879.26,1243.79 1887.72,1245.22 1896.17,1246.47 1904.63,1247.58 1913.08,1248.55 1921.54,1249.38 1930,1250.11 1938.45,1250.73 1946.91,1251.25 1955.36,1251.7 1963.82,1252.08 1972.27,1252.41 1980.73,1252.69 1989.18,1252.94 1997.64,1253.18 2006.09,1253.41 2014.55,1253.64 2023,1253.89 2031.46,1254.18 2039.91,1254.5 2048.37,1254.89 2056.82,1255.33 2065.28,1255.86 2073.73,1256.48 2082.19,1257.2 2090.64,1258.04 2099.1,1259.01 2107.55,1260.11 2116.01,1261.37 2124.47,1262.79 2132.92,1264.39 2141.38,1266.18 2149.83,1268.17 2158.29,1270.38 2166.74,1272.81 2175.2,1275.47 2183.65,1278.39 2192.11,1281.57 2200.56,1285.02 2209.02,1288.76 2217.47,1292.8 2225.93,1297.15 2234.38,1301.83 2242.84,1306.83 2251.29,1312.19 2259.75,1317.9 2268.2,1323.99 2276.66,1330.46 2285.11,1337.33 2293.57,1344.61 2302.02,1352.3 2310.48,1360.43 2318.94,1369.01 2327.39,1378.04 2335.85,1387.54 2344.3,1397.52 2352.76,1408 "/>
<circle clip-path="url(#clip021)" cx="598.299" cy="459.196" r="24.336" fill="#ff0000" fill-rule="evenodd" fill-opacity="0.723" stroke="none"/>
<circle clip-path="url(#clip021)" cx="879.012" cy="645.545" r="24.336" fill="#ff0000" fill-rule="evenodd" fill-opacity="0.723" stroke="none"/>
<circle clip-path="url(#clip021)" cx="1159.73" cy="1033.27" r="24.336" fill="#ff0000" fill-rule="evenodd" fill-opacity="0.723" stroke="none"/>
<circle clip-path="url(#clip021)" cx="1440.44" cy="1265.89" r="24.336" fill="#ff0000" fill-rule="evenodd" fill-opacity="0.723" stroke="none"/>
<circle clip-path="url(#clip021)" cx="1721.15" cy="1129.54" r="24.336" fill="#ff0000" fill-rule="evenodd" fill-opacity="0.723" stroke="none"/>
<circle clip-path="url(#clip021)" cx="2001.86" cy="749.581" r="24.336" fill="#ff0000" fill-rule="evenodd" fill-opacity="0.723" stroke="none"/>
<polyline clip-path="url(#clip021)" style="stroke:#ff0000; stroke-linecap:round; stroke-linejoin:round; stroke-width:8; stroke-opacity:1; fill:none" points="247.408,184.64 255.863,196.628 264.318,208.222 272.774,219.433 281.229,230.271 289.684,240.744 298.139,250.863 306.594,260.638 315.05,270.078 323.505,279.193 331.96,287.992 340.415,296.486 348.87,304.684 357.326,312.595 365.781,320.23 374.236,327.598 382.691,334.709 391.147,341.572 399.602,348.197 408.057,354.595 416.512,360.774 424.967,366.744 433.423,372.516 441.878,378.098 450.333,383.501 458.788,388.734 467.243,393.806 475.699,398.729 484.154,403.51 492.609,408.161 501.064,412.69 509.52,417.108 517.975,421.423 526.43,425.647 534.885,429.788 543.34,433.856 551.796,437.861 560.251,441.813 568.706,445.721 577.161,449.595 585.616,453.445 594.072,457.281 602.527,461.111 610.982,464.946 619.437,468.796 627.893,472.67 636.348,476.579 644.803,480.53 653.258,484.536 661.713,488.604 670.169,492.745 678.624,496.968 687.079,501.284 695.534,505.702 703.989,510.231 712.445,514.881 720.9,519.663 729.355,524.585 737.81,529.658 746.265,534.891 754.721,540.294 763.176,545.876 771.631,551.647 780.086,557.618 788.542,563.797 796.997,570.194 805.452,576.82 813.907,583.683 822.362,590.794 830.818,598.162 839.273,605.796 847.728,613.708 856.183,621.906 864.638,630.399 873.094,639.199 881.549,648.313 890.004,657.744 898.459,667.477 906.915,677.497 915.37,687.787 923.825,698.333 932.28,709.119 940.735,720.129 949.191,731.349 957.646,742.762 966.101,754.353 974.556,766.106 983.011,778.006 991.467,790.038 999.922,802.186 1008.38,814.434 1016.83,826.767 1025.29,839.17 1033.74,851.626 1042.2,864.121 1050.65,876.639 1059.11,889.164 1067.56,901.681 1076.02,914.174 1084.47,926.629 1092.93,939.028 1101.38,951.358 1109.84,963.602 1118.29,975.744 1126.75,987.77 1135.21,999.664 1143.66,1011.41 1152.12,1022.99 1160.57,1034.4 1169.03,1045.61 1177.48,1056.62 1185.94,1067.43 1194.39,1078.02 1202.85,1088.4 1211.3,1098.56 1219.76,1108.48 1228.21,1118.17 1236.67,1127.61 1245.12,1136.81 1253.58,1145.75 1262.03,1154.44 1270.49,1162.85 1278.94,1170.99 1287.4,1178.86 1295.85,1186.44 1304.31,1193.72 1312.76,1200.71 1321.22,1207.4 1329.68,1213.78 1338.13,1219.84 1346.59,1225.58 1355.04,1230.99 1363.5,1236.07 1371.95,1240.81 1380.41,1245.2 1388.86,1249.24 1397.32,1252.92 1405.77,1256.23 1414.23,1259.18 1422.68,1261.75 1431.14,1263.93 1439.59,1265.73 1448.05,1267.13 1456.5,1268.14 1464.96,1268.77 1473.41,1269.01 1481.87,1268.88 1490.32,1268.37 1498.78,1267.5 1507.23,1266.27 1515.69,1264.68 1524.15,1262.73 1532.6,1260.44 1541.06,1257.81 1549.51,1254.84 1557.97,1251.54 1566.42,1247.91 1574.88,1243.96 1583.33,1239.69 1591.79,1235.11 1600.24,1230.22 1608.7,1225.02 1617.15,1219.53 1625.61,1213.75 1634.06,1207.68 1642.52,1201.32 1650.97,1194.69 1659.43,1187.78 1667.88,1180.61 1676.34,1173.17 1684.79,1165.47 1693.25,1157.52 1701.7,1149.32 1710.16,1140.87 1718.61,1132.19 1727.07,1123.27 1735.53,1114.13 1743.98,1104.76 1752.44,1095.19 1760.89,1085.4 1769.35,1075.41 1777.8,1065.24 1786.26,1054.87 1794.71,1044.33 1803.17,1033.62 1811.62,1022.74 1820.08,1011.7 1828.53,1000.52 1836.99,989.187 1845.44,977.72 1853.9,966.124 1862.35,954.405 1870.81,942.571 1879.26,930.628 1887.72,918.583 1896.17,906.444 1904.63,894.217 1913.08,881.91 1921.54,869.529 1930,857.081 1938.45,844.574 1946.91,832.015 1955.36,819.409 1963.82,806.766 1972.27,794.091 1980.73,781.391 1989.18,768.674 1997.64,755.946 2006.09,743.215 2014.55,730.487 2023,717.77 2031.46,705.071 2039.91,692.396 2048.37,679.752 2056.82,667.147 2065.28,654.587 2073.73,642.08 2082.19,629.633 2090.64,617.252 2099.1,604.945 2107.55,592.718 2116.01,580.579 2124.47,568.534 2132.92,556.591 2141.38,544.756 2149.83,533.037 2158.29,521.441 2166.74,509.974 2175.2,498.644 2183.65,487.458 2192.11,476.422 2200.56,465.543 2209.02,454.83 2217.47,444.288 2225.93,433.924 2234.38,423.746 2242.84,413.761 2251.29,403.976 2259.75,394.397 2268.2,385.032 2276.66,375.887 2285.11,366.97 2293.57,358.288 2302.02,349.848 2310.48,341.656 2318.94,333.72 2327.39,326.046 2335.85,318.643 2344.3,311.516 2352.76,304.672 "/>
<circle clip-path="url(#clip021)" cx="598.299" cy="523.459" r="24.336" fill="#008000" fill-rule="evenodd" fill-opacity="0.723" stroke="none"/>
<circle clip-path="url(#clip021)" cx="879.012" cy="495.964" r="24.336" fill="#008000" fill-rule="evenodd" fill-opacity="0.723" stroke="none"/>
<circle clip-path="url(#clip021)" cx="1159.73" cy="807.364" r="24.336" fill="#008000" fill-rule="evenodd" fill-opacity="0.723" stroke="none"/>
<circle clip-path="url(#clip021)" cx="1440.44" cy="1171.36" r="24.336" fill="#008000" fill-rule="evenodd" fill-opacity="0.723" stroke="none"/>
<circle clip-path="url(#clip021)" cx="1721.15" cy="1253.29" r="24.336" fill="#008000" fill-rule="evenodd" fill-opacity="0.723" stroke="none"/>
<circle clip-path="url(#clip021)" cx="2001.86" cy="977.838" r="24.336" fill="#008000" fill-rule="evenodd" fill-opacity="0.723" stroke="none"/>
<polyline clip-path="url(#clip021)" style="stroke:#008000; stroke-linecap:round; stroke-linejoin:round; stroke-width:8; stroke-opacity:1; fill:none" points="247.408,499.229 255.863,507.376 264.318,514.97 272.774,522.024 281.229,528.552 289.684,534.568 298.139,540.084 306.594,545.116 315.05,549.676 323.505,553.779 331.96,557.437 340.415,560.665 348.87,563.476 357.326,565.884 365.781,567.903 374.236,569.546 382.691,570.827 391.147,571.759 399.602,572.357 408.057,572.633 416.512,572.602 424.967,572.277 433.423,571.672 441.878,570.801 450.333,569.677 458.788,568.313 467.243,566.724 475.699,564.924 484.154,562.925 492.609,560.742 501.064,558.388 509.52,555.877 517.975,553.222 526.43,550.438 534.885,547.537 543.34,544.534 551.796,541.442 560.251,538.275 568.706,535.046 577.161,531.77 585.616,528.459 594.072,525.128 602.527,521.79 610.982,518.459 619.437,515.149 627.893,511.872 636.348,508.644 644.803,505.477 653.258,502.385 661.713,499.382 670.169,496.481 678.624,493.697 687.079,491.042 695.534,488.531 703.989,486.177 712.445,483.994 720.9,481.995 729.355,480.194 737.81,478.606 746.265,477.242 754.721,476.118 763.176,475.247 771.631,474.642 780.086,474.317 788.542,474.286 796.997,474.562 805.452,475.16 813.907,476.092 822.362,477.373 830.818,479.016 839.273,481.034 847.728,483.442 856.183,486.254 864.638,489.482 873.094,493.14 881.549,497.242 890.004,501.793 898.459,506.781 906.915,512.193 915.37,518.017 923.825,524.239 932.28,530.848 940.735,537.829 949.191,545.172 957.646,552.862 966.101,560.887 974.556,569.234 983.011,577.891 991.467,586.845 999.922,596.083 1008.38,605.591 1016.83,615.359 1025.29,625.372 1033.74,635.618 1042.2,646.084 1050.65,656.757 1059.11,667.626 1067.56,678.676 1076.02,689.895 1084.47,701.271 1092.93,712.79 1101.38,724.441 1109.84,736.209 1118.29,748.083 1126.75,760.049 1135.21,772.096 1143.66,784.209 1152.12,796.377 1160.57,808.586 1169.03,820.825 1177.48,833.083 1185.94,845.352 1194.39,857.62 1202.85,869.88 1211.3,882.121 1219.76,894.334 1228.21,906.508 1236.67,918.636 1245.12,930.706 1253.58,942.71 1262.03,954.637 1270.49,966.479 1278.94,978.225 1287.4,989.867 1295.85,1001.39 1304.31,1012.8 1312.76,1024.07 1321.22,1035.19 1329.68,1046.17 1338.13,1056.98 1346.59,1067.62 1355.04,1078.07 1363.5,1088.34 1371.95,1098.41 1380.41,1108.26 1388.86,1117.9 1397.32,1127.3 1405.77,1136.47 1414.23,1145.39 1422.68,1154.05 1431.14,1162.45 1439.59,1170.56 1448.05,1178.39 1456.5,1185.93 1464.96,1193.18 1473.41,1200.12 1481.87,1206.76 1490.32,1213.1 1498.78,1219.12 1507.23,1224.84 1515.69,1230.23 1524.15,1235.3 1532.6,1240.05 1541.06,1244.46 1549.51,1248.55 1557.97,1252.3 1566.42,1255.7 1574.88,1258.76 1583.33,1261.48 1591.79,1263.84 1600.24,1265.84 1608.7,1267.49 1617.15,1268.77 1625.61,1269.68 1634.06,1270.22 1642.52,1270.39 1650.97,1270.18 1659.43,1269.59 1667.88,1268.6 1676.34,1267.23 1684.79,1265.47 1693.25,1263.3 1701.7,1260.74 1710.16,1257.77 1718.61,1254.39 1727.07,1250.59 1735.53,1246.4 1743.98,1241.8 1752.44,1236.83 1760.89,1231.49 1769.35,1225.8 1777.8,1219.76 1786.26,1213.39 1794.71,1206.7 1803.17,1199.7 1811.62,1192.41 1820.08,1184.85 1828.53,1177.01 1836.99,1168.92 1845.44,1160.58 1853.9,1152.01 1862.35,1143.23 1870.81,1134.24 1879.26,1125.05 1887.72,1115.68 1896.17,1106.15 1904.63,1096.46 1913.08,1086.62 1921.54,1076.66 1930,1066.57 1938.45,1056.38 1946.91,1046.1 1955.36,1035.74 1963.82,1025.3 1972.27,1014.81 1980.73,1004.28 1989.18,993.716 1997.64,983.133 2006.09,972.543 2014.55,961.96 2023,951.395 2031.46,940.862 2039.91,930.373 2048.37,919.939 2056.82,909.574 2065.28,899.291 2073.73,889.101 2082.19,879.017 2090.64,869.052 2099.1,859.217 2107.55,849.527 2116.01,839.992 2124.47,830.626 2132.92,821.441 2141.38,812.449 2149.83,803.663 2158.29,795.096 2166.74,786.76 2175.2,778.667 2183.65,770.83 2192.11,763.261 2200.56,755.973 2209.02,748.979 2217.47,742.29 2225.93,735.92 2234.38,729.88 2242.84,724.184 2251.29,718.843 2259.75,713.871 2268.2,709.279 2276.66,705.081 2285.11,701.288 2293.57,697.913 2302.02,694.97 2310.48,692.469 2318.94,690.424 2327.39,688.847 2335.85,687.75 2344.3,687.147 2352.76,687.049 "/>
<path clip-path="url(#clip020)" d="M317.586 1424.31 L974.134 1424.31 L974.134 996.631 L317.586 996.631  Z" fill="#ffffff" fill-rule="evenodd" fill-opacity="1"/>
<polyline clip-path="url(#clip020)" style="stroke:#000000; stroke-linecap:round; stroke-linejoin:round; stroke-width:4; stroke-opacity:1; fill:none" points="317.586,1424.31 974.134,1424.31 974.134,996.631 317.586,996.631 317.586,1424.31 "/>
<path clip-path="url(#clip020)" d="M340.979 1096.42 L481.335 1096.42 L481.335 1039.4 L340.979 1039.4 L340.979 1096.42  Z" fill="#808080" fill-rule="evenodd" fill-opacity="0.1"/>
<polyline clip-path="url(#clip020)" style="stroke:#000000; stroke-linecap:round; stroke-linejoin:round; stroke-width:1.1; stroke-opacity:1; fill:none" points="340.979,1096.42 481.335,1096.42 481.335,1039.4 340.979,1039.4 340.979,1096.42 "/>
<path clip-path="url(#clip020)" d="M521.088 1060.13 Q516.377 1060.13 513.64 1063.82 Q510.903 1067.48 510.903 1073.88 Q510.903 1080.28 513.608 1083.97 Q516.346 1087.63 521.088 1087.63 Q525.767 1087.63 528.504 1083.94 Q531.241 1080.24 531.241 1073.88 Q531.241 1067.55 528.504 1063.85 Q525.767 1060.13 521.088 1060.13 M521.088 1055.16 Q528.727 1055.16 533.087 1060.13 Q537.448 1065.09 537.448 1073.88 Q537.448 1082.63 533.087 1087.63 Q528.727 1092.59 521.088 1092.59 Q513.417 1092.59 509.057 1087.63 Q504.728 1082.63 504.728 1073.88 Q504.728 1065.09 509.057 1060.13 Q513.417 1055.16 521.088 1055.16 Z" fill="#000000" fill-rule="nonzero" fill-opacity="1" /><path clip-path="url(#clip020)" d="M546.551 1077.6 L546.551 1056.02 L552.407 1056.02 L552.407 1077.38 Q552.407 1082.44 554.381 1084.99 Q556.354 1087.5 560.301 1087.5 Q565.043 1087.5 567.781 1084.48 Q570.55 1081.45 570.55 1076.23 L570.55 1056.02 L576.406 1056.02 L576.406 1091.67 L570.55 1091.67 L570.55 1086.2 Q568.417 1089.44 565.584 1091.03 Q562.783 1092.59 559.06 1092.59 Q552.917 1092.59 549.734 1088.77 Q546.551 1084.96 546.551 1077.6 M561.288 1055.16 L561.288 1055.16 Z" fill="#000000" fill-rule="nonzero" fill-opacity="1" /><path clip-path="url(#clip020)" d="M594.262 1045.9 L594.262 1056.02 L606.325 1056.02 L606.325 1060.57 L594.262 1060.57 L594.262 1079.93 Q594.262 1084.29 595.44 1085.53 Q596.649 1086.77 600.309 1086.77 L606.325 1086.77 L606.325 1091.67 L600.309 1091.67 Q593.53 1091.67 590.952 1089.16 Q588.374 1086.61 588.374 1079.93 L588.374 1060.57 L584.077 1060.57 L584.077 1056.02 L588.374 1056.02 L588.374 1045.9 L594.262 1045.9 Z" fill="#000000" fill-rule="nonzero" fill-opacity="1" /><path clip-path="url(#clip020)" d="M648.561 1060.13 Q643.851 1060.13 641.114 1063.82 Q638.376 1067.48 638.376 1073.88 Q638.376 1080.28 641.082 1083.97 Q643.819 1087.63 648.561 1087.63 Q653.24 1087.63 655.977 1083.94 Q658.715 1080.24 658.715 1073.88 Q658.715 1067.55 655.977 1063.85 Q653.24 1060.13 648.561 1060.13 M648.561 1055.16 Q656.2 1055.16 660.561 1060.13 Q664.921 1065.09 664.921 1073.88 Q664.921 1082.63 660.561 1087.63 Q656.2 1092.59 648.561 1092.59 Q640.891 1092.59 636.53 1087.63 Q632.202 1082.63 632.202 1073.88 Q632.202 1065.09 636.53 1060.13 Q640.891 1055.16 648.561 1055.16 Z" fill="#000000" fill-rule="nonzero" fill-opacity="1" /><path clip-path="url(#clip020)" d="M692.676 1042.15 L692.676 1047.02 L687.074 1047.02 Q683.923 1047.02 682.682 1048.29 Q681.472 1049.56 681.472 1052.87 L681.472 1056.02 L691.116 1056.02 L691.116 1060.57 L681.472 1060.57 L681.472 1091.67 L675.584 1091.67 L675.584 1060.57 L669.982 1060.57 L669.982 1056.02 L675.584 1056.02 L675.584 1053.54 Q675.584 1047.59 678.353 1044.88 Q681.122 1042.15 687.138 1042.15 L692.676 1042.15 Z" fill="#000000" fill-rule="nonzero" fill-opacity="1" /><path clip-path="url(#clip020)" d="M741.755 1061.43 L741.755 1042.15 L747.612 1042.15 L747.612 1091.67 L741.755 1091.67 L741.755 1086.32 Q739.909 1089.51 737.077 1091.07 Q734.276 1092.59 730.329 1092.59 Q723.868 1092.59 719.794 1087.44 Q715.751 1082.28 715.751 1073.88 Q715.751 1065.48 719.794 1060.32 Q723.868 1055.16 730.329 1055.16 Q734.276 1055.16 737.077 1056.72 Q739.909 1058.25 741.755 1061.43 M721.799 1073.88 Q721.799 1080.34 724.441 1084.03 Q727.114 1087.69 731.761 1087.69 Q736.408 1087.69 739.082 1084.03 Q741.755 1080.34 741.755 1073.88 Q741.755 1067.42 739.082 1063.76 Q736.408 1060.07 731.761 1060.07 Q727.114 1060.07 724.441 1063.76 Q721.799 1067.42 721.799 1073.88 Z" fill="#000000" fill-rule="nonzero" fill-opacity="1" /><path clip-path="url(#clip020)" d="M773.488 1060.13 Q768.778 1060.13 766.04 1063.82 Q763.303 1067.48 763.303 1073.88 Q763.303 1080.28 766.009 1083.97 Q768.746 1087.63 773.488 1087.63 Q778.167 1087.63 780.904 1083.94 Q783.642 1080.24 783.642 1073.88 Q783.642 1067.55 780.904 1063.85 Q778.167 1060.13 773.488 1060.13 M773.488 1055.16 Q781.127 1055.16 785.488 1060.13 Q789.848 1065.09 789.848 1073.88 Q789.848 1082.63 785.488 1087.63 Q781.127 1092.59 773.488 1092.59 Q765.818 1092.59 761.457 1087.63 Q757.129 1082.63 757.129 1073.88 Q757.129 1065.09 761.457 1060.13 Q765.818 1055.16 773.488 1055.16 Z" fill="#000000" fill-rule="nonzero" fill-opacity="1" /><path clip-path="url(#clip020)" d="M827.31 1062.87 Q829.507 1058.92 832.562 1057.04 Q835.618 1055.16 839.755 1055.16 Q845.325 1055.16 848.349 1059.08 Q851.373 1062.96 851.373 1070.16 L851.373 1091.67 L845.485 1091.67 L845.485 1070.35 Q845.485 1065.22 843.67 1062.74 Q841.856 1060.26 838.132 1060.26 Q833.581 1060.26 830.939 1063.28 Q828.297 1066.3 828.297 1071.52 L828.297 1091.67 L822.409 1091.67 L822.409 1070.35 Q822.409 1065.19 820.595 1062.74 Q818.78 1060.26 814.993 1060.26 Q810.505 1060.26 807.863 1063.31 Q805.221 1066.34 805.221 1071.52 L805.221 1091.67 L799.333 1091.67 L799.333 1056.02 L805.221 1056.02 L805.221 1061.56 Q807.227 1058.28 810.028 1056.72 Q812.828 1055.16 816.68 1055.16 Q820.563 1055.16 823.268 1057.14 Q826.005 1059.11 827.31 1062.87 Z" fill="#000000" fill-rule="nonzero" fill-opacity="1" /><path clip-path="url(#clip020)" d="M879.255 1073.75 Q872.157 1073.75 869.42 1075.38 Q866.682 1077 866.682 1080.91 Q866.682 1084.03 868.719 1085.88 Q870.788 1087.69 874.321 1087.69 Q879.191 1087.69 882.119 1084.26 Q885.079 1080.79 885.079 1075.06 L885.079 1073.75 L879.255 1073.75 M890.936 1071.33 L890.936 1091.67 L885.079 1091.67 L885.079 1086.26 Q883.074 1089.51 880.082 1091.07 Q877.09 1092.59 872.762 1092.59 Q867.287 1092.59 864.041 1089.54 Q860.826 1086.45 860.826 1081.3 Q860.826 1075.28 864.836 1072.22 Q868.878 1069.17 876.867 1069.17 L885.079 1069.17 L885.079 1068.6 Q885.079 1064.55 882.406 1062.36 Q879.764 1060.13 874.958 1060.13 Q871.902 1060.13 869.006 1060.86 Q866.109 1061.59 863.436 1063.06 L863.436 1057.65 Q866.65 1056.41 869.674 1055.8 Q872.698 1055.16 875.562 1055.16 Q883.297 1055.16 887.116 1059.17 Q890.936 1063.18 890.936 1071.33 Z" fill="#000000" fill-rule="nonzero" fill-opacity="1" /><path clip-path="url(#clip020)" d="M902.999 1056.02 L908.855 1056.02 L908.855 1091.67 L902.999 1091.67 L902.999 1056.02 M902.999 1042.15 L908.855 1042.15 L908.855 1049.56 L902.999 1049.56 L902.999 1042.15 Z" fill="#000000" fill-rule="nonzero" fill-opacity="1" /><path clip-path="url(#clip020)" d="M950.741 1070.16 L950.741 1091.67 L944.885 1091.67 L944.885 1070.35 Q944.885 1065.29 942.912 1062.77 Q940.938 1060.26 936.992 1060.26 Q932.249 1060.26 929.512 1063.28 Q926.775 1066.3 926.775 1071.52 L926.775 1091.67 L920.886 1091.67 L920.886 1056.02 L926.775 1056.02 L926.775 1061.56 Q928.875 1058.35 931.708 1056.76 Q934.573 1055.16 938.297 1055.16 Q944.439 1055.16 947.59 1058.98 Q950.741 1062.77 950.741 1070.16 Z" fill="#000000" fill-rule="nonzero" fill-opacity="1" /><circle clip-path="url(#clip020)" cx="411.157" cy="1139.19" r="31.68" fill="#0000ff" fill-rule="evenodd" fill-opacity="0.723" stroke="none"/>
<path clip-path="url(#clip020)" d="M530.732 1132.71 L530.732 1113.43 L536.589 1113.43 L536.589 1162.95 L530.732 1162.95 L530.732 1157.6 Q528.886 1160.79 526.053 1162.35 Q523.252 1163.87 519.306 1163.87 Q512.845 1163.87 508.77 1158.72 Q504.728 1153.56 504.728 1145.16 Q504.728 1136.76 508.77 1131.6 Q512.845 1126.44 519.306 1126.44 Q523.252 1126.44 526.053 1128 Q528.886 1129.53 530.732 1132.71 M510.776 1145.16 Q510.776 1151.62 513.417 1155.31 Q516.091 1158.97 520.738 1158.97 Q525.385 1158.97 528.059 1155.31 Q530.732 1151.62 530.732 1145.16 Q530.732 1138.7 528.059 1135.04 Q525.385 1131.35 520.738 1131.35 Q516.091 1131.35 513.417 1135.04 Q510.776 1138.7 510.776 1145.16 Z" fill="#000000" fill-rule="nonzero" fill-opacity="1" /><path clip-path="url(#clip020)" d="M564.852 1145.03 Q557.755 1145.03 555.017 1146.66 Q552.28 1148.28 552.28 1152.19 Q552.28 1155.31 554.317 1157.16 Q556.386 1158.97 559.919 1158.97 Q564.789 1158.97 567.717 1155.54 Q570.677 1152.07 570.677 1146.34 L570.677 1145.03 L564.852 1145.03 M576.533 1142.61 L576.533 1162.95 L570.677 1162.95 L570.677 1157.54 Q568.672 1160.79 565.68 1162.35 Q562.688 1163.87 558.359 1163.87 Q552.885 1163.87 549.638 1160.82 Q546.424 1157.73 546.424 1152.58 Q546.424 1146.56 550.434 1143.5 Q554.476 1140.45 562.465 1140.45 L570.677 1140.45 L570.677 1139.88 Q570.677 1135.83 568.003 1133.64 Q565.362 1131.41 560.555 1131.41 Q557.5 1131.41 554.604 1132.14 Q551.707 1132.87 549.034 1134.34 L549.034 1128.93 Q552.248 1127.69 555.272 1127.08 Q558.296 1126.44 561.16 1126.44 Q568.895 1126.44 572.714 1130.45 Q576.533 1134.46 576.533 1142.61 Z" fill="#000000" fill-rule="nonzero" fill-opacity="1" /><path clip-path="url(#clip020)" d="M594.389 1117.18 L594.389 1127.3 L606.452 1127.3 L606.452 1131.85 L594.389 1131.85 L594.389 1151.21 Q594.389 1155.57 595.567 1156.81 Q596.776 1158.05 600.437 1158.05 L606.452 1158.05 L606.452 1162.95 L600.437 1162.95 Q593.657 1162.95 591.079 1160.44 Q588.501 1157.89 588.501 1151.21 L588.501 1131.85 L584.204 1131.85 L584.204 1127.3 L588.501 1127.3 L588.501 1117.18 L594.389 1117.18 Z" fill="#000000" fill-rule="nonzero" fill-opacity="1" /><path clip-path="url(#clip020)" d="M630.355 1145.03 Q623.258 1145.03 620.52 1146.66 Q617.783 1148.28 617.783 1152.19 Q617.783 1155.31 619.82 1157.16 Q621.889 1158.97 625.422 1158.97 Q630.292 1158.97 633.22 1155.54 Q636.18 1152.07 636.18 1146.34 L636.18 1145.03 L630.355 1145.03 M642.037 1142.61 L642.037 1162.95 L636.18 1162.95 L636.18 1157.54 Q634.175 1160.79 631.183 1162.35 Q628.191 1163.87 623.862 1163.87 Q618.388 1163.87 615.141 1160.82 Q611.927 1157.73 611.927 1152.58 Q611.927 1146.56 615.937 1143.5 Q619.979 1140.45 627.968 1140.45 L636.18 1140.45 L636.18 1139.88 Q636.18 1135.83 633.506 1133.64 Q630.865 1131.41 626.059 1131.41 Q623.003 1131.41 620.107 1132.14 Q617.21 1132.87 614.537 1134.34 L614.537 1128.93 Q617.751 1127.69 620.775 1127.08 Q623.799 1126.44 626.663 1126.44 Q634.398 1126.44 638.217 1130.45 Q642.037 1134.46 642.037 1142.61 Z" fill="#000000" fill-rule="nonzero" fill-opacity="1" /><polyline clip-path="url(#clip020)" style="stroke:#0000ff; stroke-linecap:round; stroke-linejoin:round; stroke-width:11; stroke-opacity:1; fill:none" points="340.979,1210.47 481.335,1210.47 "/>
<path clip-path="url(#clip020)" d="M532.928 1199.95 L532.928 1205.43 Q530.446 1204.06 527.931 1203.39 Q525.449 1202.69 522.902 1202.69 Q517.205 1202.69 514.054 1206.32 Q510.903 1209.91 510.903 1216.44 Q510.903 1222.96 514.054 1226.59 Q517.205 1230.19 522.902 1230.19 Q525.449 1230.19 527.931 1229.52 Q530.446 1228.82 532.928 1227.45 L532.928 1232.86 Q530.478 1234.01 527.836 1234.58 Q525.226 1235.15 522.266 1235.15 Q514.213 1235.15 509.471 1230.09 Q504.728 1225.03 504.728 1216.44 Q504.728 1207.72 509.503 1202.72 Q514.309 1197.72 522.648 1197.72 Q525.353 1197.72 527.931 1198.3 Q530.509 1198.84 532.928 1199.95 Z" fill="#000000" fill-rule="nonzero" fill-opacity="1" /><path clip-path="url(#clip020)" d="M542.509 1220.16 L542.509 1198.58 L548.365 1198.58 L548.365 1219.94 Q548.365 1225 550.339 1227.55 Q552.312 1230.06 556.259 1230.06 Q561.001 1230.06 563.738 1227.04 Q566.507 1224.01 566.507 1218.79 L566.507 1198.58 L572.364 1198.58 L572.364 1234.23 L566.507 1234.23 L566.507 1228.76 Q564.375 1232 561.542 1233.59 Q558.741 1235.15 555.017 1235.15 Q548.874 1235.15 545.692 1231.33 Q542.509 1227.52 542.509 1220.16 M557.245 1197.72 L557.245 1197.72 Z" fill="#000000" fill-rule="nonzero" fill-opacity="1" /><path clip-path="url(#clip020)" d="M610.017 1216.44 Q610.017 1209.98 607.343 1206.32 Q604.702 1202.63 600.055 1202.63 Q595.408 1202.63 592.734 1206.32 Q590.092 1209.98 590.092 1216.44 Q590.092 1222.9 592.734 1226.59 Q595.408 1230.25 600.055 1230.25 Q604.702 1230.25 607.343 1226.59 Q610.017 1222.9 610.017 1216.44 M590.092 1203.99 Q591.938 1200.81 594.739 1199.28 Q597.572 1197.72 601.487 1197.72 Q607.98 1197.72 612.022 1202.88 Q616.096 1208.04 616.096 1216.44 Q616.096 1224.84 612.022 1230 Q607.98 1235.15 601.487 1235.15 Q597.572 1235.15 594.739 1233.63 Q591.938 1232.07 590.092 1228.88 L590.092 1234.23 L584.204 1234.23 L584.204 1184.71 L590.092 1184.71 L590.092 1203.99 Z" fill="#000000" fill-rule="nonzero" fill-opacity="1" /><path clip-path="url(#clip020)" d="M625.804 1198.58 L631.66 1198.58 L631.66 1234.23 L625.804 1234.23 L625.804 1198.58 M625.804 1184.71 L631.66 1184.71 L631.66 1192.12 L625.804 1192.12 L625.804 1184.71 Z" fill="#000000" fill-rule="nonzero" fill-opacity="1" /><path clip-path="url(#clip020)" d="M669.568 1199.95 L669.568 1205.43 Q667.086 1204.06 664.571 1203.39 Q662.089 1202.69 659.542 1202.69 Q653.845 1202.69 650.694 1206.32 Q647.543 1209.91 647.543 1216.44 Q647.543 1222.96 650.694 1226.59 Q653.845 1230.19 659.542 1230.19 Q662.089 1230.19 664.571 1229.52 Q667.086 1228.82 669.568 1227.45 L669.568 1232.86 Q667.117 1234.01 664.476 1234.58 Q661.866 1235.15 658.906 1235.15 Q650.853 1235.15 646.111 1230.09 Q641.368 1225.03 641.368 1216.44 Q641.368 1207.72 646.142 1202.72 Q650.949 1197.72 659.288 1197.72 Q661.993 1197.72 664.571 1198.3 Q667.149 1198.84 669.568 1199.95 Z" fill="#000000" fill-rule="nonzero" fill-opacity="1" /><path clip-path="url(#clip020)" d="M714.542 1184.77 Q710.277 1192.09 708.208 1199.25 Q706.139 1206.41 706.139 1213.77 Q706.139 1221.12 708.208 1228.34 Q710.309 1235.54 714.542 1242.83 L709.449 1242.83 Q704.675 1235.35 702.288 1228.12 Q699.933 1220.9 699.933 1213.77 Q699.933 1206.67 702.288 1199.47 Q704.643 1192.28 709.449 1184.77 L714.542 1184.77 Z" fill="#000000" fill-rule="nonzero" fill-opacity="1" /><path clip-path="url(#clip020)" d="M754.646 1188.27 L754.646 1194.54 Q750.986 1192.79 747.739 1191.93 Q744.493 1191.07 741.469 1191.07 Q736.217 1191.07 733.353 1193.11 Q730.52 1195.15 730.52 1198.9 Q730.52 1202.05 732.398 1203.68 Q734.307 1205.27 739.591 1206.25 L743.474 1207.05 Q750.667 1208.42 754.073 1211.89 Q757.51 1215.33 757.51 1221.12 Q757.51 1228.02 752.863 1231.59 Q748.248 1235.15 739.305 1235.15 Q735.931 1235.15 732.111 1234.39 Q728.324 1233.63 724.25 1232.13 L724.25 1225.51 Q728.165 1227.71 731.92 1228.82 Q735.676 1229.93 739.305 1229.93 Q744.811 1229.93 747.803 1227.77 Q750.795 1225.61 750.795 1221.6 Q750.795 1218.09 748.63 1216.12 Q746.498 1214.15 741.596 1213.16 L737.681 1212.4 Q730.488 1210.96 727.273 1207.91 Q724.059 1204.85 724.059 1199.41 Q724.059 1193.11 728.483 1189.48 Q732.939 1185.85 740.737 1185.85 Q744.079 1185.85 747.548 1186.46 Q751.017 1187.06 754.646 1188.27 Z" fill="#000000" fill-rule="nonzero" fill-opacity="1" /><path clip-path="url(#clip020)" d="M766.359 1184.77 L771.451 1184.77 Q776.226 1192.28 778.581 1199.47 Q780.968 1206.67 780.968 1213.77 Q780.968 1220.9 778.581 1228.12 Q776.226 1235.35 771.451 1242.83 L766.359 1242.83 Q770.592 1235.54 772.661 1228.34 Q774.762 1221.12 774.762 1213.77 Q774.762 1206.41 772.661 1199.25 Q770.592 1192.09 766.359 1184.77 Z" fill="#000000" fill-rule="nonzero" fill-opacity="1" /><path clip-path="url(#clip020)" d="M812.892 1184.71 L826.387 1184.71 L826.387 1189.26 L818.749 1189.26 L818.749 1238.27 L826.387 1238.27 L826.387 1242.83 L812.892 1242.83 L812.892 1184.71 Z" fill="#000000" fill-rule="nonzero" fill-opacity="1" /><path clip-path="url(#clip020)" d="M840.806 1228.82 L851.309 1228.82 L851.309 1192.57 L839.883 1194.86 L839.883 1189 L851.245 1186.71 L857.675 1186.71 L857.675 1228.82 L868.178 1228.82 L868.178 1234.23 L840.806 1234.23 L840.806 1228.82 Z" fill="#000000" fill-rule="nonzero" fill-opacity="1" /><path clip-path="url(#clip020)" d="M894.023 1184.71 L894.023 1242.83 L880.528 1242.83 L880.528 1238.27 L888.135 1238.27 L888.135 1189.26 L880.528 1189.26 L880.528 1184.71 L894.023 1184.71 Z" fill="#000000" fill-rule="nonzero" fill-opacity="1" /><polyline clip-path="url(#clip020)" style="stroke:#ff0000; stroke-linecap:round; stroke-linejoin:round; stroke-width:11; stroke-opacity:1; fill:none" points="340.979,1281.75 481.335,1281.75 "/>
<path clip-path="url(#clip020)" d="M532.928 1271.23 L532.928 1276.71 Q530.446 1275.34 527.931 1274.67 Q525.449 1273.97 522.902 1273.97 Q517.205 1273.97 514.054 1277.6 Q510.903 1281.19 510.903 1287.72 Q510.903 1294.24 514.054 1297.87 Q517.205 1301.47 522.902 1301.47 Q525.449 1301.47 527.931 1300.8 Q530.446 1300.1 532.928 1298.73 L532.928 1304.14 Q530.478 1305.29 527.836 1305.86 Q525.226 1306.43 522.266 1306.43 Q514.213 1306.43 509.471 1301.37 Q504.728 1296.31 504.728 1287.72 Q504.728 1279 509.503 1274 Q514.309 1269 522.648 1269 Q525.353 1269 527.931 1269.58 Q530.509 1270.12 532.928 1271.23 Z" fill="#000000" fill-rule="nonzero" fill-opacity="1" /><path clip-path="url(#clip020)" d="M542.509 1291.44 L542.509 1269.86 L548.365 1269.86 L548.365 1291.22 Q548.365 1296.28 550.339 1298.83 Q552.312 1301.34 556.259 1301.34 Q561.001 1301.34 563.738 1298.32 Q566.507 1295.29 566.507 1290.07 L566.507 1269.86 L572.364 1269.86 L572.364 1305.51 L566.507 1305.51 L566.507 1300.04 Q564.375 1303.28 561.542 1304.87 Q558.741 1306.43 555.017 1306.43 Q548.874 1306.43 545.692 1302.61 Q542.509 1298.8 542.509 1291.44 M557.245 1269 L557.245 1269 Z" fill="#000000" fill-rule="nonzero" fill-opacity="1" /><path clip-path="url(#clip020)" d="M610.017 1287.72 Q610.017 1281.26 607.343 1277.6 Q604.702 1273.91 600.055 1273.91 Q595.408 1273.91 592.734 1277.6 Q590.092 1281.26 590.092 1287.72 Q590.092 1294.18 592.734 1297.87 Q595.408 1301.53 600.055 1301.53 Q604.702 1301.53 607.343 1297.87 Q610.017 1294.18 610.017 1287.72 M590.092 1275.27 Q591.938 1272.09 594.739 1270.56 Q597.572 1269 601.487 1269 Q607.98 1269 612.022 1274.16 Q616.096 1279.32 616.096 1287.72 Q616.096 1296.12 612.022 1301.28 Q607.98 1306.43 601.487 1306.43 Q597.572 1306.43 594.739 1304.91 Q591.938 1303.35 590.092 1300.16 L590.092 1305.51 L584.204 1305.51 L584.204 1255.99 L590.092 1255.99 L590.092 1275.27 Z" fill="#000000" fill-rule="nonzero" fill-opacity="1" /><path clip-path="url(#clip020)" d="M625.804 1269.86 L631.66 1269.86 L631.66 1305.51 L625.804 1305.51 L625.804 1269.86 M625.804 1255.99 L631.66 1255.99 L631.66 1263.4 L625.804 1263.4 L625.804 1255.99 Z" fill="#000000" fill-rule="nonzero" fill-opacity="1" /><path clip-path="url(#clip020)" d="M669.568 1271.23 L669.568 1276.71 Q667.086 1275.34 664.571 1274.67 Q662.089 1273.97 659.542 1273.97 Q653.845 1273.97 650.694 1277.6 Q647.543 1281.19 647.543 1287.72 Q647.543 1294.24 650.694 1297.87 Q653.845 1301.47 659.542 1301.47 Q662.089 1301.47 664.571 1300.8 Q667.086 1300.1 669.568 1298.73 L669.568 1304.14 Q667.117 1305.29 664.476 1305.86 Q661.866 1306.43 658.906 1306.43 Q650.853 1306.43 646.111 1301.37 Q641.368 1296.31 641.368 1287.72 Q641.368 1279 646.142 1274 Q650.949 1269 659.288 1269 Q661.993 1269 664.571 1269.58 Q667.149 1270.12 669.568 1271.23 Z" fill="#000000" fill-rule="nonzero" fill-opacity="1" /><path clip-path="url(#clip020)" d="M714.542 1256.05 Q710.277 1263.37 708.208 1270.53 Q706.139 1277.69 706.139 1285.05 Q706.139 1292.4 708.208 1299.62 Q710.309 1306.82 714.542 1314.11 L709.449 1314.11 Q704.675 1306.63 702.288 1299.4 Q699.933 1292.18 699.933 1285.05 Q699.933 1277.95 702.288 1270.75 Q704.643 1263.56 709.449 1256.05 L714.542 1256.05 Z" fill="#000000" fill-rule="nonzero" fill-opacity="1" /><path clip-path="url(#clip020)" d="M754.646 1259.55 L754.646 1265.82 Q750.986 1264.07 747.739 1263.21 Q744.493 1262.35 741.469 1262.35 Q736.217 1262.35 733.353 1264.39 Q730.52 1266.43 730.52 1270.18 Q730.52 1273.33 732.398 1274.96 Q734.307 1276.55 739.591 1277.53 L743.474 1278.33 Q750.667 1279.7 754.073 1283.17 Q757.51 1286.61 757.51 1292.4 Q757.51 1299.3 752.863 1302.87 Q748.248 1306.43 739.305 1306.43 Q735.931 1306.43 732.111 1305.67 Q728.324 1304.91 724.25 1303.41 L724.25 1296.79 Q728.165 1298.99 731.92 1300.1 Q735.676 1301.21 739.305 1301.21 Q744.811 1301.21 747.803 1299.05 Q750.795 1296.89 750.795 1292.88 Q750.795 1289.37 748.63 1287.4 Q746.498 1285.43 741.596 1284.44 L737.681 1283.68 Q730.488 1282.24 727.273 1279.19 Q724.059 1276.13 724.059 1270.69 Q724.059 1264.39 728.483 1260.76 Q732.939 1257.13 740.737 1257.13 Q744.079 1257.13 747.548 1257.74 Q751.017 1258.34 754.646 1259.55 Z" fill="#000000" fill-rule="nonzero" fill-opacity="1" /><path clip-path="url(#clip020)" d="M766.359 1256.05 L771.451 1256.05 Q776.226 1263.56 778.581 1270.75 Q780.968 1277.95 780.968 1285.05 Q780.968 1292.18 778.581 1299.4 Q776.226 1306.63 771.451 1314.11 L766.359 1314.11 Q770.592 1306.82 772.661 1299.62 Q774.762 1292.4 774.762 1285.05 Q774.762 1277.69 772.661 1270.53 Q770.592 1263.37 766.359 1256.05 Z" fill="#000000" fill-rule="nonzero" fill-opacity="1" /><path clip-path="url(#clip020)" d="M812.892 1255.99 L826.387 1255.99 L826.387 1260.54 L818.749 1260.54 L818.749 1309.55 L826.387 1309.55 L826.387 1314.11 L812.892 1314.11 L812.892 1255.99 Z" fill="#000000" fill-rule="nonzero" fill-opacity="1" /><path clip-path="url(#clip020)" d="M845.23 1300.1 L867.669 1300.1 L867.669 1305.51 L837.496 1305.51 L837.496 1300.1 Q841.156 1296.31 847.458 1289.95 Q853.792 1283.55 855.415 1281.7 Q858.502 1278.23 859.712 1275.85 Q860.953 1273.43 860.953 1271.1 Q860.953 1267.32 858.28 1264.93 Q855.638 1262.54 851.373 1262.54 Q848.349 1262.54 844.975 1263.59 Q841.633 1264.64 837.814 1266.78 L837.814 1260.28 Q841.697 1258.72 845.071 1257.93 Q848.445 1257.13 851.245 1257.13 Q858.63 1257.13 863.022 1260.82 Q867.414 1264.52 867.414 1270.69 Q867.414 1273.62 866.3 1276.26 Q865.218 1278.87 862.322 1282.44 Q861.526 1283.36 857.261 1287.78 Q852.996 1292.18 845.23 1300.1 Z" fill="#000000" fill-rule="nonzero" fill-opacity="1" /><path clip-path="url(#clip020)" d="M894.023 1255.99 L894.023 1314.11 L880.528 1314.11 L880.528 1309.55 L888.135 1309.55 L888.135 1260.54 L880.528 1260.54 L880.528 1255.99 L894.023 1255.99 Z" fill="#000000" fill-rule="nonzero" fill-opacity="1" /><polyline clip-path="url(#clip020)" style="stroke:#008000; stroke-linecap:round; stroke-linejoin:round; stroke-width:11; stroke-opacity:1; fill:none" points="340.979,1353.03 481.335,1353.03 "/>
<path clip-path="url(#clip020)" d="M532.928 1342.51 L532.928 1347.99 Q530.446 1346.62 527.931 1345.95 Q525.449 1345.25 522.902 1345.25 Q517.205 1345.25 514.054 1348.88 Q510.903 1352.47 510.903 1359 Q510.903 1365.52 514.054 1369.15 Q517.205 1372.75 522.902 1372.75 Q525.449 1372.75 527.931 1372.08 Q530.446 1371.38 532.928 1370.01 L532.928 1375.42 Q530.478 1376.57 527.836 1377.14 Q525.226 1377.71 522.266 1377.71 Q514.213 1377.71 509.471 1372.65 Q504.728 1367.59 504.728 1359 Q504.728 1350.28 509.503 1345.28 Q514.309 1340.28 522.648 1340.28 Q525.353 1340.28 527.931 1340.86 Q530.509 1341.4 532.928 1342.51 Z" fill="#000000" fill-rule="nonzero" fill-opacity="1" /><path clip-path="url(#clip020)" d="M542.509 1362.72 L542.509 1341.14 L548.365 1341.14 L548.365 1362.5 Q548.365 1367.56 550.339 1370.11 Q552.312 1372.62 556.259 1372.62 Q561.001 1372.62 563.738 1369.6 Q566.507 1366.57 566.507 1361.35 L566.507 1341.14 L572.364 1341.14 L572.364 1376.79 L566.507 1376.79 L566.507 1371.32 Q564.375 1374.56 561.542 1376.15 Q558.741 1377.71 555.017 1377.71 Q548.874 1377.71 545.692 1373.89 Q542.509 1370.08 542.509 1362.72 M557.245 1340.28 L557.245 1340.28 Z" fill="#000000" fill-rule="nonzero" fill-opacity="1" /><path clip-path="url(#clip020)" d="M610.017 1359 Q610.017 1352.54 607.343 1348.88 Q604.702 1345.19 600.055 1345.19 Q595.408 1345.19 592.734 1348.88 Q590.092 1352.54 590.092 1359 Q590.092 1365.46 592.734 1369.15 Q595.408 1372.81 600.055 1372.81 Q604.702 1372.81 607.343 1369.15 Q610.017 1365.46 610.017 1359 M590.092 1346.55 Q591.938 1343.37 594.739 1341.84 Q597.572 1340.28 601.487 1340.28 Q607.98 1340.28 612.022 1345.44 Q616.096 1350.6 616.096 1359 Q616.096 1367.4 612.022 1372.56 Q607.98 1377.71 601.487 1377.71 Q597.572 1377.71 594.739 1376.19 Q591.938 1374.63 590.092 1371.44 L590.092 1376.79 L584.204 1376.79 L584.204 1327.27 L590.092 1327.27 L590.092 1346.55 Z" fill="#000000" fill-rule="nonzero" fill-opacity="1" /><path clip-path="url(#clip020)" d="M625.804 1341.14 L631.66 1341.14 L631.66 1376.79 L625.804 1376.79 L625.804 1341.14 M625.804 1327.27 L631.66 1327.27 L631.66 1334.68 L625.804 1334.68 L625.804 1327.27 Z" fill="#000000" fill-rule="nonzero" fill-opacity="1" /><path clip-path="url(#clip020)" d="M669.568 1342.51 L669.568 1347.99 Q667.086 1346.62 664.571 1345.95 Q662.089 1345.25 659.542 1345.25 Q653.845 1345.25 650.694 1348.88 Q647.543 1352.47 647.543 1359 Q647.543 1365.52 650.694 1369.15 Q653.845 1372.75 659.542 1372.75 Q662.089 1372.75 664.571 1372.08 Q667.086 1371.38 669.568 1370.01 L669.568 1375.42 Q667.117 1376.57 664.476 1377.14 Q661.866 1377.71 658.906 1377.71 Q650.853 1377.71 646.111 1372.65 Q641.368 1367.59 641.368 1359 Q641.368 1350.28 646.142 1345.28 Q650.949 1340.28 659.288 1340.28 Q661.993 1340.28 664.571 1340.86 Q667.149 1341.4 669.568 1342.51 Z" fill="#000000" fill-rule="nonzero" fill-opacity="1" /><path clip-path="url(#clip020)" d="M714.542 1327.33 Q710.277 1334.65 708.208 1341.81 Q706.139 1348.97 706.139 1356.33 Q706.139 1363.68 708.208 1370.9 Q710.309 1378.1 714.542 1385.39 L709.449 1385.39 Q704.675 1377.91 702.288 1370.68 Q699.933 1363.46 699.933 1356.33 Q699.933 1349.23 702.288 1342.03 Q704.643 1334.84 709.449 1327.33 L714.542 1327.33 Z" fill="#000000" fill-rule="nonzero" fill-opacity="1" /><path clip-path="url(#clip020)" d="M754.646 1330.83 L754.646 1337.1 Q750.986 1335.35 747.739 1334.49 Q744.493 1333.63 741.469 1333.63 Q736.217 1333.63 733.353 1335.67 Q730.52 1337.71 730.52 1341.46 Q730.52 1344.61 732.398 1346.24 Q734.307 1347.83 739.591 1348.81 L743.474 1349.61 Q750.667 1350.98 754.073 1354.45 Q757.51 1357.89 757.51 1363.68 Q757.51 1370.58 752.863 1374.15 Q748.248 1377.71 739.305 1377.71 Q735.931 1377.71 732.111 1376.95 Q728.324 1376.19 724.25 1374.69 L724.25 1368.07 Q728.165 1370.27 731.92 1371.38 Q735.676 1372.49 739.305 1372.49 Q744.811 1372.49 747.803 1370.33 Q750.795 1368.17 750.795 1364.16 Q750.795 1360.65 748.63 1358.68 Q746.498 1356.71 741.596 1355.72 L737.681 1354.96 Q730.488 1353.52 727.273 1350.47 Q724.059 1347.41 724.059 1341.97 Q724.059 1335.67 728.483 1332.04 Q732.939 1328.41 740.737 1328.41 Q744.079 1328.41 747.548 1329.02 Q751.017 1329.62 754.646 1330.83 Z" fill="#000000" fill-rule="nonzero" fill-opacity="1" /><path clip-path="url(#clip020)" d="M766.359 1327.33 L771.451 1327.33 Q776.226 1334.84 778.581 1342.03 Q780.968 1349.23 780.968 1356.33 Q780.968 1363.46 778.581 1370.68 Q776.226 1377.91 771.451 1385.39 L766.359 1385.39 Q770.592 1378.1 772.661 1370.9 Q774.762 1363.68 774.762 1356.33 Q774.762 1348.97 772.661 1341.81 Q770.592 1334.65 766.359 1327.33 Z" fill="#000000" fill-rule="nonzero" fill-opacity="1" /><path clip-path="url(#clip020)" d="M812.892 1327.27 L826.387 1327.27 L826.387 1331.82 L818.749 1331.82 L818.749 1380.83 L826.387 1380.83 L826.387 1385.39 L812.892 1385.39 L812.892 1327.27 Z" fill="#000000" fill-rule="nonzero" fill-opacity="1" /><path clip-path="url(#clip020)" d="M859.171 1351.17 Q863.786 1352.16 866.364 1355.28 Q868.974 1358.39 868.974 1362.98 Q868.974 1370.01 864.136 1373.86 Q859.298 1377.71 850.386 1377.71 Q847.394 1377.71 844.211 1377.11 Q841.06 1376.54 837.687 1375.36 L837.687 1369.15 Q840.36 1370.71 843.543 1371.51 Q846.726 1372.3 850.195 1372.3 Q856.243 1372.3 859.394 1369.92 Q862.576 1367.53 862.576 1362.98 Q862.576 1358.78 859.616 1356.42 Q856.688 1354.03 851.436 1354.03 L845.898 1354.03 L845.898 1348.75 L851.691 1348.75 Q856.434 1348.75 858.948 1346.87 Q861.462 1344.96 861.462 1341.4 Q861.462 1337.74 858.853 1335.8 Q856.274 1333.82 851.436 1333.82 Q848.795 1333.82 845.771 1334.4 Q842.747 1334.97 839.119 1336.18 L839.119 1330.45 Q842.779 1329.43 845.962 1328.92 Q849.177 1328.41 852.009 1328.41 Q859.33 1328.41 863.595 1331.75 Q867.86 1335.06 867.86 1340.73 Q867.86 1344.68 865.6 1347.41 Q863.34 1350.12 859.171 1351.17 Z" fill="#000000" fill-rule="nonzero" fill-opacity="1" /><path clip-path="url(#clip020)" d="M894.023 1327.27 L894.023 1385.39 L880.528 1385.39 L880.528 1380.83 L888.135 1380.83 L888.135 1331.82 L880.528 1331.82 L880.528 1327.27 L894.023 1327.27 Z" fill="#000000" fill-rule="nonzero" fill-opacity="1" /></svg>
