<?xml version="1.0" encoding="utf-8"?>
<svg xmlns="http://www.w3.org/2000/svg" xmlns:xlink="http://www.w3.org/1999/xlink" width="600" height="400" viewBox="0 0 2400 1600">
<defs>
  <clipPath id="clip630">
    <rect x="0" y="0" width="2400" height="1600"/>
  </clipPath>
</defs>
<path clip-path="url(#clip630)" d="M0 1600 L2400 1600 L2400 0 L0 0  Z" fill="#ffffff" fill-rule="evenodd" fill-opacity="1"/>
<defs>
  <clipPath id="clip631">
    <rect x="219" y="123" width="2134" height="1301"/>
  </clipPath>
</defs>
<path clip-path="url(#clip630)" d="M219.38 1423.18 L2352.76 1423.18 L2352.76 123.472 L219.38 123.472  Z" fill="#ffffff" fill-rule="evenodd" fill-opacity="1"/>
<polyline clip-path="url(#clip631)" style="stroke:#000000; stroke-linecap:round; stroke-linejoin:round; stroke-width:2; stroke-opacity:0.1; fill:none" points="279.759,1423.18 279.759,123.472 "/>
<polyline clip-path="url(#clip631)" style="stroke:#000000; stroke-linecap:round; stroke-linejoin:round; stroke-width:2; stroke-opacity:0.1; fill:none" points="782.913,1423.18 782.913,123.472 "/>
<polyline clip-path="url(#clip631)" style="stroke:#000000; stroke-linecap:round; stroke-linejoin:round; stroke-width:2; stroke-opacity:0.1; fill:none" points="1286.07,1423.18 1286.07,123.472 "/>
<polyline clip-path="url(#clip631)" style="stroke:#000000; stroke-linecap:round; stroke-linejoin:round; stroke-width:2; stroke-opacity:0.1; fill:none" points="1789.22,1423.18 1789.22,123.472 "/>
<polyline clip-path="url(#clip631)" style="stroke:#000000; stroke-linecap:round; stroke-linejoin:round; stroke-width:2; stroke-opacity:0.1; fill:none" points="2292.38,1423.18 2292.38,123.472 "/>
<polyline clip-path="url(#clip631)" style="stroke:#000000; stroke-linecap:round; stroke-linejoin:round; stroke-width:2; stroke-opacity:0.1; fill:none" points="219.38,1386.4 2352.76,1386.4 "/>
<polyline clip-path="url(#clip631)" style="stroke:#000000; stroke-linecap:round; stroke-linejoin:round; stroke-width:2; stroke-opacity:0.1; fill:none" points="219.38,1088.78 2352.76,1088.78 "/>
<polyline clip-path="url(#clip631)" style="stroke:#000000; stroke-linecap:round; stroke-linejoin:round; stroke-width:2; stroke-opacity:0.1; fill:none" points="219.38,791.174 2352.76,791.174 "/>
<polyline clip-path="url(#clip631)" style="stroke:#000000; stroke-linecap:round; stroke-linejoin:round; stroke-width:2; stroke-opacity:0.1; fill:none" points="219.38,493.563 2352.76,493.563 "/>
<polyline clip-path="url(#clip631)" style="stroke:#000000; stroke-linecap:round; stroke-linejoin:round; stroke-width:2; stroke-opacity:0.1; fill:none" points="219.38,195.952 2352.76,195.952 "/>
<polyline clip-path="url(#clip630)" style="stroke:#000000; stroke-linecap:round; stroke-linejoin:round; stroke-width:4; stroke-opacity:1; fill:none" points="219.38,1423.18 2352.76,1423.18 "/>
<polyline clip-path="url(#clip630)" style="stroke:#000000; stroke-linecap:round; stroke-linejoin:round; stroke-width:4; stroke-opacity:1; fill:none" points="279.759,1423.18 279.759,1404.28 "/>
<polyline clip-path="url(#clip630)" style="stroke:#000000; stroke-linecap:round; stroke-linejoin:round; stroke-width:4; stroke-opacity:1; fill:none" points="782.913,1423.18 782.913,1404.28 "/>
<polyline clip-path="url(#clip630)" style="stroke:#000000; stroke-linecap:round; stroke-linejoin:round; stroke-width:4; stroke-opacity:1; fill:none" points="1286.07,1423.18 1286.07,1404.28 "/>
<polyline clip-path="url(#clip630)" style="stroke:#000000; stroke-linecap:round; stroke-linejoin:round; stroke-width:4; stroke-opacity:1; fill:none" points="1789.22,1423.18 1789.22,1404.28 "/>
<polyline clip-path="url(#clip630)" style="stroke:#000000; stroke-linecap:round; stroke-linejoin:round; stroke-width:4; stroke-opacity:1; fill:none" points="2292.38,1423.18 2292.38,1404.28 "/>
<path clip-path="url(#clip630)" d="M279.759 1454.1 Q276.148 1454.1 274.319 1457.66 Q272.513 1461.2 272.513 1468.33 Q272.513 1475.44 274.319 1479.01 Q276.148 1482.55 279.759 1482.55 Q283.393 1482.55 285.199 1479.01 Q287.027 1475.44 287.027 1468.33 Q287.027 1461.2 285.199 1457.66 Q283.393 1454.1 279.759 1454.1 M279.759 1450.39 Q285.569 1450.39 288.624 1455 Q291.703 1459.58 291.703 1468.33 Q291.703 1477.06 288.624 1481.67 Q285.569 1486.25 279.759 1486.25 Q273.949 1486.25 270.87 1481.67 Q267.814 1477.06 267.814 1468.33 Q267.814 1459.58 270.87 1455 Q273.949 1450.39 279.759 1450.39 Z" fill="#000000" fill-rule="nonzero" fill-opacity="1" /><path clip-path="url(#clip630)" d="M773.295 1481.64 L780.934 1481.64 L780.934 1455.28 L772.624 1456.95 L772.624 1452.69 L780.888 1451.02 L785.564 1451.02 L785.564 1481.64 L793.203 1481.64 L793.203 1485.58 L773.295 1485.58 L773.295 1481.64 Z" fill="#000000" fill-rule="nonzero" fill-opacity="1" /><path clip-path="url(#clip630)" d="M1280.72 1481.64 L1297.04 1481.64 L1297.04 1485.58 L1275.1 1485.58 L1275.1 1481.64 Q1277.76 1478.89 1282.34 1474.26 Q1286.95 1469.61 1288.13 1468.27 Q1290.37 1465.74 1291.25 1464.01 Q1292.16 1462.25 1292.16 1460.56 Q1292.16 1457.8 1290.21 1456.07 Q1288.29 1454.33 1285.19 1454.33 Q1282.99 1454.33 1280.54 1455.09 Q1278.11 1455.86 1275.33 1457.41 L1275.33 1452.69 Q1278.15 1451.55 1280.61 1450.97 Q1283.06 1450.39 1285.1 1450.39 Q1290.47 1450.39 1293.66 1453.08 Q1296.86 1455.77 1296.86 1460.26 Q1296.86 1462.39 1296.04 1464.31 Q1295.26 1466.2 1293.15 1468.8 Q1292.57 1469.47 1289.47 1472.69 Q1286.37 1475.88 1280.72 1481.64 Z" fill="#000000" fill-rule="nonzero" fill-opacity="1" /><path clip-path="url(#clip630)" d="M1793.47 1466.95 Q1796.83 1467.66 1798.7 1469.93 Q1800.6 1472.2 1800.6 1475.53 Q1800.6 1480.65 1797.08 1483.45 Q1793.56 1486.25 1787.08 1486.25 Q1784.91 1486.25 1782.59 1485.81 Q1780.3 1485.39 1777.85 1484.54 L1777.85 1480.02 Q1779.79 1481.16 1782.1 1481.74 Q1784.42 1482.32 1786.94 1482.32 Q1791.34 1482.32 1793.63 1480.58 Q1795.95 1478.84 1795.95 1475.53 Q1795.95 1472.48 1793.79 1470.77 Q1791.66 1469.03 1787.85 1469.03 L1783.82 1469.03 L1783.82 1465.19 L1788.03 1465.19 Q1791.48 1465.19 1793.31 1463.82 Q1795.14 1462.43 1795.14 1459.84 Q1795.14 1457.18 1793.24 1455.77 Q1791.36 1454.33 1787.85 1454.33 Q1785.92 1454.33 1783.73 1454.75 Q1781.53 1455.16 1778.89 1456.04 L1778.89 1451.88 Q1781.55 1451.14 1783.86 1450.77 Q1786.2 1450.39 1788.26 1450.39 Q1793.59 1450.39 1796.69 1452.83 Q1799.79 1455.23 1799.79 1459.35 Q1799.79 1462.22 1798.15 1464.21 Q1796.5 1466.18 1793.47 1466.95 Z" fill="#000000" fill-rule="nonzero" fill-opacity="1" /><path clip-path="url(#clip630)" d="M2295.39 1455.09 L2283.58 1473.54 L2295.39 1473.54 L2295.39 1455.09 M2294.16 1451.02 L2300.04 1451.02 L2300.04 1473.54 L2304.97 1473.54 L2304.97 1477.43 L2300.04 1477.43 L2300.04 1485.58 L2295.39 1485.58 L2295.39 1477.43 L2279.78 1477.43 L2279.78 1472.92 L2294.16 1451.02 Z" fill="#000000" fill-rule="nonzero" fill-opacity="1" /><path clip-path="url(#clip630)" d="M1302.68 1532.4 L1289.79 1549.74 L1303.35 1568.04 L1296.44 1568.04 L1286.07 1554.04 L1275.69 1568.04 L1268.79 1568.04 L1282.63 1549.39 L1269.96 1532.4 L1276.87 1532.4 L1286.32 1545.1 L1295.78 1532.4 L1302.68 1532.4 Z" fill="#000000" fill-rule="nonzero" fill-opacity="1" /><polyline clip-path="url(#clip630)" style="stroke:#000000; stroke-linecap:round; stroke-linejoin:round; stroke-width:4; stroke-opacity:1; fill:none" points="219.38,1423.18 219.38,123.472 "/>
<polyline clip-path="url(#clip630)" style="stroke:#000000; stroke-linecap:round; stroke-linejoin:round; stroke-width:4; stroke-opacity:1; fill:none" points="219.38,1386.4 238.278,1386.4 "/>
<polyline clip-path="url(#clip630)" style="stroke:#000000; stroke-linecap:round; stroke-linejoin:round; stroke-width:4; stroke-opacity:1; fill:none" points="219.38,1088.78 238.278,1088.78 "/>
<polyline clip-path="url(#clip630)" style="stroke:#000000; stroke-linecap:round; stroke-linejoin:round; stroke-width:4; stroke-opacity:1; fill:none" points="219.38,791.174 238.278,791.174 "/>
<polyline clip-path="url(#clip630)" style="stroke:#000000; stroke-linecap:round; stroke-linejoin:round; stroke-width:4; stroke-opacity:1; fill:none" points="219.38,493.563 238.278,493.563 "/>
<polyline clip-path="url(#clip630)" style="stroke:#000000; stroke-linecap:round; stroke-linejoin:round; stroke-width:4; stroke-opacity:1; fill:none" points="219.38,195.952 238.278,195.952 "/>
<path clip-path="url(#clip630)" d="M126.205 1372.19 Q122.593 1372.19 120.765 1375.76 Q118.959 1379.3 118.959 1386.43 Q118.959 1393.54 120.765 1397.1 Q122.593 1400.64 126.205 1400.64 Q129.839 1400.64 131.644 1397.1 Q133.473 1393.54 133.473 1386.43 Q133.473 1379.3 131.644 1375.76 Q129.839 1372.19 126.205 1372.19 M126.205 1368.49 Q132.015 1368.49 135.07 1373.1 Q138.149 1377.68 138.149 1386.43 Q138.149 1395.16 135.07 1399.76 Q132.015 1404.35 126.205 1404.35 Q120.394 1404.35 117.316 1399.76 Q114.26 1395.16 114.26 1386.43 Q114.26 1377.68 117.316 1373.1 Q120.394 1368.49 126.205 1368.49 Z" fill="#000000" fill-rule="nonzero" fill-opacity="1" /><path clip-path="url(#clip630)" d="M146.366 1397.8 L151.251 1397.8 L151.251 1403.68 L146.366 1403.68 L146.366 1397.8 Z" fill="#000000" fill-rule="nonzero" fill-opacity="1" /><path clip-path="url(#clip630)" d="M171.436 1372.19 Q167.825 1372.19 165.996 1375.76 Q164.19 1379.3 164.19 1386.43 Q164.19 1393.54 165.996 1397.1 Q167.825 1400.64 171.436 1400.64 Q175.07 1400.64 176.876 1397.1 Q178.704 1393.54 178.704 1386.43 Q178.704 1379.3 176.876 1375.76 Q175.07 1372.19 171.436 1372.19 M171.436 1368.49 Q177.246 1368.49 180.301 1373.1 Q183.38 1377.68 183.38 1386.43 Q183.38 1395.16 180.301 1399.76 Q177.246 1404.35 171.436 1404.35 Q165.626 1404.35 162.547 1399.76 Q159.491 1395.16 159.491 1386.43 Q159.491 1377.68 162.547 1373.1 Q165.626 1368.49 171.436 1368.49 Z" fill="#000000" fill-rule="nonzero" fill-opacity="1" /><path clip-path="url(#clip630)" d="M127.2 1074.58 Q123.589 1074.58 121.76 1078.15 Q119.955 1081.69 119.955 1088.82 Q119.955 1095.93 121.76 1099.49 Q123.589 1103.03 127.2 1103.03 Q130.834 1103.03 132.64 1099.49 Q134.468 1095.93 134.468 1088.82 Q134.468 1081.69 132.64 1078.15 Q130.834 1074.58 127.2 1074.58 M127.2 1070.88 Q133.01 1070.88 136.066 1075.49 Q139.144 1080.07 139.144 1088.82 Q139.144 1097.55 136.066 1102.15 Q133.01 1106.74 127.2 1106.74 Q121.39 1106.74 118.311 1102.15 Q115.256 1097.55 115.256 1088.82 Q115.256 1080.07 118.311 1075.49 Q121.39 1070.88 127.2 1070.88 Z" fill="#000000" fill-rule="nonzero" fill-opacity="1" /><path clip-path="url(#clip630)" d="M147.362 1100.19 L152.246 1100.19 L152.246 1106.06 L147.362 1106.06 L147.362 1100.19 Z" fill="#000000" fill-rule="nonzero" fill-opacity="1" /><path clip-path="url(#clip630)" d="M162.477 1071.5 L180.834 1071.5 L180.834 1075.44 L166.76 1075.44 L166.76 1083.91 Q167.778 1083.56 168.797 1083.4 Q169.815 1083.22 170.834 1083.22 Q176.621 1083.22 180.001 1086.39 Q183.38 1089.56 183.38 1094.98 Q183.38 1100.56 179.908 1103.66 Q176.436 1106.74 170.116 1106.74 Q167.94 1106.74 165.672 1106.37 Q163.427 1106 161.019 1105.25 L161.019 1100.56 Q163.102 1101.69 165.325 1102.25 Q167.547 1102.8 170.024 1102.8 Q174.028 1102.8 176.366 1100.69 Q178.704 1098.59 178.704 1094.98 Q178.704 1091.37 176.366 1089.26 Q174.028 1087.15 170.024 1087.15 Q168.149 1087.15 166.274 1087.57 Q164.422 1087.99 162.477 1088.87 L162.477 1071.5 Z" fill="#000000" fill-rule="nonzero" fill-opacity="1" /><path clip-path="url(#clip630)" d="M117.015 804.519 L124.654 804.519 L124.654 778.153 L116.343 779.82 L116.343 775.561 L124.607 773.894 L129.283 773.894 L129.283 804.519 L136.922 804.519 L136.922 808.454 L117.015 808.454 L117.015 804.519 Z" fill="#000000" fill-rule="nonzero" fill-opacity="1" /><path clip-path="url(#clip630)" d="M146.366 802.574 L151.251 802.574 L151.251 808.454 L146.366 808.454 L146.366 802.574 Z" fill="#000000" fill-rule="nonzero" fill-opacity="1" /><path clip-path="url(#clip630)" d="M171.436 776.973 Q167.825 776.973 165.996 780.537 Q164.19 784.079 164.19 791.209 Q164.19 798.315 165.996 801.88 Q167.825 805.422 171.436 805.422 Q175.07 805.422 176.876 801.88 Q178.704 798.315 178.704 791.209 Q178.704 784.079 176.876 780.537 Q175.07 776.973 171.436 776.973 M171.436 773.269 Q177.246 773.269 180.301 777.875 Q183.38 782.459 183.38 791.209 Q183.38 799.936 180.301 804.542 Q177.246 809.125 171.436 809.125 Q165.626 809.125 162.547 804.542 Q159.491 799.936 159.491 791.209 Q159.491 782.459 162.547 777.875 Q165.626 773.269 171.436 773.269 Z" fill="#000000" fill-rule="nonzero" fill-opacity="1" /><path clip-path="url(#clip630)" d="M118.01 506.908 L125.649 506.908 L125.649 480.542 L117.339 482.209 L117.339 477.95 L125.603 476.283 L130.279 476.283 L130.279 506.908 L137.917 506.908 L137.917 510.843 L118.01 510.843 L118.01 506.908 Z" fill="#000000" fill-rule="nonzero" fill-opacity="1" /><path clip-path="url(#clip630)" d="M147.362 504.964 L152.246 504.964 L152.246 510.843 L147.362 510.843 L147.362 504.964 Z" fill="#000000" fill-rule="nonzero" fill-opacity="1" /><path clip-path="url(#clip630)" d="M162.477 476.283 L180.834 476.283 L180.834 480.218 L166.76 480.218 L166.76 488.69 Q167.778 488.343 168.797 488.181 Q169.815 487.996 170.834 487.996 Q176.621 487.996 180.001 491.167 Q183.38 494.339 183.38 499.755 Q183.38 505.334 179.908 508.436 Q176.436 511.514 170.116 511.514 Q167.94 511.514 165.672 511.144 Q163.427 510.774 161.019 510.033 L161.019 505.334 Q163.102 506.468 165.325 507.024 Q167.547 507.579 170.024 507.579 Q174.028 507.579 176.366 505.473 Q178.704 503.366 178.704 499.755 Q178.704 496.144 176.366 494.038 Q174.028 491.931 170.024 491.931 Q168.149 491.931 166.274 492.348 Q164.422 492.765 162.477 493.644 L162.477 476.283 Z" fill="#000000" fill-rule="nonzero" fill-opacity="1" /><path clip-path="url(#clip630)" d="M120.232 209.297 L136.552 209.297 L136.552 213.232 L114.607 213.232 L114.607 209.297 Q117.269 206.543 121.853 201.913 Q126.459 197.26 127.64 195.918 Q129.885 193.394 130.765 191.658 Q131.667 189.899 131.667 188.209 Q131.667 185.455 129.723 183.719 Q127.802 181.982 124.7 181.982 Q122.501 181.982 120.047 182.746 Q117.617 183.51 114.839 185.061 L114.839 180.339 Q117.663 179.205 120.117 178.626 Q122.57 178.047 124.607 178.047 Q129.978 178.047 133.172 180.732 Q136.367 183.418 136.367 187.908 Q136.367 190.038 135.556 191.959 Q134.769 193.857 132.663 196.45 Q132.084 197.121 128.982 200.339 Q125.88 203.533 120.232 209.297 Z" fill="#000000" fill-rule="nonzero" fill-opacity="1" /><path clip-path="url(#clip630)" d="M146.366 207.353 L151.251 207.353 L151.251 213.232 L146.366 213.232 L146.366 207.353 Z" fill="#000000" fill-rule="nonzero" fill-opacity="1" /><path clip-path="url(#clip630)" d="M171.436 181.751 Q167.825 181.751 165.996 185.316 Q164.19 188.857 164.19 195.987 Q164.19 203.093 165.996 206.658 Q167.825 210.2 171.436 210.2 Q175.07 210.2 176.876 206.658 Q178.704 203.093 178.704 195.987 Q178.704 188.857 176.876 185.316 Q175.07 181.751 171.436 181.751 M171.436 178.047 Q177.246 178.047 180.301 182.654 Q183.38 187.237 183.38 195.987 Q183.38 204.714 180.301 209.32 Q177.246 213.904 171.436 213.904 Q165.626 213.904 162.547 209.32 Q159.491 204.714 159.491 195.987 Q159.491 187.237 162.547 182.654 Q165.626 178.047 171.436 178.047 Z" fill="#000000" fill-rule="nonzero" fill-opacity="1" /><path clip-path="url(#clip630)" d="M67.3143 771.639 Q73.68 774.122 75.6216 776.477 Q77.5631 778.832 77.5631 782.779 L77.5631 787.458 L72.6615 787.458 L72.6615 784.02 Q72.6615 781.601 71.5157 780.265 Q70.3699 778.928 66.1048 777.305 L63.4312 776.254 L28.3562 790.673 L28.3562 784.466 L56.238 773.326 L28.3562 762.186 L28.3562 755.979 L67.3143 771.639 Z" fill="#000000" fill-rule="nonzero" fill-opacity="1" /><path clip-path="url(#clip630)" d="M812.477 12.096 L823.495 12.096 L850.312 62.6918 L850.312 12.096 L858.252 12.096 L858.252 72.576 L847.234 72.576 L820.417 21.9802 L820.417 72.576 L812.477 72.576 L812.477 12.096 Z" fill="#000000" fill-rule="nonzero" fill-opacity="1" /><path clip-path="url(#clip630)" d="M894.832 49.7694 Q885.798 49.7694 882.314 51.8354 Q878.831 53.9013 878.831 58.8839 Q878.831 62.8538 881.423 65.2034 Q884.056 67.5124 888.553 67.5124 Q894.751 67.5124 898.478 63.1374 Q902.245 58.7219 902.245 51.4303 L902.245 49.7694 L894.832 49.7694 M909.699 46.6907 L909.699 72.576 L902.245 72.576 L902.245 65.6895 Q899.693 69.8214 895.885 71.8063 Q892.077 73.7508 886.568 73.7508 Q879.6 73.7508 875.468 69.8619 Q871.377 65.9325 871.377 59.3701 Q871.377 51.7138 876.481 47.825 Q881.626 43.9361 891.794 43.9361 L902.245 43.9361 L902.245 43.2069 Q902.245 38.0623 898.842 35.2672 Q895.48 32.4315 889.363 32.4315 Q885.474 32.4315 881.788 33.3632 Q878.101 34.295 874.699 36.1584 L874.699 29.2718 Q878.79 27.692 882.638 26.9223 Q886.487 26.1121 890.133 26.1121 Q899.976 26.1121 904.837 31.2163 Q909.699 36.3204 909.699 46.6907 Z" fill="#000000" fill-rule="nonzero" fill-opacity="1" /><path clip-path="url(#clip630)" d="M932.424 14.324 L932.424 27.2059 L947.777 27.2059 L947.777 32.9987 L932.424 32.9987 L932.424 57.6282 Q932.424 63.1779 933.923 64.7578 Q935.462 66.3376 940.121 66.3376 L947.777 66.3376 L947.777 72.576 L940.121 72.576 Q931.492 72.576 928.211 69.3758 Q924.93 66.1351 924.93 57.6282 L924.93 32.9987 L919.461 32.9987 L919.461 27.2059 L924.93 27.2059 L924.93 14.324 L932.424 14.324 Z" fill="#000000" fill-rule="nonzero" fill-opacity="1" /><path clip-path="url(#clip630)" d="M956.811 54.671 L956.811 27.2059 L964.264 27.2059 L964.264 54.3874 Q964.264 60.8284 966.776 64.0691 Q969.287 67.2693 974.31 67.2693 Q980.346 67.2693 983.83 63.421 Q987.354 59.5726 987.354 52.9291 L987.354 27.2059 L994.808 27.2059 L994.808 72.576 L987.354 72.576 L987.354 65.6084 Q984.64 69.7404 981.035 71.7658 Q977.47 73.7508 972.731 73.7508 Q964.912 73.7508 960.861 68.8897 Q956.811 64.0286 956.811 54.671 M975.566 26.1121 L975.566 26.1121 Z" fill="#000000" fill-rule="nonzero" fill-opacity="1" /><path clip-path="url(#clip630)" d="M1036.45 34.1734 Q1035.2 33.4443 1033.7 33.1202 Q1032.24 32.7556 1030.46 32.7556 Q1024.14 32.7556 1020.73 36.8875 Q1017.37 40.9789 1017.37 48.6757 L1017.37 72.576 L1009.88 72.576 L1009.88 27.2059 L1017.37 27.2059 L1017.37 34.2544 Q1019.72 30.1225 1023.49 28.1376 Q1027.26 26.1121 1032.64 26.1121 Q1033.41 26.1121 1034.34 26.2337 Q1035.28 26.3147 1036.41 26.5172 L1036.45 34.1734 Z" fill="#000000" fill-rule="nonzero" fill-opacity="1" /><path clip-path="url(#clip630)" d="M1064.89 49.7694 Q1055.86 49.7694 1052.37 51.8354 Q1048.89 53.9013 1048.89 58.8839 Q1048.89 62.8538 1051.48 65.2034 Q1054.11 67.5124 1058.61 67.5124 Q1064.81 67.5124 1068.53 63.1374 Q1072.3 58.7219 1072.3 51.4303 L1072.3 49.7694 L1064.89 49.7694 M1079.76 46.6907 L1079.76 72.576 L1072.3 72.576 L1072.3 65.6895 Q1069.75 69.8214 1065.94 71.8063 Q1062.13 73.7508 1056.62 73.7508 Q1049.66 73.7508 1045.53 69.8619 Q1041.43 65.9325 1041.43 59.3701 Q1041.43 51.7138 1046.54 47.825 Q1051.68 43.9361 1061.85 43.9361 L1072.3 43.9361 L1072.3 43.2069 Q1072.3 38.0623 1068.9 35.2672 Q1065.54 32.4315 1059.42 32.4315 Q1055.53 32.4315 1051.84 33.3632 Q1048.16 34.295 1044.76 36.1584 L1044.76 29.2718 Q1048.85 27.692 1052.7 26.9223 Q1056.54 26.1121 1060.19 26.1121 Q1070.03 26.1121 1074.89 31.2163 Q1079.76 36.3204 1079.76 46.6907 Z" fill="#000000" fill-rule="nonzero" fill-opacity="1" /><path clip-path="url(#clip630)" d="M1095.11 9.54393 L1102.56 9.54393 L1102.56 72.576 L1095.11 72.576 L1095.11 9.54393 Z" fill="#000000" fill-rule="nonzero" fill-opacity="1" /><path clip-path="url(#clip630)" d="M1139.18 27.2059 L1147.08 27.2059 L1161.26 65.2844 L1175.44 27.2059 L1183.34 27.2059 L1166.32 72.576 L1156.2 72.576 L1139.18 27.2059 Z" fill="#000000" fill-rule="nonzero" fill-opacity="1" /><path clip-path="url(#clip630)" d="M1222.55 28.5427 L1222.55 35.5912 Q1219.39 33.9709 1215.99 33.1607 Q1212.58 32.3505 1208.94 32.3505 Q1203.39 32.3505 1200.59 34.0519 Q1197.84 35.7533 1197.84 39.156 Q1197.84 41.7486 1199.82 43.2475 Q1201.81 44.7058 1207.8 46.0426 L1210.36 46.6097 Q1218.3 48.3111 1221.62 51.4303 Q1224.98 54.509 1224.98 60.0587 Q1224.98 66.3781 1219.96 70.0644 Q1214.97 73.7508 1206.22 73.7508 Q1202.58 73.7508 1198.61 73.0216 Q1194.68 72.3329 1190.3 70.9151 L1190.3 63.2184 Q1194.44 65.3654 1198.45 66.4591 Q1202.46 67.5124 1206.39 67.5124 Q1211.65 67.5124 1214.49 65.73 Q1217.32 63.9071 1217.32 60.6258 Q1217.32 57.5877 1215.26 55.9673 Q1213.23 54.3469 1206.31 52.8481 L1203.71 52.2405 Q1196.79 50.7821 1193.71 47.7845 Q1190.63 44.7463 1190.63 39.4801 Q1190.63 33.0797 1195.17 29.5959 Q1199.7 26.1121 1208.05 26.1121 Q1212.18 26.1121 1215.83 26.7198 Q1219.47 27.3274 1222.55 28.5427 Z" fill="#000000" fill-rule="nonzero" fill-opacity="1" /><path clip-path="url(#clip630)" d="M1308.83 16.7545 L1308.83 25.383 Q1304.7 21.5346 1300 19.6307 Q1295.34 17.7268 1290.08 17.7268 Q1279.71 17.7268 1274.2 24.0867 Q1268.69 30.4061 1268.69 42.3968 Q1268.69 54.3469 1274.2 60.7069 Q1279.71 67.0263 1290.08 67.0263 Q1295.34 67.0263 1300 65.1223 Q1304.7 63.2184 1308.83 59.3701 L1308.83 67.9175 Q1304.54 70.8341 1299.72 72.2924 Q1294.94 73.7508 1289.59 73.7508 Q1275.86 73.7508 1267.96 65.3654 Q1260.06 56.9395 1260.06 42.3968 Q1260.06 27.8135 1267.96 19.4281 Q1275.86 11.0023 1289.59 11.0023 Q1295.02 11.0023 1299.8 12.4606 Q1304.62 13.8784 1308.83 16.7545 Z" fill="#000000" fill-rule="nonzero" fill-opacity="1" /><path clip-path="url(#clip630)" d="M1321.15 9.54393 L1328.6 9.54393 L1328.6 72.576 L1321.15 72.576 L1321.15 9.54393 Z" fill="#000000" fill-rule="nonzero" fill-opacity="1" /><path clip-path="url(#clip630)" d="M1364.82 49.7694 Q1355.78 49.7694 1352.3 51.8354 Q1348.82 53.9013 1348.82 58.8839 Q1348.82 62.8538 1351.41 65.2034 Q1354.04 67.5124 1358.54 67.5124 Q1364.74 67.5124 1368.46 63.1374 Q1372.23 58.7219 1372.23 51.4303 L1372.23 49.7694 L1364.82 49.7694 M1379.68 46.6907 L1379.68 72.576 L1372.23 72.576 L1372.23 65.6895 Q1369.68 69.8214 1365.87 71.8063 Q1362.06 73.7508 1356.55 73.7508 Q1349.59 73.7508 1345.45 69.8619 Q1341.36 65.9325 1341.36 59.3701 Q1341.36 51.7138 1346.47 47.825 Q1351.61 43.9361 1361.78 43.9361 L1372.23 43.9361 L1372.23 43.2069 Q1372.23 38.0623 1368.83 35.2672 Q1365.47 32.4315 1359.35 32.4315 Q1355.46 32.4315 1351.77 33.3632 Q1348.09 34.295 1344.68 36.1584 L1344.68 29.2718 Q1348.78 27.692 1352.62 26.9223 Q1356.47 26.1121 1360.12 26.1121 Q1369.96 26.1121 1374.82 31.2163 Q1379.68 36.3204 1379.68 46.6907 Z" fill="#000000" fill-rule="nonzero" fill-opacity="1" /><path clip-path="url(#clip630)" d="M1430.36 35.9153 Q1433.16 30.8922 1437.05 28.5022 Q1440.93 26.1121 1446.2 26.1121 Q1453.29 26.1121 1457.14 31.0947 Q1460.99 36.0368 1460.99 45.1919 L1460.99 72.576 L1453.49 72.576 L1453.49 45.4349 Q1453.49 38.913 1451.18 35.7533 Q1448.87 32.5936 1444.13 32.5936 Q1438.34 32.5936 1434.98 36.4419 Q1431.62 40.2903 1431.62 46.9338 L1431.62 72.576 L1424.12 72.576 L1424.12 45.4349 Q1424.12 38.8725 1421.81 35.7533 Q1419.5 32.5936 1414.68 32.5936 Q1408.97 32.5936 1405.61 36.4824 Q1402.25 40.3308 1402.25 46.9338 L1402.25 72.576 L1394.75 72.576 L1394.75 27.2059 L1402.25 27.2059 L1402.25 34.2544 Q1404.8 30.082 1408.36 28.0971 Q1411.93 26.1121 1416.83 26.1121 Q1421.77 26.1121 1425.22 28.6237 Q1428.7 31.1352 1430.36 35.9153 Z" fill="#000000" fill-rule="nonzero" fill-opacity="1" /><path clip-path="url(#clip630)" d="M1483.06 65.7705 L1483.06 89.8329 L1475.57 89.8329 L1475.57 27.2059 L1483.06 27.2059 L1483.06 34.0924 Q1485.41 30.0415 1488.98 28.0971 Q1492.58 26.1121 1497.57 26.1121 Q1505.83 26.1121 1510.97 32.6746 Q1516.16 39.2371 1516.16 49.9314 Q1516.16 60.6258 1510.97 67.1883 Q1505.83 73.7508 1497.57 73.7508 Q1492.58 73.7508 1488.98 71.8063 Q1485.41 69.8214 1483.06 65.7705 M1508.42 49.9314 Q1508.42 41.7081 1505.02 37.0496 Q1501.66 32.3505 1495.74 32.3505 Q1489.83 32.3505 1486.43 37.0496 Q1483.06 41.7081 1483.06 49.9314 Q1483.06 58.1548 1486.43 62.8538 Q1489.83 67.5124 1495.74 67.5124 Q1501.66 67.5124 1505.02 62.8538 Q1508.42 58.1548 1508.42 49.9314 Z" fill="#000000" fill-rule="nonzero" fill-opacity="1" /><path clip-path="url(#clip630)" d="M1567.32 48.0275 L1567.32 51.6733 L1533.05 51.6733 Q1533.54 59.3701 1537.67 63.421 Q1541.84 67.4314 1549.26 67.4314 Q1553.55 67.4314 1557.56 66.3781 Q1561.61 65.3249 1565.58 63.2184 L1565.58 70.267 Q1561.57 71.9684 1557.36 72.8596 Q1553.14 73.7508 1548.81 73.7508 Q1537.95 73.7508 1531.59 67.4314 Q1525.27 61.1119 1525.27 50.3365 Q1525.27 39.1965 1531.27 32.6746 Q1537.31 26.1121 1547.51 26.1121 Q1556.67 26.1121 1561.98 32.0264 Q1567.32 37.9003 1567.32 48.0275 M1559.87 45.84 Q1559.79 39.7232 1556.43 36.0774 Q1553.1 32.4315 1547.59 32.4315 Q1541.36 32.4315 1537.59 35.9558 Q1533.86 39.4801 1533.29 45.8805 L1559.87 45.84 Z" fill="#000000" fill-rule="nonzero" fill-opacity="1" /><path clip-path="url(#clip630)" d="M1609.41 34.0924 L1609.41 9.54393 L1616.86 9.54393 L1616.86 72.576 L1609.41 72.576 L1609.41 65.7705 Q1607.06 69.8214 1603.46 71.8063 Q1599.89 73.7508 1594.87 73.7508 Q1586.65 73.7508 1581.46 67.1883 Q1576.32 60.6258 1576.32 49.9314 Q1576.32 39.2371 1581.46 32.6746 Q1586.65 26.1121 1594.87 26.1121 Q1599.89 26.1121 1603.46 28.0971 Q1607.06 30.0415 1609.41 34.0924 M1584.01 49.9314 Q1584.01 58.1548 1587.37 62.8538 Q1590.78 67.5124 1596.69 67.5124 Q1602.61 67.5124 1606.01 62.8538 Q1609.41 58.1548 1609.41 49.9314 Q1609.41 41.7081 1606.01 37.0496 Q1602.61 32.3505 1596.69 32.3505 Q1590.78 32.3505 1587.37 37.0496 Q1584.01 41.7081 1584.01 49.9314 Z" fill="#000000" fill-rule="nonzero" fill-opacity="1" /><path clip-path="url(#clip630)" d="M1667.1 43.6931 L1667.1 65.8515 L1680.22 65.8515 Q1686.82 65.8515 1689.98 63.1374 Q1693.18 60.3828 1693.18 54.752 Q1693.18 49.0808 1689.98 46.4072 Q1686.82 43.6931 1680.22 43.6931 L1667.1 43.6931 M1667.1 18.8205 L1667.1 37.0496 L1679.21 37.0496 Q1685.2 37.0496 1688.12 34.8216 Q1691.08 32.5531 1691.08 27.935 Q1691.08 23.3575 1688.12 21.089 Q1685.2 18.8205 1679.21 18.8205 L1667.1 18.8205 M1658.91 12.096 L1679.82 12.096 Q1689.17 12.096 1694.24 15.9849 Q1699.3 19.8737 1699.3 27.0438 Q1699.3 32.5936 1696.71 35.8748 Q1694.12 39.156 1689.09 39.9662 Q1695.13 41.2625 1698.45 45.3944 Q1701.81 49.4858 1701.81 55.6432 Q1701.81 63.745 1696.3 68.1605 Q1690.79 72.576 1680.63 72.576 L1658.91 72.576 L1658.91 12.096 Z" fill="#000000" fill-rule="nonzero" fill-opacity="1" /><path clip-path="url(#clip630)" d="M1759.66 16.7545 L1759.66 25.383 Q1755.53 21.5346 1750.83 19.6307 Q1746.17 17.7268 1740.9 17.7268 Q1730.53 17.7268 1725.02 24.0867 Q1719.51 30.4061 1719.51 42.3968 Q1719.51 54.3469 1725.02 60.7069 Q1730.53 67.0263 1740.9 67.0263 Q1746.17 67.0263 1750.83 65.1223 Q1755.53 63.2184 1759.66 59.3701 L1759.66 67.9175 Q1755.37 70.8341 1750.54 72.2924 Q1745.76 73.7508 1740.42 73.7508 Q1726.68 73.7508 1718.79 65.3654 Q1710.89 56.9395 1710.89 42.3968 Q1710.89 27.8135 1718.79 19.4281 Q1726.68 11.0023 1740.42 11.0023 Q1745.85 11.0023 1750.63 12.4606 Q1755.45 13.8784 1759.66 16.7545 Z" fill="#000000" fill-rule="nonzero" fill-opacity="1" /><polyline clip-path="url(#clip631)" style="stroke:#009af9; stroke-linecap:round; stroke-linejoin:round; stroke-width:8; stroke-opacity:0.7; fill:none" points="279.759,1386.4 289.872,1349.37 299.986,1312.48 310.1,1275.84 320.213,1239.58 330.327,1203.83 340.441,1168.72 350.554,1134.37 360.668,1100.91 370.782,1068.46 380.895,1037.16 391.009,1007.14 401.123,978.509 411.236,951.406 421.35,925.956 431.464,902.287 441.577,880.525 451.691,860.798 461.805,843.233 471.918,827.956 482.032,815.096 492.146,804.779 502.259,797.132 512.373,792.283 522.487,790.359 532.6,791.486 542.714,795.694 552.828,802.742 562.941,812.341 573.055,824.205 583.169,838.044 593.282,853.572 603.396,870.5 613.51,888.541 623.623,907.407 633.737,926.81 643.851,946.463 653.964,966.078 664.078,985.366 674.192,1004.04 684.305,1021.81 694.419,1038.4 704.532,1053.5 714.646,1066.85 724.76,1078.13 734.873,1087.08 744.987,1093.4 755.101,1096.81 765.214,1097.01 775.328,1093.72 785.442,1086.65 795.555,1075.71 805.669,1061.19 815.783,1043.4 825.896,1022.69 836.01,999.381 846.124,973.794 856.237,946.261 866.351,917.109 876.465,886.667 886.578,855.263 896.692,823.224 906.806,790.877 916.919,758.552 927.033,726.575 937.147,695.275 947.26,664.979 957.374,636.016 967.488,608.712 977.601,583.397 987.715,560.397 997.829,540.041 1007.94,522.656 1018.06,508.571 1028.17,498.112 1038.28,491.603 1048.4,489.104 1058.51,490.315 1068.62,494.907 1078.74,502.554 1088.85,512.929 1098.97,525.702 1109.08,540.548 1119.19,557.138 1129.31,575.146 1139.42,594.243 1149.53,614.102 1159.65,634.395 1169.76,654.796 1179.87,674.976 1189.99,694.608 1200.1,713.365 1210.22,730.919 1220.33,746.943 1230.44,761.108 1240.56,773.089 1250.67,782.556 1260.78,789.183 1270.9,792.642 1281.01,792.605 1291.12,788.759 1301.24,781.081 1311.35,769.847 1321.47,755.34 1331.58,737.848 1341.69,717.657 1351.81,695.053 1361.92,670.321 1372.03,643.748 1382.15,615.62 1392.26,586.223 1402.38,555.843 1412.49,524.767 1422.6,493.279 1432.72,461.666 1442.83,430.215 1452.94,399.211 1463.06,368.941 1473.17,339.689 1483.28,311.744 1493.4,285.39 1503.51,260.914 1513.63,238.601 1523.74,218.738 1533.85,201.611 1543.97,187.49 1554.08,176.418 1564.19,168.28 1574.31,162.954 1584.42,160.319 1594.53,160.256 1604.65,162.644 1614.76,167.361 1624.88,174.287 1634.99,183.301 1645.1,194.283 1655.22,207.112 1665.33,221.668 1675.44,237.829 1685.56,255.476 1695.67,274.486 1705.78,294.741 1715.9,316.118 1726.01,338.498 1736.13,361.759 1746.24,385.782 1756.35,410.445 1766.47,435.627 1776.58,461.209 1786.69,487.069 1796.81,513.092 1806.92,539.217 1817.04,565.407 1827.15,591.628 1837.26,617.843 1847.38,644.017 1857.49,670.116 1867.6,696.102 1877.72,721.942 1887.83,747.6 1897.94,773.04 1908.06,798.226 1918.17,823.124 1928.29,847.698 1938.4,871.913 1948.51,895.733 1958.63,919.123 1968.74,942.047 1978.85,964.47 1988.97,986.356 1999.08,1007.67 2009.19,1028.38 2019.31,1048.44 2029.42,1067.83 2039.54,1086.5 2049.65,1104.43 2059.76,1121.64 2069.88,1138.15 2079.99,1153.99 2090.1,1169.19 2100.22,1183.8 2110.33,1197.82 2120.45,1211.3 2130.56,1224.26 2140.67,1236.74 2150.79,1248.77 2160.9,1260.37 2171.01,1271.58 2181.13,1282.43 2191.24,1292.94 2201.35,1303.15 2211.47,1313.08 2221.58,1322.78 2231.7,1332.26 2241.81,1341.56 2251.92,1350.71 2262.04,1359.74 2272.15,1368.67 2282.26,1377.55 2292.38,1386.4 "/>
<polyline clip-path="url(#clip631)" style="stroke:#e26f46; stroke-linecap:round; stroke-linejoin:round; stroke-width:8; stroke-opacity:1; fill:none" points="279.759,1386.4 289.872,1383.88 299.986,1376.6 310.1,1364.94 320.213,1349.29 330.327,1330.04 340.441,1307.58 350.554,1282.31 360.668,1254.61 370.782,1224.87 380.895,1193.48 391.009,1160.84 401.123,1127.33 411.236,1093.34 421.35,1059.26 431.464,1025.49 441.577,992.412 451.691,960.416 461.805,929.893 471.918,901.234 482.032,874.828 492.146,851.066 502.259,830.337 512.373,813.033 522.487,799.543 532.6,790.256 542.714,785.387 552.828,784.66 562.941,787.718 573.055,794.202 583.169,803.753 593.282,816.014 603.396,830.626 613.51,847.231 623.623,865.471 633.737,884.987 643.851,905.421 653.964,926.416 664.078,947.612 674.192,968.652 684.305,989.177 694.419,1008.83 704.532,1027.25 714.646,1044.08 724.76,1058.96 734.873,1071.54 744.987,1081.45 755.101,1088.35 765.214,1091.86 775.328,1091.63 785.442,1087.3 795.555,1078.75 805.669,1066.26 815.783,1050.19 825.896,1030.88 836.01,1008.67 846.124,983.925 856.237,956.977 866.351,928.179 876.465,897.875 886.578,866.414 896.692,834.141 906.806,801.404 916.919,768.549 927.033,735.923 937.147,703.874 947.26,672.747 957.374,642.89 967.488,614.649 977.601,588.371 987.715,564.403 997.829,543.093 1007.94,524.785 1018.06,509.828 1028.17,498.569 1038.28,491.347 1048.4,488.234 1058.51,488.924 1068.62,493.084 1078.74,500.381 1088.85,510.483 1098.97,523.056 1109.08,537.768 1119.19,554.286 1129.31,572.276 1139.42,591.407 1149.53,611.345 1159.65,631.757 1169.76,652.31 1179.87,672.673 1189.99,692.51 1200.1,711.491 1210.22,729.281 1220.33,745.548 1230.44,759.96 1240.56,772.183 1250.67,781.884 1260.78,788.73 1270.9,792.39 1281.01,792.529 1291.12,788.827 1301.24,781.264 1311.35,770.114 1321.47,755.666 1331.58,738.208 1341.69,718.03 1351.81,695.419 1361.92,670.665 1372.03,644.056 1382.15,615.881 1392.26,586.428 1402.38,555.987 1412.49,524.845 1422.6,493.291 1432.72,461.614 1442.83,430.102 1452.94,399.045 1463.06,368.73 1473.17,339.447 1483.28,311.483 1493.4,285.129 1503.51,260.671 1513.63,238.4 1523.74,218.603 1533.85,201.569 1543.97,187.57 1554.08,176.649 1564.19,168.683 1574.31,163.549 1584.42,161.119 1594.53,161.268 1604.65,163.872 1614.76,168.803 1624.88,175.938 1634.99,185.149 1645.1,196.313 1655.22,209.302 1665.33,223.992 1675.44,240.257 1685.56,257.972 1695.67,277.01 1705.78,297.247 1715.9,318.557 1726.01,340.814 1736.13,363.893 1746.24,387.668 1756.35,412.014 1766.47,436.805 1776.58,461.916 1786.69,487.221 1796.81,512.602 1806.92,538.007 1817.04,563.416 1827.15,588.812 1837.26,614.176 1847.38,639.489 1857.49,664.733 1867.6,689.889 1877.72,714.939 1887.83,739.864 1897.94,764.646 1908.06,789.267 1918.17,813.707 1928.29,837.949 1938.4,861.974 1948.51,885.763 1958.63,909.298 1968.74,932.56 1978.85,955.531 1988.97,978.193 1999.08,1000.53 2009.19,1022.51 2019.31,1044.14 2029.42,1065.37 2039.54,1086.21 2049.65,1106.62 2059.76,1126.59 2069.88,1146.07 2079.99,1165.03 2090.1,1183.44 2100.22,1201.27 2110.33,1218.49 2120.45,1235.06 2130.56,1250.96 2140.67,1266.14 2150.79,1280.58 2160.9,1294.24 2171.01,1307.09 2181.13,1319.1 2191.24,1330.24 2201.35,1340.47 2211.47,1349.76 2221.58,1358.08 2231.7,1365.4 2241.81,1371.68 2251.92,1376.89 2262.04,1381 2272.15,1383.98 2282.26,1385.79 2292.38,1386.4 "/>
<circle clip-path="url(#clip631)" cx="279.759" cy="1386.4" r="18" fill="#3da44d" fill-rule="evenodd" fill-opacity="1" stroke="#000000" stroke-opacity="1" stroke-width="3.2"/>
<circle clip-path="url(#clip631)" cx="531.336" cy="791.174" r="18" fill="#3da44d" fill-rule="evenodd" fill-opacity="1" stroke="#000000" stroke-opacity="1" stroke-width="3.2"/>
<circle clip-path="url(#clip631)" cx="782.913" cy="1088.78" r="18" fill="#3da44d" fill-rule="evenodd" fill-opacity="1" stroke="#000000" stroke-opacity="1" stroke-width="3.2"/>
<circle clip-path="url(#clip631)" cx="1034.49" cy="493.563" r="18" fill="#3da44d" fill-rule="evenodd" fill-opacity="1" stroke="#000000" stroke-opacity="1" stroke-width="3.2"/>
<circle clip-path="url(#clip631)" cx="1286.07" cy="791.174" r="18" fill="#3da44d" fill-rule="evenodd" fill-opacity="1" stroke="#000000" stroke-opacity="1" stroke-width="3.2"/>
<circle clip-path="url(#clip631)" cx="1537.65" cy="195.952" r="18" fill="#3da44d" fill-rule="evenodd" fill-opacity="1" stroke="#000000" stroke-opacity="1" stroke-width="3.2"/>
<circle clip-path="url(#clip631)" cx="1789.22" cy="493.563" r="18" fill="#3da44d" fill-rule="evenodd" fill-opacity="1" stroke="#000000" stroke-opacity="1" stroke-width="3.2"/>
<circle clip-path="url(#clip631)" cx="2040.8" cy="1088.78" r="18" fill="#3da44d" fill-rule="evenodd" fill-opacity="1" stroke="#000000" stroke-opacity="1" stroke-width="3.2"/>
<circle clip-path="url(#clip631)" cx="2292.38" cy="1386.4" r="18" fill="#3da44d" fill-rule="evenodd" fill-opacity="1" stroke="#000000" stroke-opacity="1" stroke-width="3.2"/>
<path clip-path="url(#clip630)" d="M1797.89 374.156 L2281.64 374.156 L2281.64 166.796 L1797.89 166.796  Z" fill="#ffffff" fill-rule="evenodd" fill-opacity="1"/>
<polyline clip-path="url(#clip630)" style="stroke:#000000; stroke-linecap:round; stroke-linejoin:round; stroke-width:4; stroke-opacity:1; fill:none" points="1797.89,374.156 2281.64,374.156 2281.64,166.796 1797.89,166.796 1797.89,374.156 "/>
<polyline clip-path="url(#clip630)" style="stroke:#009af9; stroke-linecap:round; stroke-linejoin:round; stroke-width:8; stroke-opacity:0.7; fill:none" points="1821.59,218.636 1963.82,218.636 "/>
<path clip-path="url(#clip630)" d="M1987.52 201.356 L1993.82 201.356 L2009.14 230.268 L2009.14 201.356 L2013.68 201.356 L2013.68 235.916 L2007.38 235.916 L1992.06 207.004 L1992.06 235.916 L1987.52 235.916 L1987.52 201.356 Z" fill="#000000" fill-rule="nonzero" fill-opacity="1" /><path clip-path="url(#clip630)" d="M2034.58 222.883 Q2029.42 222.883 2027.43 224.064 Q2025.44 225.244 2025.44 228.092 Q2025.44 230.36 2026.92 231.703 Q2028.43 233.022 2031 233.022 Q2034.54 233.022 2036.67 230.522 Q2038.82 227.999 2038.82 223.832 L2038.82 222.883 L2034.58 222.883 M2043.08 221.124 L2043.08 235.916 L2038.82 235.916 L2038.82 231.981 Q2037.36 234.342 2035.19 235.476 Q2033.01 236.587 2029.86 236.587 Q2025.88 236.587 2023.52 234.365 Q2021.18 232.119 2021.18 228.369 Q2021.18 223.994 2024.1 221.772 Q2027.04 219.55 2032.85 219.55 L2038.82 219.55 L2038.82 219.133 Q2038.82 216.194 2036.88 214.596 Q2034.95 212.976 2031.46 212.976 Q2029.24 212.976 2027.13 213.508 Q2025.02 214.041 2023.08 215.106 L2023.08 211.17 Q2025.42 210.268 2027.62 209.828 Q2029.82 209.365 2031.9 209.365 Q2037.52 209.365 2040.3 212.282 Q2043.08 215.198 2043.08 221.124 Z" fill="#000000" fill-rule="nonzero" fill-opacity="1" /><path clip-path="url(#clip630)" d="M2056.07 202.629 L2056.07 209.99 L2064.84 209.99 L2064.84 213.3 L2056.07 213.3 L2056.07 227.374 Q2056.07 230.545 2056.92 231.448 Q2057.8 232.351 2060.46 232.351 L2064.84 232.351 L2064.84 235.916 L2060.46 235.916 Q2055.53 235.916 2053.66 234.087 Q2051.78 232.235 2051.78 227.374 L2051.78 213.3 L2048.66 213.3 L2048.66 209.99 L2051.78 209.99 L2051.78 202.629 L2056.07 202.629 Z" fill="#000000" fill-rule="nonzero" fill-opacity="1" /><path clip-path="url(#clip630)" d="M2070 225.684 L2070 209.99 L2074.26 209.99 L2074.26 225.522 Q2074.26 229.203 2075.69 231.055 Q2077.13 232.883 2080 232.883 Q2083.45 232.883 2085.44 230.684 Q2087.45 228.485 2087.45 224.689 L2087.45 209.99 L2091.71 209.99 L2091.71 235.916 L2087.45 235.916 L2087.45 231.934 Q2085.9 234.295 2083.84 235.453 Q2081.81 236.587 2079.1 236.587 Q2074.63 236.587 2072.32 233.809 Q2070 231.031 2070 225.684 M2080.72 209.365 L2080.72 209.365 Z" fill="#000000" fill-rule="nonzero" fill-opacity="1" /><path clip-path="url(#clip630)" d="M2115.51 213.971 Q2114.79 213.555 2113.94 213.37 Q2113.1 213.161 2112.08 213.161 Q2108.47 213.161 2106.53 215.522 Q2104.61 217.86 2104.61 222.258 L2104.61 235.916 L2100.32 235.916 L2100.32 209.99 L2104.61 209.99 L2104.61 214.018 Q2105.95 211.657 2108.1 210.522 Q2110.25 209.365 2113.33 209.365 Q2113.77 209.365 2114.31 209.434 Q2114.84 209.481 2115.49 209.596 L2115.51 213.971 Z" fill="#000000" fill-rule="nonzero" fill-opacity="1" /><path clip-path="url(#clip630)" d="M2131.76 222.883 Q2126.6 222.883 2124.61 224.064 Q2122.62 225.244 2122.62 228.092 Q2122.62 230.36 2124.1 231.703 Q2125.6 233.022 2128.17 233.022 Q2131.71 233.022 2133.84 230.522 Q2136 227.999 2136 223.832 L2136 222.883 L2131.76 222.883 M2140.25 221.124 L2140.25 235.916 L2136 235.916 L2136 231.981 Q2134.54 234.342 2132.36 235.476 Q2130.19 236.587 2127.04 236.587 Q2123.06 236.587 2120.69 234.365 Q2118.36 232.119 2118.36 228.369 Q2118.36 223.994 2121.27 221.772 Q2124.21 219.55 2130.02 219.55 L2136 219.55 L2136 219.133 Q2136 216.194 2134.05 214.596 Q2132.13 212.976 2128.63 212.976 Q2126.41 212.976 2124.31 213.508 Q2122.2 214.041 2120.25 215.106 L2120.25 211.17 Q2122.59 210.268 2124.79 209.828 Q2126.99 209.365 2129.07 209.365 Q2134.7 209.365 2137.48 212.282 Q2140.25 215.198 2140.25 221.124 Z" fill="#000000" fill-rule="nonzero" fill-opacity="1" /><path clip-path="url(#clip630)" d="M2149.03 199.897 L2153.29 199.897 L2153.29 235.916 L2149.03 235.916 L2149.03 199.897 Z" fill="#000000" fill-rule="nonzero" fill-opacity="1" /><path clip-path="url(#clip630)" d="M2167.06 219.411 L2167.06 232.073 L2174.56 232.073 Q2178.33 232.073 2180.14 230.522 Q2181.97 228.948 2181.97 225.731 Q2181.97 222.49 2180.14 220.962 Q2178.33 219.411 2174.56 219.411 L2167.06 219.411 M2167.06 205.198 L2167.06 215.615 L2173.98 215.615 Q2177.41 215.615 2179.07 214.342 Q2180.76 213.045 2180.76 210.407 Q2180.76 207.791 2179.07 206.495 Q2177.41 205.198 2173.98 205.198 L2167.06 205.198 M2162.38 201.356 L2174.33 201.356 Q2179.68 201.356 2182.57 203.578 Q2185.46 205.8 2185.46 209.897 Q2185.46 213.069 2183.98 214.944 Q2182.5 216.819 2179.63 217.282 Q2183.08 218.022 2184.98 220.383 Q2186.9 222.721 2186.9 226.24 Q2186.9 230.869 2183.75 233.393 Q2180.6 235.916 2174.79 235.916 L2162.38 235.916 L2162.38 201.356 Z" fill="#000000" fill-rule="nonzero" fill-opacity="1" /><path clip-path="url(#clip630)" d="M2219.95 204.018 L2219.95 208.948 Q2217.59 206.749 2214.91 205.661 Q2212.25 204.573 2209.24 204.573 Q2203.31 204.573 2200.16 208.208 Q2197.01 211.819 2197.01 218.67 Q2197.01 225.499 2200.16 229.133 Q2203.31 232.744 2209.24 232.744 Q2212.25 232.744 2214.91 231.656 Q2217.59 230.569 2219.95 228.369 L2219.95 233.254 Q2217.5 234.92 2214.74 235.754 Q2212.01 236.587 2208.96 236.587 Q2201.11 236.587 2196.6 231.795 Q2192.08 226.981 2192.08 218.67 Q2192.08 210.337 2196.6 205.546 Q2201.11 200.731 2208.96 200.731 Q2212.06 200.731 2214.79 201.564 Q2217.55 202.374 2219.95 204.018 Z" fill="#000000" fill-rule="nonzero" fill-opacity="1" /><polyline clip-path="url(#clip630)" style="stroke:#e26f46; stroke-linecap:round; stroke-linejoin:round; stroke-width:8; stroke-opacity:1; fill:none" points="1821.59,270.476 1963.82,270.476 "/>
<path clip-path="url(#clip630)" d="M2015.39 255.858 L2015.39 260.788 Q2013.03 258.589 2010.35 257.501 Q2007.69 256.413 2004.68 256.413 Q1998.75 256.413 1995.6 260.048 Q1992.45 263.659 1992.45 270.51 Q1992.45 277.339 1995.6 280.973 Q1998.75 284.584 2004.68 284.584 Q2007.69 284.584 2010.35 283.496 Q2013.03 282.409 2015.39 280.209 L2015.39 285.094 Q2012.94 286.76 2010.19 287.594 Q2007.45 288.427 2004.4 288.427 Q1996.55 288.427 1992.04 283.635 Q1987.52 278.821 1987.52 270.51 Q1987.52 262.177 1992.04 257.386 Q1996.55 252.571 2004.4 252.571 Q2007.5 252.571 2010.23 253.404 Q2012.99 254.214 2015.39 255.858 Z" fill="#000000" fill-rule="nonzero" fill-opacity="1" /><path clip-path="url(#clip630)" d="M2022.43 251.737 L2026.69 251.737 L2026.69 287.756 L2022.43 287.756 L2022.43 251.737 Z" fill="#000000" fill-rule="nonzero" fill-opacity="1" /><path clip-path="url(#clip630)" d="M2047.38 274.723 Q2042.22 274.723 2040.23 275.904 Q2038.24 277.084 2038.24 279.932 Q2038.24 282.2 2039.72 283.543 Q2041.23 284.862 2043.8 284.862 Q2047.34 284.862 2049.47 282.362 Q2051.62 279.839 2051.62 275.672 L2051.62 274.723 L2047.38 274.723 M2055.88 272.964 L2055.88 287.756 L2051.62 287.756 L2051.62 283.821 Q2050.16 286.182 2047.99 287.316 Q2045.81 288.427 2042.66 288.427 Q2038.68 288.427 2036.32 286.205 Q2033.98 283.959 2033.98 280.209 Q2033.98 275.834 2036.9 273.612 Q2039.84 271.39 2045.65 271.39 L2051.62 271.39 L2051.62 270.973 Q2051.62 268.034 2049.68 266.436 Q2047.76 264.816 2044.26 264.816 Q2042.04 264.816 2039.93 265.348 Q2037.82 265.881 2035.88 266.946 L2035.88 263.01 Q2038.22 262.108 2040.42 261.668 Q2042.62 261.205 2044.7 261.205 Q2050.32 261.205 2053.1 264.122 Q2055.88 267.038 2055.88 272.964 Z" fill="#000000" fill-rule="nonzero" fill-opacity="1" /><path clip-path="url(#clip630)" d="M2084.84 266.807 Q2086.44 263.936 2088.66 262.571 Q2090.88 261.205 2093.89 261.205 Q2097.94 261.205 2100.14 264.052 Q2102.34 266.876 2102.34 272.108 L2102.34 287.756 L2098.06 287.756 L2098.06 272.247 Q2098.06 268.52 2096.74 266.714 Q2095.42 264.909 2092.71 264.909 Q2089.4 264.909 2087.48 267.108 Q2085.56 269.307 2085.56 273.103 L2085.56 287.756 L2081.27 287.756 L2081.27 272.247 Q2081.27 268.497 2079.95 266.714 Q2078.63 264.909 2075.88 264.909 Q2072.62 264.909 2070.69 267.131 Q2068.77 269.33 2068.77 273.103 L2068.77 287.756 L2064.49 287.756 L2064.49 261.83 L2068.77 261.83 L2068.77 265.858 Q2070.23 263.473 2072.27 262.339 Q2074.31 261.205 2077.11 261.205 Q2079.93 261.205 2081.9 262.64 Q2083.89 264.075 2084.84 266.807 Z" fill="#000000" fill-rule="nonzero" fill-opacity="1" /><path clip-path="url(#clip630)" d="M2114.95 283.867 L2114.95 297.617 L2110.67 297.617 L2110.67 261.83 L2114.95 261.83 L2114.95 265.765 Q2116.3 263.45 2118.33 262.339 Q2120.39 261.205 2123.24 261.205 Q2127.96 261.205 2130.9 264.955 Q2133.87 268.705 2133.87 274.816 Q2133.87 280.927 2130.9 284.677 Q2127.96 288.427 2123.24 288.427 Q2120.39 288.427 2118.33 287.316 Q2116.3 286.182 2114.95 283.867 M2129.44 274.816 Q2129.44 270.117 2127.5 267.455 Q2125.58 264.77 2122.2 264.77 Q2118.82 264.77 2116.88 267.455 Q2114.95 270.117 2114.95 274.816 Q2114.95 279.515 2116.88 282.2 Q2118.82 284.862 2122.2 284.862 Q2125.58 284.862 2127.5 282.2 Q2129.44 279.515 2129.44 274.816 Z" fill="#000000" fill-rule="nonzero" fill-opacity="1" /><path clip-path="url(#clip630)" d="M2163.1 273.728 L2163.1 275.811 L2143.52 275.811 Q2143.8 280.209 2146.16 282.524 Q2148.54 284.816 2152.78 284.816 Q2155.23 284.816 2157.52 284.214 Q2159.84 283.612 2162.11 282.409 L2162.11 286.436 Q2159.81 287.408 2157.41 287.918 Q2155 288.427 2152.52 288.427 Q2146.32 288.427 2142.69 284.816 Q2139.07 281.205 2139.07 275.047 Q2139.07 268.682 2142.5 264.955 Q2145.95 261.205 2151.78 261.205 Q2157.01 261.205 2160.05 264.585 Q2163.1 267.941 2163.1 273.728 M2158.84 272.478 Q2158.8 268.983 2156.87 266.899 Q2154.98 264.816 2151.83 264.816 Q2148.26 264.816 2146.11 266.83 Q2143.98 268.844 2143.66 272.501 L2158.84 272.478 Z" fill="#000000" fill-rule="nonzero" fill-opacity="1" /><path clip-path="url(#clip630)" d="M2187.15 265.765 L2187.15 251.737 L2191.41 251.737 L2191.41 287.756 L2187.15 287.756 L2187.15 283.867 Q2185.81 286.182 2183.75 287.316 Q2181.71 288.427 2178.84 288.427 Q2174.14 288.427 2171.18 284.677 Q2168.24 280.927 2168.24 274.816 Q2168.24 268.705 2171.18 264.955 Q2174.14 261.205 2178.84 261.205 Q2181.71 261.205 2183.75 262.339 Q2185.81 263.45 2187.15 265.765 M2172.64 274.816 Q2172.64 279.515 2174.56 282.2 Q2176.5 284.862 2179.88 284.862 Q2183.26 284.862 2185.21 282.2 Q2187.15 279.515 2187.15 274.816 Q2187.15 270.117 2185.21 267.455 Q2183.26 264.77 2179.88 264.77 Q2176.5 264.77 2174.56 267.455 Q2172.64 270.117 2172.64 274.816 Z" fill="#000000" fill-rule="nonzero" fill-opacity="1" /><path clip-path="url(#clip630)" d="M2205.05 271.251 L2205.05 283.913 L2212.55 283.913 Q2216.32 283.913 2218.12 282.362 Q2219.95 280.788 2219.95 277.571 Q2219.95 274.33 2218.12 272.802 Q2216.32 271.251 2212.55 271.251 L2205.05 271.251 M2205.05 257.038 L2205.05 267.455 L2211.97 267.455 Q2215.39 267.455 2217.06 266.182 Q2218.75 264.885 2218.75 262.247 Q2218.75 259.631 2217.06 258.335 Q2215.39 257.038 2211.97 257.038 L2205.05 257.038 M2200.37 253.196 L2212.31 253.196 Q2217.66 253.196 2220.56 255.418 Q2223.45 257.64 2223.45 261.737 Q2223.45 264.909 2221.97 266.784 Q2220.49 268.659 2217.62 269.122 Q2221.06 269.862 2222.96 272.223 Q2224.88 274.561 2224.88 278.08 Q2224.88 282.709 2221.74 285.233 Q2218.59 287.756 2212.78 287.756 L2200.37 287.756 L2200.37 253.196 Z" fill="#000000" fill-rule="nonzero" fill-opacity="1" /><path clip-path="url(#clip630)" d="M2257.94 255.858 L2257.94 260.788 Q2255.58 258.589 2252.89 257.501 Q2250.23 256.413 2247.22 256.413 Q2241.3 256.413 2238.15 260.048 Q2235 263.659 2235 270.51 Q2235 277.339 2238.15 280.973 Q2241.3 284.584 2247.22 284.584 Q2250.23 284.584 2252.89 283.496 Q2255.58 282.409 2257.94 280.209 L2257.94 285.094 Q2255.49 286.76 2252.73 287.594 Q2250 288.427 2246.94 288.427 Q2239.1 288.427 2234.58 283.635 Q2230.07 278.821 2230.07 270.51 Q2230.07 262.177 2234.58 257.386 Q2239.1 252.571 2246.94 252.571 Q2250.05 252.571 2252.78 253.404 Q2255.53 254.214 2257.94 255.858 Z" fill="#000000" fill-rule="nonzero" fill-opacity="1" /><circle clip-path="url(#clip630)" cx="1892.71" cy="322.316" r="20.9455" fill="#3da44d" fill-rule="evenodd" fill-opacity="1" stroke="#000000" stroke-opacity="1" stroke-width="3.72364"/>
<path clip-path="url(#clip630)" d="M1992.2 308.878 L1992.2 335.753 L1997.85 335.753 Q2005 335.753 2008.31 332.512 Q2011.64 329.272 2011.64 322.281 Q2011.64 315.337 2008.31 312.119 Q2005 308.878 1997.85 308.878 L1992.2 308.878 M1987.52 305.036 L1997.13 305.036 Q2007.18 305.036 2011.88 309.226 Q2016.57 313.392 2016.57 322.281 Q2016.57 331.216 2011.85 335.406 Q2007.13 339.596 1997.13 339.596 L1987.52 339.596 L1987.52 305.036 Z" fill="#000000" fill-rule="nonzero" fill-opacity="1" /><path clip-path="url(#clip630)" d="M2035.63 326.563 Q2030.46 326.563 2028.47 327.744 Q2026.48 328.924 2026.48 331.772 Q2026.48 334.04 2027.96 335.383 Q2029.47 336.702 2032.04 336.702 Q2035.58 336.702 2037.71 334.202 Q2039.86 331.679 2039.86 327.512 L2039.86 326.563 L2035.63 326.563 M2044.12 324.804 L2044.12 339.596 L2039.86 339.596 L2039.86 335.661 Q2038.4 338.022 2036.23 339.156 Q2034.05 340.267 2030.9 340.267 Q2026.92 340.267 2024.56 338.045 Q2022.22 335.799 2022.22 332.049 Q2022.22 327.674 2025.14 325.452 Q2028.08 323.23 2033.89 323.23 L2039.86 323.23 L2039.86 322.813 Q2039.86 319.874 2037.92 318.276 Q2036 316.656 2032.5 316.656 Q2030.28 316.656 2028.17 317.188 Q2026.07 317.721 2024.12 318.786 L2024.12 314.85 Q2026.46 313.948 2028.66 313.508 Q2030.86 313.045 2032.94 313.045 Q2038.57 313.045 2041.34 315.962 Q2044.12 318.878 2044.12 324.804 Z" fill="#000000" fill-rule="nonzero" fill-opacity="1" /><path clip-path="url(#clip630)" d="M2057.11 306.309 L2057.11 313.67 L2065.88 313.67 L2065.88 316.98 L2057.11 316.98 L2057.11 331.054 Q2057.11 334.225 2057.96 335.128 Q2058.84 336.031 2061.51 336.031 L2065.88 336.031 L2065.88 339.596 L2061.51 339.596 Q2056.57 339.596 2054.7 337.767 Q2052.82 335.915 2052.82 331.054 L2052.82 316.98 L2049.7 316.98 L2049.7 313.67 L2052.82 313.67 L2052.82 306.309 L2057.11 306.309 Z" fill="#000000" fill-rule="nonzero" fill-opacity="1" /><path clip-path="url(#clip630)" d="M2083.26 326.563 Q2078.1 326.563 2076.11 327.744 Q2074.12 328.924 2074.12 331.772 Q2074.12 334.04 2075.6 335.383 Q2077.11 336.702 2079.68 336.702 Q2083.22 336.702 2085.35 334.202 Q2087.5 331.679 2087.5 327.512 L2087.5 326.563 L2083.26 326.563 M2091.76 324.804 L2091.76 339.596 L2087.5 339.596 L2087.5 335.661 Q2086.04 338.022 2083.87 339.156 Q2081.69 340.267 2078.54 340.267 Q2074.56 340.267 2072.2 338.045 Q2069.86 335.799 2069.86 332.049 Q2069.86 327.674 2072.78 325.452 Q2075.72 323.23 2081.53 323.23 L2087.5 323.23 L2087.5 322.813 Q2087.5 319.874 2085.56 318.276 Q2083.63 316.656 2080.14 316.656 Q2077.92 316.656 2075.81 317.188 Q2073.7 317.721 2071.76 318.786 L2071.76 314.85 Q2074.1 313.948 2076.3 313.508 Q2078.5 313.045 2080.58 313.045 Q2086.2 313.045 2088.98 315.962 Q2091.76 318.878 2091.76 324.804 Z" fill="#000000" fill-rule="nonzero" fill-opacity="1" /><path clip-path="url(#clip630)" d="M2119.72 335.707 L2119.72 349.457 L2115.44 349.457 L2115.44 313.67 L2119.72 313.67 L2119.72 317.605 Q2121.06 315.29 2123.1 314.179 Q2125.16 313.045 2128.01 313.045 Q2132.73 313.045 2135.67 316.795 Q2138.63 320.545 2138.63 326.656 Q2138.63 332.767 2135.67 336.517 Q2132.73 340.267 2128.01 340.267 Q2125.16 340.267 2123.1 339.156 Q2121.06 338.022 2119.72 335.707 M2134.21 326.656 Q2134.21 321.957 2132.27 319.295 Q2130.35 316.61 2126.97 316.61 Q2123.59 316.61 2121.64 319.295 Q2119.72 321.957 2119.72 326.656 Q2119.72 331.355 2121.64 334.04 Q2123.59 336.702 2126.97 336.702 Q2130.35 336.702 2132.27 334.04 Q2134.21 331.355 2134.21 326.656 Z" fill="#000000" fill-rule="nonzero" fill-opacity="1" /><path clip-path="url(#clip630)" d="M2155.74 316.656 Q2152.31 316.656 2150.32 319.341 Q2148.33 322.003 2148.33 326.656 Q2148.33 331.309 2150.3 333.994 Q2152.29 336.656 2155.74 336.656 Q2159.14 336.656 2161.13 333.971 Q2163.12 331.286 2163.12 326.656 Q2163.12 322.05 2161.13 319.364 Q2159.14 316.656 2155.74 316.656 M2155.74 313.045 Q2161.3 313.045 2164.47 316.656 Q2167.64 320.267 2167.64 326.656 Q2167.64 333.022 2164.47 336.656 Q2161.3 340.267 2155.74 340.267 Q2150.16 340.267 2146.99 336.656 Q2143.84 333.022 2143.84 326.656 Q2143.84 320.267 2146.99 316.656 Q2150.16 313.045 2155.74 313.045 Z" fill="#000000" fill-rule="nonzero" fill-opacity="1" /><path clip-path="url(#clip630)" d="M2174.7 313.67 L2178.96 313.67 L2178.96 339.596 L2174.7 339.596 L2174.7 313.67 M2174.7 303.577 L2178.96 303.577 L2178.96 308.971 L2174.7 308.971 L2174.7 303.577 Z" fill="#000000" fill-rule="nonzero" fill-opacity="1" /><path clip-path="url(#clip630)" d="M2209.42 323.948 L2209.42 339.596 L2205.16 339.596 L2205.16 324.087 Q2205.16 320.406 2203.73 318.577 Q2202.29 316.749 2199.42 316.749 Q2195.97 316.749 2193.98 318.948 Q2191.99 321.147 2191.99 324.943 L2191.99 339.596 L2187.71 339.596 L2187.71 313.67 L2191.99 313.67 L2191.99 317.698 Q2193.52 315.36 2195.58 314.202 Q2197.66 313.045 2200.37 313.045 Q2204.84 313.045 2207.13 315.823 Q2209.42 318.577 2209.42 323.948 Z" fill="#000000" fill-rule="nonzero" fill-opacity="1" /><path clip-path="url(#clip630)" d="M2222.13 306.309 L2222.13 313.67 L2230.9 313.67 L2230.9 316.98 L2222.13 316.98 L2222.13 331.054 Q2222.13 334.225 2222.99 335.128 Q2223.87 336.031 2226.53 336.031 L2230.9 336.031 L2230.9 339.596 L2226.53 339.596 Q2221.6 339.596 2219.72 337.767 Q2217.85 335.915 2217.85 331.054 L2217.85 316.98 L2214.72 316.98 L2214.72 313.67 L2217.85 313.67 L2217.85 306.309 L2222.13 306.309 Z" fill="#000000" fill-rule="nonzero" fill-opacity="1" /><path clip-path="url(#clip630)" d="M2253.03 314.434 L2253.03 318.462 Q2251.23 317.536 2249.28 317.073 Q2247.34 316.61 2245.25 316.61 Q2242.08 316.61 2240.49 317.582 Q2238.91 318.554 2238.91 320.499 Q2238.91 321.98 2240.05 322.837 Q2241.18 323.67 2244.61 324.434 L2246.06 324.758 Q2250.6 325.73 2252.5 327.512 Q2254.42 329.272 2254.42 332.443 Q2254.42 336.054 2251.55 338.161 Q2248.7 340.267 2243.7 340.267 Q2241.62 340.267 2239.35 339.85 Q2237.11 339.457 2234.61 338.647 L2234.61 334.249 Q2236.97 335.475 2239.26 336.1 Q2241.55 336.702 2243.8 336.702 Q2246.81 336.702 2248.43 335.684 Q2250.05 334.642 2250.05 332.767 Q2250.05 331.031 2248.87 330.105 Q2247.71 329.179 2243.75 328.323 L2242.27 327.975 Q2238.31 327.142 2236.55 325.429 Q2234.79 323.693 2234.79 320.684 Q2234.79 317.026 2237.38 315.036 Q2239.98 313.045 2244.74 313.045 Q2247.11 313.045 2249.19 313.392 Q2251.27 313.739 2253.03 314.434 Z" fill="#000000" fill-rule="nonzero" fill-opacity="1" /></svg>
