<?xml version="1.0" encoding="utf-8"?>
<svg xmlns="http://www.w3.org/2000/svg" xmlns:xlink="http://www.w3.org/1999/xlink" width="800" height="350" viewBox="0 0 3200 1400">
<defs>
  <clipPath id="clip000">
    <rect x="0" y="0" width="3200" height="1400"/>
  </clipPath>
</defs>
<path clip-path="url(#clip000)" d="M0 1400 L3200 1400 L3200 0 L0 0  Z" fill="#ffffff" fill-rule="evenodd" fill-opacity="1"/>
<defs>
  <clipPath id="clip001">
    <rect x="1801" y="102" width="1352" height="1199"/>
  </clipPath>
</defs>
<path clip-path="url(#clip000)" d="M201.936 1300.33 L1552.76 1300.33 L1552.76 102.682 L201.936 102.682  Z" fill="#ffffff" fill-rule="evenodd" fill-opacity="1"/>
<defs>
  <clipPath id="clip002">
    <rect x="201" y="102" width="1352" height="1199"/>
  </clipPath>
</defs>
<polyline clip-path="url(#clip002)" style="stroke:#000000; stroke-linecap:round; stroke-linejoin:round; stroke-width:2; stroke-opacity:0.1; fill:none" points="240.167,1300.33 240.167,102.682 "/>
<polyline clip-path="url(#clip002)" style="stroke:#000000; stroke-linecap:round; stroke-linejoin:round; stroke-width:2; stroke-opacity:0.1; fill:none" points="442.987,1300.33 442.987,102.682 "/>
<polyline clip-path="url(#clip002)" style="stroke:#000000; stroke-linecap:round; stroke-linejoin:round; stroke-width:2; stroke-opacity:0.1; fill:none" points="645.808,1300.33 645.808,102.682 "/>
<polyline clip-path="url(#clip002)" style="stroke:#000000; stroke-linecap:round; stroke-linejoin:round; stroke-width:2; stroke-opacity:0.1; fill:none" points="848.628,1300.33 848.628,102.682 "/>
<polyline clip-path="url(#clip002)" style="stroke:#000000; stroke-linecap:round; stroke-linejoin:round; stroke-width:2; stroke-opacity:0.1; fill:none" points="1051.45,1300.33 1051.45,102.682 "/>
<polyline clip-path="url(#clip002)" style="stroke:#000000; stroke-linecap:round; stroke-linejoin:round; stroke-width:2; stroke-opacity:0.1; fill:none" points="1254.27,1300.33 1254.27,102.682 "/>
<polyline clip-path="url(#clip002)" style="stroke:#000000; stroke-linecap:round; stroke-linejoin:round; stroke-width:2; stroke-opacity:0.1; fill:none" points="1457.09,1300.33 1457.09,102.682 "/>
<polyline clip-path="url(#clip002)" style="stroke:#000000; stroke-linecap:round; stroke-linejoin:round; stroke-width:2; stroke-opacity:0.1; fill:none" points="201.936,1263.1 1552.76,1263.1 "/>
<polyline clip-path="url(#clip002)" style="stroke:#000000; stroke-linecap:round; stroke-linejoin:round; stroke-width:2; stroke-opacity:0.1; fill:none" points="201.936,982.302 1552.76,982.302 "/>
<polyline clip-path="url(#clip002)" style="stroke:#000000; stroke-linecap:round; stroke-linejoin:round; stroke-width:2; stroke-opacity:0.1; fill:none" points="201.936,701.505 1552.76,701.505 "/>
<polyline clip-path="url(#clip002)" style="stroke:#000000; stroke-linecap:round; stroke-linejoin:round; stroke-width:2; stroke-opacity:0.1; fill:none" points="201.936,420.708 1552.76,420.708 "/>
<polyline clip-path="url(#clip002)" style="stroke:#000000; stroke-linecap:round; stroke-linejoin:round; stroke-width:2; stroke-opacity:0.1; fill:none" points="201.936,139.911 1552.76,139.911 "/>
<polyline clip-path="url(#clip000)" style="stroke:#000000; stroke-linecap:round; stroke-linejoin:round; stroke-width:4; stroke-opacity:1; fill:none" points="201.936,1300.33 1552.76,1300.33 "/>
<polyline clip-path="url(#clip000)" style="stroke:#000000; stroke-linecap:round; stroke-linejoin:round; stroke-width:4; stroke-opacity:1; fill:none" points="240.167,1300.33 240.167,1281.43 "/>
<polyline clip-path="url(#clip000)" style="stroke:#000000; stroke-linecap:round; stroke-linejoin:round; stroke-width:4; stroke-opacity:1; fill:none" points="442.987,1300.33 442.987,1281.43 "/>
<polyline clip-path="url(#clip000)" style="stroke:#000000; stroke-linecap:round; stroke-linejoin:round; stroke-width:4; stroke-opacity:1; fill:none" points="645.808,1300.33 645.808,1281.43 "/>
<polyline clip-path="url(#clip000)" style="stroke:#000000; stroke-linecap:round; stroke-linejoin:round; stroke-width:4; stroke-opacity:1; fill:none" points="848.628,1300.33 848.628,1281.43 "/>
<polyline clip-path="url(#clip000)" style="stroke:#000000; stroke-linecap:round; stroke-linejoin:round; stroke-width:4; stroke-opacity:1; fill:none" points="1051.45,1300.33 1051.45,1281.43 "/>
<polyline clip-path="url(#clip000)" style="stroke:#000000; stroke-linecap:round; stroke-linejoin:round; stroke-width:4; stroke-opacity:1; fill:none" points="1254.27,1300.33 1254.27,1281.43 "/>
<polyline clip-path="url(#clip000)" style="stroke:#000000; stroke-linecap:round; stroke-linejoin:round; stroke-width:4; stroke-opacity:1; fill:none" points="1457.09,1300.33 1457.09,1281.43 "/>
<path clip-path="url(#clip000)" d="M240.167 1337.65 Q236.556 1337.65 234.727 1341.21 Q232.921 1344.75 232.921 1351.88 Q232.921 1358.99 234.727 1362.55 Q236.556 1366.1 240.167 1366.1 Q243.801 1366.1 245.607 1362.55 Q247.435 1358.99 247.435 1351.88 Q247.435 1344.75 245.607 1341.21 Q243.801 1337.65 240.167 1337.65 M240.167 1333.94 Q245.977 1333.94 249.032 1338.55 Q252.111 1343.13 252.111 1351.88 Q252.111 1360.61 249.032 1365.22 Q245.977 1369.8 240.167 1369.8 Q234.357 1369.8 231.278 1365.22 Q228.222 1360.61 228.222 1351.88 Q228.222 1343.13 231.278 1338.55 Q234.357 1333.94 240.167 1333.94 Z" fill="#000000" fill-rule="nonzero" fill-opacity="1" /><path clip-path="url(#clip000)" d="M433.369 1365.19 L441.008 1365.19 L441.008 1338.83 L432.698 1340.49 L432.698 1336.23 L440.962 1334.57 L445.638 1334.57 L445.638 1365.19 L453.276 1365.19 L453.276 1369.13 L433.369 1369.13 L433.369 1365.19 Z" fill="#000000" fill-rule="nonzero" fill-opacity="1" /><path clip-path="url(#clip000)" d="M640.46 1365.19 L656.78 1365.19 L656.78 1369.13 L634.835 1369.13 L634.835 1365.19 Q637.497 1362.44 642.081 1357.81 Q646.687 1353.16 647.868 1351.81 Q650.113 1349.29 650.993 1347.55 Q651.896 1345.79 651.896 1344.1 Q651.896 1341.35 649.951 1339.61 Q648.03 1337.88 644.928 1337.88 Q642.729 1337.88 640.275 1338.64 Q637.845 1339.41 635.067 1340.96 L635.067 1336.23 Q637.891 1335.1 640.345 1334.52 Q642.798 1333.94 644.835 1333.94 Q650.206 1333.94 653.4 1336.63 Q656.595 1339.31 656.595 1343.8 Q656.595 1345.93 655.784 1347.85 Q654.997 1349.75 652.891 1352.35 Q652.312 1353.02 649.21 1356.23 Q646.109 1359.43 640.46 1365.19 Z" fill="#000000" fill-rule="nonzero" fill-opacity="1" /><path clip-path="url(#clip000)" d="M852.876 1350.49 Q856.232 1351.21 858.107 1353.48 Q860.005 1355.75 860.005 1359.08 Q860.005 1364.2 856.487 1367 Q852.968 1369.8 846.487 1369.8 Q844.311 1369.8 841.996 1369.36 Q839.705 1368.94 837.251 1368.09 L837.251 1363.57 Q839.195 1364.71 841.51 1365.29 Q843.825 1365.86 846.348 1365.86 Q850.746 1365.86 853.038 1364.13 Q855.353 1362.39 855.353 1359.08 Q855.353 1356.03 853.2 1354.31 Q851.07 1352.58 847.251 1352.58 L843.223 1352.58 L843.223 1348.73 L847.436 1348.73 Q850.885 1348.73 852.714 1347.37 Q854.542 1345.98 854.542 1343.39 Q854.542 1340.73 852.644 1339.31 Q850.769 1337.88 847.251 1337.88 Q845.329 1337.88 843.13 1338.29 Q840.931 1338.71 838.292 1339.59 L838.292 1335.42 Q840.954 1334.68 843.269 1334.31 Q845.607 1333.94 847.667 1333.94 Q852.991 1333.94 856.093 1336.37 Q859.195 1338.78 859.195 1342.9 Q859.195 1345.77 857.552 1347.76 Q855.908 1349.73 852.876 1350.49 Z" fill="#000000" fill-rule="nonzero" fill-opacity="1" /><path clip-path="url(#clip000)" d="M1054.46 1338.64 L1042.65 1357.09 L1054.46 1357.09 L1054.46 1338.64 M1053.23 1334.57 L1059.11 1334.57 L1059.11 1357.09 L1064.04 1357.09 L1064.04 1360.98 L1059.11 1360.98 L1059.11 1369.13 L1054.46 1369.13 L1054.46 1360.98 L1038.86 1360.98 L1038.86 1356.47 L1053.23 1334.57 Z" fill="#000000" fill-rule="nonzero" fill-opacity="1" /><path clip-path="url(#clip000)" d="M1244.55 1334.57 L1262.9 1334.57 L1262.9 1338.5 L1248.83 1338.5 L1248.83 1346.98 Q1249.85 1346.63 1250.87 1346.47 Q1251.88 1346.28 1252.9 1346.28 Q1258.69 1346.28 1262.07 1349.45 Q1265.45 1352.62 1265.45 1358.04 Q1265.45 1363.62 1261.98 1366.72 Q1258.51 1369.8 1252.19 1369.8 Q1250.01 1369.8 1247.74 1369.43 Q1245.5 1369.06 1243.09 1368.32 L1243.09 1363.62 Q1245.17 1364.75 1247.39 1365.31 Q1249.62 1365.86 1252.09 1365.86 Q1256.1 1365.86 1258.44 1363.76 Q1260.77 1361.65 1260.77 1358.04 Q1260.77 1354.43 1258.44 1352.32 Q1256.1 1350.22 1252.09 1350.22 Q1250.22 1350.22 1248.34 1350.63 Q1246.49 1351.05 1244.55 1351.93 L1244.55 1334.57 Z" fill="#000000" fill-rule="nonzero" fill-opacity="1" /><path clip-path="url(#clip000)" d="M1457.49 1349.98 Q1454.35 1349.98 1452.49 1352.14 Q1450.67 1354.29 1450.67 1358.04 Q1450.67 1361.77 1452.49 1363.94 Q1454.35 1366.1 1457.49 1366.1 Q1460.64 1366.1 1462.47 1363.94 Q1464.32 1361.77 1464.32 1358.04 Q1464.32 1354.29 1462.47 1352.14 Q1460.64 1349.98 1457.49 1349.98 M1466.78 1335.33 L1466.78 1339.59 Q1465.02 1338.76 1463.21 1338.32 Q1461.43 1337.88 1459.67 1337.88 Q1455.04 1337.88 1452.59 1341 Q1450.16 1344.13 1449.81 1350.45 Q1451.18 1348.43 1453.24 1347.37 Q1455.3 1346.28 1457.77 1346.28 Q1462.98 1346.28 1465.99 1349.45 Q1469.02 1352.6 1469.02 1358.04 Q1469.02 1363.36 1465.87 1366.58 Q1462.73 1369.8 1457.49 1369.8 Q1451.5 1369.8 1448.33 1365.22 Q1445.16 1360.61 1445.16 1351.88 Q1445.16 1343.69 1449.05 1338.83 Q1452.93 1333.94 1459.49 1333.94 Q1461.24 1333.94 1463.03 1334.29 Q1464.83 1334.64 1466.78 1335.33 Z" fill="#000000" fill-rule="nonzero" fill-opacity="1" /><polyline clip-path="url(#clip000)" style="stroke:#000000; stroke-linecap:round; stroke-linejoin:round; stroke-width:4; stroke-opacity:1; fill:none" points="201.936,1300.33 201.936,102.682 "/>
<polyline clip-path="url(#clip000)" style="stroke:#000000; stroke-linecap:round; stroke-linejoin:round; stroke-width:4; stroke-opacity:1; fill:none" points="201.936,1263.1 220.834,1263.1 "/>
<polyline clip-path="url(#clip000)" style="stroke:#000000; stroke-linecap:round; stroke-linejoin:round; stroke-width:4; stroke-opacity:1; fill:none" points="201.936,982.302 220.834,982.302 "/>
<polyline clip-path="url(#clip000)" style="stroke:#000000; stroke-linecap:round; stroke-linejoin:round; stroke-width:4; stroke-opacity:1; fill:none" points="201.936,701.505 220.834,701.505 "/>
<polyline clip-path="url(#clip000)" style="stroke:#000000; stroke-linecap:round; stroke-linejoin:round; stroke-width:4; stroke-opacity:1; fill:none" points="201.936,420.708 220.834,420.708 "/>
<polyline clip-path="url(#clip000)" style="stroke:#000000; stroke-linecap:round; stroke-linejoin:round; stroke-width:4; stroke-opacity:1; fill:none" points="201.936,139.911 220.834,139.911 "/>
<path clip-path="url(#clip000)" d="M46.9921 1263.55 L76.6679 1263.55 L76.6679 1267.49 L46.9921 1267.49 L46.9921 1263.55 Z" fill="#000000" fill-rule="nonzero" fill-opacity="1" /><path clip-path="url(#clip000)" d="M87.5706 1276.44 L95.2095 1276.44 L95.2095 1250.08 L86.8993 1251.75 L86.8993 1247.49 L95.1632 1245.82 L99.8391 1245.82 L99.8391 1276.44 L107.478 1276.44 L107.478 1280.38 L87.5706 1280.38 L87.5706 1276.44 Z" fill="#000000" fill-rule="nonzero" fill-opacity="1" /><path clip-path="url(#clip000)" d="M116.922 1274.5 L121.807 1274.5 L121.807 1280.38 L116.922 1280.38 L116.922 1274.5 Z" fill="#000000" fill-rule="nonzero" fill-opacity="1" /><path clip-path="url(#clip000)" d="M141.992 1248.9 Q138.381 1248.9 136.552 1252.46 Q134.746 1256 134.746 1263.13 Q134.746 1270.24 136.552 1273.81 Q138.381 1277.35 141.992 1277.35 Q145.626 1277.35 147.431 1273.81 Q149.26 1270.24 149.26 1263.13 Q149.26 1256 147.431 1252.46 Q145.626 1248.9 141.992 1248.9 M141.992 1245.19 Q147.802 1245.19 150.857 1249.8 Q153.936 1254.38 153.936 1263.13 Q153.936 1271.86 150.857 1276.47 Q147.802 1281.05 141.992 1281.05 Q136.181 1281.05 133.103 1276.47 Q130.047 1271.86 130.047 1263.13 Q130.047 1254.38 133.103 1249.8 Q136.181 1245.19 141.992 1245.19 Z" fill="#000000" fill-rule="nonzero" fill-opacity="1" /><path clip-path="url(#clip000)" d="M47.9875 982.754 L77.6633 982.754 L77.6633 986.689 L47.9875 986.689 L47.9875 982.754 Z" fill="#000000" fill-rule="nonzero" fill-opacity="1" /><path clip-path="url(#clip000)" d="M97.7557 968.101 Q94.1447 968.101 92.316 971.666 Q90.5104 975.207 90.5104 982.337 Q90.5104 989.443 92.316 993.008 Q94.1447 996.55 97.7557 996.55 Q101.39 996.55 103.196 993.008 Q105.024 989.443 105.024 982.337 Q105.024 975.207 103.196 971.666 Q101.39 968.101 97.7557 968.101 M97.7557 964.397 Q103.566 964.397 106.621 969.004 Q109.7 973.587 109.7 982.337 Q109.7 991.064 106.621 995.67 Q103.566 1000.25 97.7557 1000.25 Q91.9456 1000.25 88.8669 995.67 Q85.8114 991.064 85.8114 982.337 Q85.8114 973.587 88.8669 969.004 Q91.9456 964.397 97.7557 964.397 Z" fill="#000000" fill-rule="nonzero" fill-opacity="1" /><path clip-path="url(#clip000)" d="M117.918 993.703 L122.802 993.703 L122.802 999.582 L117.918 999.582 L117.918 993.703 Z" fill="#000000" fill-rule="nonzero" fill-opacity="1" /><path clip-path="url(#clip000)" d="M133.033 965.022 L151.39 965.022 L151.39 968.957 L137.316 968.957 L137.316 977.429 Q138.334 977.082 139.353 976.92 Q140.371 976.735 141.39 976.735 Q147.177 976.735 150.556 979.906 Q153.936 983.078 153.936 988.494 Q153.936 994.073 150.464 997.175 Q146.992 1000.25 140.672 1000.25 Q138.496 1000.25 136.228 999.883 Q133.982 999.513 131.575 998.772 L131.575 994.073 Q133.658 995.207 135.881 995.763 Q138.103 996.318 140.58 996.318 Q144.584 996.318 146.922 994.212 Q149.26 992.105 149.26 988.494 Q149.26 984.883 146.922 982.777 Q144.584 980.67 140.58 980.67 Q138.705 980.67 136.83 981.087 Q134.978 981.504 133.033 982.383 L133.033 965.022 Z" fill="#000000" fill-rule="nonzero" fill-opacity="1" /><path clip-path="url(#clip000)" d="M96.7604 687.304 Q93.1493 687.304 91.3206 690.868 Q89.515 694.41 89.515 701.54 Q89.515 708.646 91.3206 712.211 Q93.1493 715.753 96.7604 715.753 Q100.395 715.753 102.2 712.211 Q104.029 708.646 104.029 701.54 Q104.029 694.41 102.2 690.868 Q100.395 687.304 96.7604 687.304 M96.7604 683.6 Q102.571 683.6 105.626 688.206 Q108.705 692.79 108.705 701.54 Q108.705 710.267 105.626 714.873 Q102.571 719.456 96.7604 719.456 Q90.9502 719.456 87.8715 714.873 Q84.816 710.267 84.816 701.54 Q84.816 692.79 87.8715 688.206 Q90.9502 683.6 96.7604 683.6 Z" fill="#000000" fill-rule="nonzero" fill-opacity="1" /><path clip-path="url(#clip000)" d="M116.922 712.905 L121.807 712.905 L121.807 718.785 L116.922 718.785 L116.922 712.905 Z" fill="#000000" fill-rule="nonzero" fill-opacity="1" /><path clip-path="url(#clip000)" d="M141.992 687.304 Q138.381 687.304 136.552 690.868 Q134.746 694.41 134.746 701.54 Q134.746 708.646 136.552 712.211 Q138.381 715.753 141.992 715.753 Q145.626 715.753 147.431 712.211 Q149.26 708.646 149.26 701.54 Q149.26 694.41 147.431 690.868 Q145.626 687.304 141.992 687.304 M141.992 683.6 Q147.802 683.6 150.857 688.206 Q153.936 692.79 153.936 701.54 Q153.936 710.267 150.857 714.873 Q147.802 719.456 141.992 719.456 Q136.181 719.456 133.103 714.873 Q130.047 710.267 130.047 701.54 Q130.047 692.79 133.103 688.206 Q136.181 683.6 141.992 683.6 Z" fill="#000000" fill-rule="nonzero" fill-opacity="1" /><path clip-path="url(#clip000)" d="M97.7557 406.507 Q94.1447 406.507 92.316 410.071 Q90.5104 413.613 90.5104 420.743 Q90.5104 427.849 92.316 431.414 Q94.1447 434.955 97.7557 434.955 Q101.39 434.955 103.196 431.414 Q105.024 427.849 105.024 420.743 Q105.024 413.613 103.196 410.071 Q101.39 406.507 97.7557 406.507 M97.7557 402.803 Q103.566 402.803 106.621 407.409 Q109.7 411.993 109.7 420.743 Q109.7 429.469 106.621 434.076 Q103.566 438.659 97.7557 438.659 Q91.9456 438.659 88.8669 434.076 Q85.8114 429.469 85.8114 420.743 Q85.8114 411.993 88.8669 407.409 Q91.9456 402.803 97.7557 402.803 Z" fill="#000000" fill-rule="nonzero" fill-opacity="1" /><path clip-path="url(#clip000)" d="M117.918 432.108 L122.802 432.108 L122.802 437.988 L117.918 437.988 L117.918 432.108 Z" fill="#000000" fill-rule="nonzero" fill-opacity="1" /><path clip-path="url(#clip000)" d="M133.033 403.428 L151.39 403.428 L151.39 407.363 L137.316 407.363 L137.316 415.835 Q138.334 415.488 139.353 415.326 Q140.371 415.141 141.39 415.141 Q147.177 415.141 150.556 418.312 Q153.936 421.483 153.936 426.9 Q153.936 432.479 150.464 435.58 Q146.992 438.659 140.672 438.659 Q138.496 438.659 136.228 438.289 Q133.982 437.918 131.575 437.178 L131.575 432.479 Q133.658 433.613 135.881 434.168 Q138.103 434.724 140.58 434.724 Q144.584 434.724 146.922 432.618 Q149.26 430.511 149.26 426.9 Q149.26 423.289 146.922 421.182 Q144.584 419.076 140.58 419.076 Q138.705 419.076 136.83 419.493 Q134.978 419.909 133.033 420.789 L133.033 403.428 Z" fill="#000000" fill-rule="nonzero" fill-opacity="1" /><path clip-path="url(#clip000)" d="M87.5706 153.256 L95.2095 153.256 L95.2095 126.89 L86.8993 128.557 L86.8993 124.297 L95.1632 122.631 L99.8391 122.631 L99.8391 153.256 L107.478 153.256 L107.478 157.191 L87.5706 157.191 L87.5706 153.256 Z" fill="#000000" fill-rule="nonzero" fill-opacity="1" /><path clip-path="url(#clip000)" d="M116.922 151.311 L121.807 151.311 L121.807 157.191 L116.922 157.191 L116.922 151.311 Z" fill="#000000" fill-rule="nonzero" fill-opacity="1" /><path clip-path="url(#clip000)" d="M141.992 125.709 Q138.381 125.709 136.552 129.274 Q134.746 132.816 134.746 139.945 Q134.746 147.052 136.552 150.617 Q138.381 154.158 141.992 154.158 Q145.626 154.158 147.431 150.617 Q149.26 147.052 149.26 139.945 Q149.26 132.816 147.431 129.274 Q145.626 125.709 141.992 125.709 M141.992 122.006 Q147.802 122.006 150.857 126.612 Q153.936 131.195 153.936 139.945 Q153.936 148.672 150.857 153.279 Q147.802 157.862 141.992 157.862 Q136.181 157.862 133.103 153.279 Q130.047 148.672 130.047 139.945 Q130.047 131.195 133.103 126.612 Q136.181 122.006 141.992 122.006 Z" fill="#000000" fill-rule="nonzero" fill-opacity="1" /><path clip-path="url(#clip000)" d="M578.835 12.096 L587.018 12.096 L587.018 65.6895 L616.468 65.6895 L616.468 72.576 L578.835 72.576 L578.835 12.096 Z" fill="#000000" fill-rule="nonzero" fill-opacity="1" /><path clip-path="url(#clip000)" d="M662.081 48.0275 L662.081 51.6733 L627.81 51.6733 Q628.296 59.3701 632.428 63.421 Q636.601 67.4314 644.014 67.4314 Q648.308 67.4314 652.318 66.3781 Q656.369 65.3249 660.339 63.2184 L660.339 70.267 Q656.329 71.9684 652.116 72.8596 Q647.903 73.7508 643.568 73.7508 Q632.712 73.7508 626.352 67.4314 Q620.033 61.1119 620.033 50.3365 Q620.033 39.1965 626.028 32.6746 Q632.064 26.1121 642.272 26.1121 Q651.427 26.1121 656.734 32.0264 Q662.081 37.9003 662.081 48.0275 M654.627 45.84 Q654.546 39.7232 651.184 36.0774 Q647.862 32.4315 642.353 32.4315 Q636.115 32.4315 632.347 35.9558 Q628.62 39.4801 628.053 45.8805 L654.627 45.84 Z" fill="#000000" fill-rule="nonzero" fill-opacity="1" /><path clip-path="url(#clip000)" d="M697.283 9.54393 L697.283 15.7418 L690.154 15.7418 Q686.143 15.7418 684.563 17.3622 Q683.024 18.9825 683.024 23.1955 L683.024 27.2059 L695.298 27.2059 L695.298 32.9987 L683.024 32.9987 L683.024 72.576 L675.53 72.576 L675.53 32.9987 L668.4 32.9987 L668.4 27.2059 L675.53 27.2059 L675.53 24.0462 Q675.53 16.471 679.054 13.0277 Q682.578 9.54393 690.235 9.54393 L697.283 9.54393 Z" fill="#000000" fill-rule="nonzero" fill-opacity="1" /><path clip-path="url(#clip000)" d="M709.436 14.324 L709.436 27.2059 L724.789 27.2059 L724.789 32.9987 L709.436 32.9987 L709.436 57.6282 Q709.436 63.1779 710.935 64.7578 Q712.474 66.3376 717.133 66.3376 L724.789 66.3376 L724.789 72.576 L717.133 72.576 Q708.504 72.576 705.223 69.3758 Q701.942 66.1351 701.942 57.6282 L701.942 32.9987 L696.473 32.9987 L696.473 27.2059 L701.942 27.2059 L701.942 14.324 L709.436 14.324 Z" fill="#000000" fill-rule="nonzero" fill-opacity="1" /><path clip-path="url(#clip000)" d="M752.497 9.62495 Q747.069 18.942 744.436 28.0566 Q741.803 37.1711 741.803 46.5287 Q741.803 55.8863 744.436 65.0818 Q747.109 74.2369 752.497 83.5134 L746.016 83.5134 Q739.939 73.9938 736.901 64.7983 Q733.903 55.6027 733.903 46.5287 Q733.903 37.4952 736.901 28.3401 Q739.899 19.1851 746.016 9.62495 L752.497 9.62495 Z" fill="#000000" fill-rule="nonzero" fill-opacity="1" /><path clip-path="url(#clip000)" d="M775.466 18.8205 L775.466 65.8515 L785.35 65.8515 Q797.867 65.8515 803.66 60.1802 Q809.493 54.509 809.493 42.2752 Q809.493 30.1225 803.66 24.4918 Q797.867 18.8205 785.35 18.8205 L775.466 18.8205 M767.283 12.096 L784.094 12.096 Q801.675 12.096 809.898 19.4281 Q818.122 26.7198 818.122 42.2752 Q818.122 57.9117 809.858 65.2439 Q801.594 72.576 784.094 72.576 L767.283 72.576 L767.283 12.096 Z" fill="#000000" fill-rule="nonzero" fill-opacity="1" /><path clip-path="url(#clip000)" d="M869.649 48.0275 L869.649 51.6733 L835.379 51.6733 Q835.865 59.3701 839.997 63.421 Q844.169 67.4314 851.582 67.4314 Q855.876 67.4314 859.887 66.3781 Q863.937 65.3249 867.907 63.2184 L867.907 70.267 Q863.897 71.9684 859.684 72.8596 Q855.471 73.7508 851.137 73.7508 Q840.28 73.7508 833.92 67.4314 Q827.601 61.1119 827.601 50.3365 Q827.601 39.1965 833.596 32.6746 Q839.632 26.1121 849.84 26.1121 Q858.995 26.1121 864.302 32.0264 Q869.649 37.9003 869.649 48.0275 M862.196 45.84 Q862.115 39.7232 858.752 36.0774 Q855.431 32.4315 849.921 32.4315 Q843.683 32.4315 839.916 35.9558 Q836.189 39.4801 835.622 45.8805 L862.196 45.84 Z" fill="#000000" fill-rule="nonzero" fill-opacity="1" /><path clip-path="url(#clip000)" d="M908.173 34.1734 Q906.918 33.4443 905.419 33.1202 Q903.96 32.7556 902.178 32.7556 Q895.859 32.7556 892.456 36.8875 Q889.094 40.9789 889.094 48.6757 L889.094 72.576 L881.599 72.576 L881.599 27.2059 L889.094 27.2059 L889.094 34.2544 Q891.443 30.1225 895.21 28.1376 Q898.978 26.1121 904.365 26.1121 Q905.135 26.1121 906.067 26.2337 Q906.999 26.3147 908.133 26.5172 L908.173 34.1734 Z" fill="#000000" fill-rule="nonzero" fill-opacity="1" /><path clip-path="url(#clip000)" d="M915.992 27.2059 L923.445 27.2059 L923.445 72.576 L915.992 72.576 L915.992 27.2059 M915.992 9.54393 L923.445 9.54393 L923.445 18.9825 L915.992 18.9825 L915.992 9.54393 Z" fill="#000000" fill-rule="nonzero" fill-opacity="1" /><path clip-path="url(#clip000)" d="M933.694 27.2059 L941.593 27.2059 L955.771 65.2844 L969.95 27.2059 L977.849 27.2059 L960.835 72.576 L950.708 72.576 L933.694 27.2059 Z" fill="#000000" fill-rule="nonzero" fill-opacity="1" /><path clip-path="url(#clip000)" d="M996.24 65.6895 L1024.8 65.6895 L1024.8 72.576 L986.396 72.576 L986.396 65.6895 Q991.055 60.8689 999.076 52.7671 Q1007.14 44.6248 1009.2 42.2752 Q1013.13 37.8598 1014.67 34.8216 Q1016.25 31.7429 1016.25 28.7857 Q1016.25 23.9651 1012.85 20.927 Q1009.49 17.8888 1004.06 17.8888 Q1000.21 17.8888 995.916 19.2256 Q991.662 20.5624 986.801 23.2765 L986.801 15.0127 Q991.743 13.0277 996.037 12.015 Q1000.33 11.0023 1003.9 11.0023 Q1013.29 11.0023 1018.88 15.7013 Q1024.47 20.4004 1024.47 28.2591 Q1024.47 31.9859 1023.06 35.3482 Q1021.68 38.6699 1017.99 43.2069 Q1016.98 44.3817 1011.55 50.0125 Q1006.12 55.6027 996.24 65.6895 Z" fill="#000000" fill-rule="nonzero" fill-opacity="1" /><path clip-path="url(#clip000)" d="M1058.83 9.62495 Q1053.4 18.942 1050.77 28.0566 Q1048.13 37.1711 1048.13 46.5287 Q1048.13 55.8863 1050.77 65.0818 Q1053.44 74.2369 1058.83 83.5134 L1052.35 83.5134 Q1046.27 73.9938 1043.23 64.7983 Q1040.23 55.6027 1040.23 46.5287 Q1040.23 37.4952 1043.23 28.3401 Q1046.23 19.1851 1052.35 9.62495 L1058.83 9.62495 Z" fill="#000000" fill-rule="nonzero" fill-opacity="1" /><path clip-path="url(#clip000)" d="M1091.84 17.4837 Q1085.52 17.4837 1082.32 23.7221 Q1079.16 29.92 1079.16 42.3968 Q1079.16 54.833 1082.32 61.0714 Q1085.52 67.2693 1091.84 67.2693 Q1098.2 67.2693 1101.36 61.0714 Q1104.56 54.833 1104.56 42.3968 Q1104.56 29.92 1101.36 23.7221 Q1098.2 17.4837 1091.84 17.4837 M1091.84 11.0023 Q1102.01 11.0023 1107.36 19.0636 Q1112.74 27.0843 1112.74 42.3968 Q1112.74 57.6687 1107.36 65.73 Q1102.01 73.7508 1091.84 73.7508 Q1081.67 73.7508 1076.29 65.73 Q1070.94 57.6687 1070.94 42.3968 Q1070.94 27.0843 1076.29 19.0636 Q1081.67 11.0023 1091.84 11.0023 Z" fill="#000000" fill-rule="nonzero" fill-opacity="1" /><path clip-path="url(#clip000)" d="M1124.9 9.62495 L1131.38 9.62495 Q1137.45 19.1851 1140.45 28.3401 Q1143.49 37.4952 1143.49 46.5287 Q1143.49 55.6027 1140.45 64.7983 Q1137.45 73.9938 1131.38 83.5134 L1124.9 83.5134 Q1130.28 74.2369 1132.92 65.0818 Q1135.59 55.8863 1135.59 46.5287 Q1135.59 37.1711 1132.92 28.0566 Q1130.28 18.942 1124.9 9.62495 Z" fill="#000000" fill-rule="nonzero" fill-opacity="1" /><path clip-path="url(#clip000)" d="M1157.26 9.62495 L1163.74 9.62495 Q1169.82 19.1851 1172.82 28.3401 Q1175.86 37.4952 1175.86 46.5287 Q1175.86 55.6027 1172.82 64.7983 Q1169.82 73.9938 1163.74 83.5134 L1157.26 83.5134 Q1162.65 74.2369 1165.28 65.0818 Q1167.96 55.8863 1167.96 46.5287 Q1167.96 37.1711 1165.28 28.0566 Q1162.65 18.942 1157.26 9.62495 Z" fill="#000000" fill-rule="nonzero" fill-opacity="1" /><polyline clip-path="url(#clip002)" style="stroke:#009af9; stroke-linecap:round; stroke-linejoin:round; stroke-width:8; stroke-opacity:1; fill:none" points="240.167,701.505 246.571,684.363 252.974,667.22 259.378,650.078 265.782,632.935 272.186,615.793 278.59,598.651 284.993,581.508 291.397,564.366 297.801,547.224 304.205,530.081 310.609,512.939 317.012,495.796 323.416,478.654 329.82,461.512 336.224,444.517 342.628,427.989 349.032,411.938 355.435,396.366 361.839,381.271 368.243,366.653 374.647,352.514 381.051,338.852 387.454,325.668 393.858,312.961 400.262,300.733 406.666,288.982 413.07,277.709 419.473,266.913 425.877,256.58 432.281,246.639 438.685,237.08 445.089,227.905 451.493,219.113 457.896,210.704 464.3,202.678 470.704,195.036 477.108,187.776 483.512,180.899 489.915,174.406 496.319,168.296 502.723,162.568 509.127,157.224 515.531,152.283 521.934,147.968 528.338,144.344 534.742,141.41 541.146,139.167 547.55,137.613 553.953,136.75 560.357,136.578 566.761,137.096 573.165,138.304 579.569,140.202 585.973,142.791 592.376,146.07 598.78,150.039 605.184,154.696 611.588,159.848 617.992,165.384 624.395,171.303 630.799,177.605 637.203,184.29 643.607,191.358 650.011,198.809 656.414,206.643 662.818,214.861 669.222,223.461 675.626,232.445 682.03,241.812 688.434,251.562 694.837,261.694 701.241,272.251 707.645,283.286 714.049,294.798 720.453,306.787 726.856,319.255 733.26,332.2 739.664,345.623 746.068,359.524 752.472,373.902 758.875,388.758 765.279,404.092 771.683,419.904 778.087,436.193 784.491,452.96 790.895,470.083 797.298,487.225 803.702,504.368 810.106,521.51 816.51,538.652 822.914,555.795 829.317,572.937 835.721,590.08 842.125,607.222 848.529,624.364 854.933,641.507 861.336,658.649 867.74,675.791 874.144,692.934 880.548,710.076 886.952,727.219 893.355,744.361 899.759,761.503 906.163,778.646 912.567,795.788 918.971,812.93 925.375,830.073 931.778,847.215 938.182,864.358 944.586,881.5 950.99,898.642 957.394,915.785 963.797,932.927 970.201,950.05 976.605,966.817 983.009,983.106 989.413,998.918 995.816,1014.25 1002.22,1029.11 1008.62,1043.49 1015.03,1057.39 1021.43,1070.81 1027.84,1083.76 1034.24,1096.22 1040.64,1108.21 1047.05,1119.72 1053.45,1130.76 1059.85,1141.32 1066.26,1151.45 1072.66,1161.2 1079.07,1170.57 1085.47,1179.55 1091.87,1188.15 1098.28,1196.37 1104.68,1204.2 1111.09,1211.65 1117.49,1218.72 1123.89,1225.41 1130.3,1231.71 1136.7,1237.63 1143.1,1243.16 1149.51,1248.31 1155.91,1252.97 1162.32,1256.94 1168.72,1260.22 1175.12,1262.81 1181.53,1264.71 1187.93,1265.91 1194.33,1266.43 1200.74,1266.26 1207.14,1265.4 1213.55,1263.84 1219.95,1261.6 1226.35,1258.67 1232.76,1255.04 1239.16,1250.73 1245.57,1245.79 1251.97,1240.44 1258.37,1234.71 1264.78,1228.6 1271.18,1222.11 1277.58,1215.23 1283.99,1207.97 1290.39,1200.33 1296.8,1192.31 1303.2,1183.9 1309.6,1175.1 1316.01,1165.93 1322.41,1156.37 1328.81,1146.43 1335.22,1136.1 1341.62,1125.3 1348.03,1114.03 1354.43,1102.28 1360.83,1090.05 1367.24,1077.34 1373.64,1064.16 1380.05,1050.5 1386.45,1036.36 1392.85,1021.74 1399.26,1006.64 1405.66,991.072 1412.06,975.021 1418.47,958.493 1424.87,941.498 1431.28,924.356 1437.68,907.214 1444.08,890.071 1450.49,872.929 1456.89,855.786 1463.29,838.644 1469.7,821.502 1476.1,804.359 1482.51,787.217 1488.91,770.075 1495.31,752.932 1501.72,735.79 1508.12,718.647 1514.53,701.505 "/>
<circle clip-path="url(#clip002)" cx="240.167" cy="701.505" r="18" fill="#000000" fill-rule="evenodd" fill-opacity="1" stroke="none"/>
<circle clip-path="url(#clip002)" cx="331.192" cy="457.838" r="18" fill="#000000" fill-rule="evenodd" fill-opacity="1" stroke="none"/>
<circle clip-path="url(#clip002)" cx="422.218" cy="262.433" r="18" fill="#000000" fill-rule="evenodd" fill-opacity="1" stroke="none"/>
<circle clip-path="url(#clip002)" cx="513.244" cy="153.991" r="18" fill="#000000" fill-rule="evenodd" fill-opacity="1" stroke="none"/>
<circle clip-path="url(#clip002)" cx="604.269" cy="153.991" r="18" fill="#000000" fill-rule="evenodd" fill-opacity="1" stroke="none"/>
<circle clip-path="url(#clip002)" cx="695.295" cy="262.433" r="18" fill="#000000" fill-rule="evenodd" fill-opacity="1" stroke="none"/>
<circle clip-path="url(#clip002)" cx="786.32" cy="457.838" r="18" fill="#000000" fill-rule="evenodd" fill-opacity="1" stroke="none"/>
<circle clip-path="url(#clip002)" cx="877.346" cy="701.505" r="18" fill="#000000" fill-rule="evenodd" fill-opacity="1" stroke="none"/>
<circle clip-path="url(#clip002)" cx="968.372" cy="945.172" r="18" fill="#000000" fill-rule="evenodd" fill-opacity="1" stroke="none"/>
<circle clip-path="url(#clip002)" cx="1059.4" cy="1140.58" r="18" fill="#000000" fill-rule="evenodd" fill-opacity="1" stroke="none"/>
<circle clip-path="url(#clip002)" cx="1150.42" cy="1249.02" r="18" fill="#000000" fill-rule="evenodd" fill-opacity="1" stroke="none"/>
<circle clip-path="url(#clip002)" cx="1241.45" cy="1249.02" r="18" fill="#000000" fill-rule="evenodd" fill-opacity="1" stroke="none"/>
<circle clip-path="url(#clip002)" cx="1332.47" cy="1140.58" r="18" fill="#000000" fill-rule="evenodd" fill-opacity="1" stroke="none"/>
<circle clip-path="url(#clip002)" cx="1423.5" cy="945.172" r="18" fill="#000000" fill-rule="evenodd" fill-opacity="1" stroke="none"/>
<circle clip-path="url(#clip002)" cx="1514.53" cy="701.505" r="18" fill="#000000" fill-rule="evenodd" fill-opacity="1" stroke="none"/>
<polyline clip-path="url(#clip002)" style="stroke:#3da44d; stroke-linecap:round; stroke-linejoin:round; stroke-width:4; stroke-opacity:0.5; fill:none" stroke-dasharray="16, 10" points="240.167,701.505 246.571,683.776 252.974,666.065 259.378,648.39 265.782,630.767 272.186,613.214 278.59,595.75 284.993,578.391 291.397,561.155 297.801,544.059 304.205,527.12 310.609,510.354 317.012,493.78 323.416,477.412 329.82,461.267 336.224,445.362 342.628,429.713 349.032,414.334 355.435,399.242 361.839,384.45 368.243,369.975 374.647,355.831 381.051,342.031 387.454,328.589 393.858,315.519 400.262,302.834 406.666,290.546 413.07,278.668 419.473,267.211 425.877,256.187 432.281,245.607 438.685,235.482 445.089,225.821 451.493,216.634 457.896,207.931 464.3,199.72 470.704,192.009 477.108,184.805 483.512,178.117 489.915,171.95 496.319,166.312 502.723,161.207 509.127,156.64 515.531,152.617 521.934,149.14 528.338,146.215 534.742,143.843 541.146,142.026 547.55,140.768 553.953,140.068 560.357,139.928 566.761,140.348 573.165,141.327 579.569,142.865 585.973,144.959 592.376,147.609 598.78,150.81 605.184,154.56 611.588,158.856 617.992,163.692 624.395,169.065 630.799,174.968 637.203,181.396 643.607,188.343 650.011,195.801 656.414,203.763 662.818,212.222 669.222,221.168 675.626,230.593 682.03,240.487 688.434,250.841 694.837,261.644 701.241,272.886 707.645,284.555 714.049,296.639 720.453,309.127 726.856,322.007 733.26,335.264 739.664,348.887 746.068,362.861 752.472,377.172 758.875,391.807 765.279,406.751 771.683,421.988 778.087,437.505 784.491,453.284 790.895,469.311 797.298,485.569 803.702,502.042 810.106,518.714 816.51,535.569 822.914,552.589 829.317,569.757 835.721,587.057 842.125,604.47 848.529,621.981 854.933,639.57 861.336,657.222 867.74,674.917 874.144,692.64 880.548,710.37 886.952,728.093 893.355,745.788 899.759,763.44 906.163,781.029 912.567,798.54 918.971,815.953 925.375,833.253 931.778,850.421 938.182,867.441 944.586,884.296 950.99,900.968 957.394,917.441 963.797,933.699 970.201,949.726 976.605,965.505 983.009,981.022 989.413,996.259 995.816,1011.2 1002.22,1025.84 1008.62,1040.15 1015.03,1054.12 1021.43,1067.75 1027.84,1081 1034.24,1093.88 1040.64,1106.37 1047.05,1118.46 1053.45,1130.12 1059.85,1141.37 1066.26,1152.17 1072.66,1162.52 1079.07,1172.42 1085.47,1181.84 1091.87,1190.79 1098.28,1199.25 1104.68,1207.21 1111.09,1214.67 1117.49,1221.61 1123.89,1228.04 1130.3,1233.95 1136.7,1239.32 1143.1,1244.15 1149.51,1248.45 1155.91,1252.2 1162.32,1255.4 1168.72,1258.05 1175.12,1260.15 1181.53,1261.68 1187.93,1262.66 1194.33,1263.08 1200.74,1262.94 1207.14,1262.24 1213.55,1260.98 1219.95,1259.17 1226.35,1256.8 1232.76,1253.87 1239.16,1250.39 1245.57,1246.37 1251.97,1241.8 1258.37,1236.7 1264.78,1231.06 1271.18,1224.89 1277.58,1218.2 1283.99,1211 1290.39,1203.29 1296.8,1195.08 1303.2,1186.38 1309.6,1177.19 1316.01,1167.53 1322.41,1157.4 1328.81,1146.82 1335.22,1135.8 1341.62,1124.34 1348.03,1112.46 1354.43,1100.18 1360.83,1087.49 1367.24,1074.42 1373.64,1060.98 1380.05,1047.18 1386.45,1033.03 1392.85,1018.56 1399.26,1003.77 1405.66,988.676 1412.06,973.297 1418.47,957.648 1424.87,941.743 1431.28,925.598 1437.68,909.23 1444.08,892.656 1450.49,875.89 1456.89,858.951 1463.29,841.855 1469.7,824.619 1476.1,807.26 1482.51,789.796 1488.91,772.243 1495.31,754.62 1501.72,736.945 1508.12,719.234 1514.53,701.505 "/>
<path clip-path="url(#clip000)" d="M246.963 1260.41 L517.299 1260.41 L517.299 1053.05 L246.963 1053.05  Z" fill="#ffffff" fill-rule="evenodd" fill-opacity="1"/>
<polyline clip-path="url(#clip000)" style="stroke:#000000; stroke-linecap:round; stroke-linejoin:round; stroke-width:4; stroke-opacity:1; fill:none" points="246.963,1260.41 517.299,1260.41 517.299,1053.05 246.963,1053.05 246.963,1260.41 "/>
<polyline clip-path="url(#clip000)" style="stroke:#009af9; stroke-linecap:round; stroke-linejoin:round; stroke-width:8; stroke-opacity:1; fill:none" points="261.972,1104.89 352.027,1104.89 "/>
<path clip-path="url(#clip000)" d="M385.462 1097 L385.462 1101.03 Q383.656 1100.11 381.712 1099.64 Q379.768 1099.18 377.684 1099.18 Q374.513 1099.18 372.916 1100.15 Q371.342 1101.12 371.342 1103.07 Q371.342 1104.55 372.476 1105.41 Q373.61 1106.24 377.036 1107 L378.494 1107.33 Q383.031 1108.3 384.93 1110.08 Q386.851 1111.84 386.851 1115.01 Q386.851 1118.62 383.981 1120.73 Q381.133 1122.84 376.133 1122.84 Q374.05 1122.84 371.782 1122.42 Q369.536 1122.03 367.036 1121.22 L367.036 1116.82 Q369.397 1118.05 371.689 1118.67 Q373.981 1119.27 376.226 1119.27 Q379.235 1119.27 380.856 1118.25 Q382.476 1117.21 382.476 1115.34 Q382.476 1113.6 381.295 1112.68 Q380.138 1111.75 376.18 1110.89 L374.698 1110.55 Q370.74 1109.71 368.981 1108 Q367.221 1106.26 367.221 1103.25 Q367.221 1099.6 369.814 1097.61 Q372.407 1095.62 377.175 1095.62 Q379.536 1095.62 381.619 1095.96 Q383.703 1096.31 385.462 1097 Z" fill="#000000" fill-rule="nonzero" fill-opacity="1" /><path clip-path="url(#clip000)" d="M397.754 1118.28 L397.754 1132.03 L393.471 1132.03 L393.471 1096.24 L397.754 1096.24 L397.754 1100.18 Q399.096 1097.86 401.133 1096.75 Q403.193 1095.62 406.041 1095.62 Q410.763 1095.62 413.703 1099.37 Q416.666 1103.12 416.666 1109.23 Q416.666 1115.34 413.703 1119.09 Q410.763 1122.84 406.041 1122.84 Q403.193 1122.84 401.133 1121.73 Q399.096 1120.59 397.754 1118.28 M412.244 1109.23 Q412.244 1104.53 410.3 1101.87 Q408.379 1099.18 404.999 1099.18 Q401.619 1099.18 399.675 1101.87 Q397.754 1104.53 397.754 1109.23 Q397.754 1113.93 399.675 1116.61 Q401.619 1119.27 404.999 1119.27 Q408.379 1119.27 410.3 1116.61 Q412.244 1113.93 412.244 1109.23 Z" fill="#000000" fill-rule="nonzero" fill-opacity="1" /><path clip-path="url(#clip000)" d="M423.726 1086.15 L427.985 1086.15 L427.985 1122.17 L423.726 1122.17 L423.726 1086.15 Z" fill="#000000" fill-rule="nonzero" fill-opacity="1" /><path clip-path="url(#clip000)" d="M436.897 1096.24 L441.156 1096.24 L441.156 1122.17 L436.897 1122.17 L436.897 1096.24 M436.897 1086.15 L441.156 1086.15 L441.156 1091.54 L436.897 1091.54 L436.897 1086.15 Z" fill="#000000" fill-rule="nonzero" fill-opacity="1" /><path clip-path="url(#clip000)" d="M471.619 1106.52 L471.619 1122.17 L467.36 1122.17 L467.36 1106.66 Q467.36 1102.98 465.925 1101.15 Q464.489 1099.32 461.619 1099.32 Q458.17 1099.32 456.179 1101.52 Q454.189 1103.72 454.189 1107.51 L454.189 1122.17 L449.906 1122.17 L449.906 1096.24 L454.189 1096.24 L454.189 1100.27 Q455.716 1097.93 457.776 1096.77 Q459.86 1095.62 462.568 1095.62 Q467.036 1095.62 469.327 1098.39 Q471.619 1101.15 471.619 1106.52 Z" fill="#000000" fill-rule="nonzero" fill-opacity="1" /><path clip-path="url(#clip000)" d="M502.29 1108.14 L502.29 1110.22 L482.707 1110.22 Q482.985 1114.62 485.346 1116.93 Q487.73 1119.23 491.966 1119.23 Q494.42 1119.23 496.711 1118.62 Q499.026 1118.02 501.295 1116.82 L501.295 1120.85 Q499.003 1121.82 496.596 1122.33 Q494.188 1122.84 491.711 1122.84 Q485.508 1122.84 481.874 1119.23 Q478.262 1115.62 478.262 1109.46 Q478.262 1103.09 481.688 1099.37 Q485.137 1095.62 490.971 1095.62 Q496.202 1095.62 499.235 1099 Q502.29 1102.35 502.29 1108.14 M498.031 1106.89 Q497.985 1103.39 496.063 1101.31 Q494.165 1099.23 491.017 1099.23 Q487.452 1099.23 485.299 1101.24 Q483.17 1103.25 482.846 1106.91 L498.031 1106.89 Z" fill="#000000" fill-rule="nonzero" fill-opacity="1" /><circle clip-path="url(#clip000)" cx="307" cy="1156.73" r="20.9455" fill="#000000" fill-rule="evenodd" fill-opacity="1" stroke="none"/>
<path clip-path="url(#clip000)" d="M385.948 1152.02 L385.948 1137.99 L390.207 1137.99 L390.207 1174.01 L385.948 1174.01 L385.948 1170.12 Q384.606 1172.43 382.545 1173.57 Q380.508 1174.68 377.638 1174.68 Q372.939 1174.68 369.976 1170.93 Q367.036 1167.18 367.036 1161.07 Q367.036 1154.96 369.976 1151.21 Q372.939 1147.46 377.638 1147.46 Q380.508 1147.46 382.545 1148.59 Q384.606 1149.7 385.948 1152.02 M371.434 1161.07 Q371.434 1165.77 373.356 1168.45 Q375.3 1171.11 378.68 1171.11 Q382.059 1171.11 384.004 1168.45 Q385.948 1165.77 385.948 1161.07 Q385.948 1156.37 384.004 1153.71 Q382.059 1151.02 378.68 1151.02 Q375.3 1151.02 373.356 1153.71 Q371.434 1156.37 371.434 1161.07 Z" fill="#000000" fill-rule="nonzero" fill-opacity="1" /><path clip-path="url(#clip000)" d="M410.763 1160.97 Q405.601 1160.97 403.61 1162.15 Q401.619 1163.34 401.619 1166.18 Q401.619 1168.45 403.101 1169.79 Q404.605 1171.11 407.175 1171.11 Q410.717 1171.11 412.846 1168.61 Q414.999 1166.09 414.999 1161.92 L414.999 1160.97 L410.763 1160.97 M419.258 1159.21 L419.258 1174.01 L414.999 1174.01 L414.999 1170.07 Q413.541 1172.43 411.365 1173.57 Q409.189 1174.68 406.041 1174.68 Q402.059 1174.68 399.698 1172.46 Q397.36 1170.21 397.36 1166.46 Q397.36 1162.09 400.277 1159.86 Q403.217 1157.64 409.027 1157.64 L414.999 1157.64 L414.999 1157.22 Q414.999 1154.28 413.054 1152.69 Q411.133 1151.07 407.638 1151.07 Q405.416 1151.07 403.309 1151.6 Q401.203 1152.13 399.258 1153.2 L399.258 1149.26 Q401.596 1148.36 403.795 1147.92 Q405.994 1147.46 408.078 1147.46 Q413.703 1147.46 416.48 1150.37 Q419.258 1153.29 419.258 1159.21 Z" fill="#000000" fill-rule="nonzero" fill-opacity="1" /><path clip-path="url(#clip000)" d="M432.244 1140.72 L432.244 1148.08 L441.017 1148.08 L441.017 1151.39 L432.244 1151.39 L432.244 1165.46 Q432.244 1168.64 433.101 1169.54 Q433.98 1170.44 436.642 1170.44 L441.017 1170.44 L441.017 1174.01 L436.642 1174.01 Q431.712 1174.01 429.837 1172.18 Q427.962 1170.33 427.962 1165.46 L427.962 1151.39 L424.837 1151.39 L424.837 1148.08 L427.962 1148.08 L427.962 1140.72 L432.244 1140.72 Z" fill="#000000" fill-rule="nonzero" fill-opacity="1" /><path clip-path="url(#clip000)" d="M458.401 1160.97 Q453.239 1160.97 451.249 1162.15 Q449.258 1163.34 449.258 1166.18 Q449.258 1168.45 450.739 1169.79 Q452.244 1171.11 454.814 1171.11 Q458.355 1171.11 460.485 1168.61 Q462.638 1166.09 462.638 1161.92 L462.638 1160.97 L458.401 1160.97 M466.897 1159.21 L466.897 1174.01 L462.638 1174.01 L462.638 1170.07 Q461.179 1172.43 459.003 1173.57 Q456.827 1174.68 453.679 1174.68 Q449.698 1174.68 447.337 1172.46 Q444.999 1170.21 444.999 1166.46 Q444.999 1162.09 447.915 1159.86 Q450.855 1157.64 456.665 1157.64 L462.638 1157.64 L462.638 1157.22 Q462.638 1154.28 460.693 1152.69 Q458.772 1151.07 455.276 1151.07 Q453.054 1151.07 450.948 1151.6 Q448.841 1152.13 446.897 1153.2 L446.897 1149.26 Q449.235 1148.36 451.434 1147.92 Q453.633 1147.46 455.716 1147.46 Q461.341 1147.46 464.119 1150.37 Q466.897 1153.29 466.897 1159.21 Z" fill="#000000" fill-rule="nonzero" fill-opacity="1" /><polyline clip-path="url(#clip000)" style="stroke:#3da44d; stroke-linecap:round; stroke-linejoin:round; stroke-width:4; stroke-opacity:0.5; fill:none" stroke-dasharray="16, 10" points="261.972,1208.57 352.027,1208.57 "/>
<path clip-path="url(#clip000)" d="M385.462 1200.68 L385.462 1204.71 Q383.656 1203.79 381.712 1203.32 Q379.768 1202.86 377.684 1202.86 Q374.513 1202.86 372.916 1203.83 Q371.342 1204.8 371.342 1206.75 Q371.342 1208.23 372.476 1209.09 Q373.61 1209.92 377.036 1210.68 L378.494 1211.01 Q383.031 1211.98 384.93 1213.76 Q386.851 1215.52 386.851 1218.69 Q386.851 1222.3 383.981 1224.41 Q381.133 1226.52 376.133 1226.52 Q374.05 1226.52 371.782 1226.1 Q369.536 1225.71 367.036 1224.9 L367.036 1220.5 Q369.397 1221.73 371.689 1222.35 Q373.981 1222.95 376.226 1222.95 Q379.235 1222.95 380.856 1221.93 Q382.476 1220.89 382.476 1219.02 Q382.476 1217.28 381.295 1216.36 Q380.138 1215.43 376.18 1214.57 L374.698 1214.23 Q370.74 1213.39 368.981 1211.68 Q367.221 1209.94 367.221 1206.93 Q367.221 1203.28 369.814 1201.29 Q372.407 1199.3 377.175 1199.3 Q379.536 1199.3 381.619 1199.64 Q383.703 1199.99 385.462 1200.68 Z" fill="#000000" fill-rule="nonzero" fill-opacity="1" /><path clip-path="url(#clip000)" d="M393.633 1199.92 L397.893 1199.92 L397.893 1225.85 L393.633 1225.85 L393.633 1199.92 M393.633 1189.83 L397.893 1189.83 L397.893 1195.22 L393.633 1195.22 L393.633 1189.83 Z" fill="#000000" fill-rule="nonzero" fill-opacity="1" /><path clip-path="url(#clip000)" d="M428.355 1210.2 L428.355 1225.85 L424.096 1225.85 L424.096 1210.34 Q424.096 1206.66 422.661 1204.83 Q421.226 1203 418.355 1203 Q414.906 1203 412.916 1205.2 Q410.925 1207.4 410.925 1211.19 L410.925 1225.85 L406.642 1225.85 L406.642 1199.92 L410.925 1199.92 L410.925 1203.95 Q412.453 1201.61 414.513 1200.45 Q416.596 1199.3 419.304 1199.3 Q423.772 1199.3 426.064 1202.07 Q428.355 1204.83 428.355 1210.2 Z" fill="#000000" fill-rule="nonzero" fill-opacity="1" /><path clip-path="url(#clip000)" d="M447.082 1189.87 Q443.98 1195.2 442.476 1200.41 Q440.971 1205.61 440.971 1210.96 Q440.971 1216.31 442.476 1221.56 Q444.003 1226.8 447.082 1232.1 L443.378 1232.1 Q439.906 1226.66 438.17 1221.4 Q436.457 1216.15 436.457 1210.96 Q436.457 1205.8 438.17 1200.57 Q439.883 1195.34 443.378 1189.87 L447.082 1189.87 Z" fill="#000000" fill-rule="nonzero" fill-opacity="1" /><path clip-path="url(#clip000)" d="M476.897 1199.92 L467.522 1212.54 L477.383 1225.85 L472.36 1225.85 L464.813 1215.66 L457.267 1225.85 L452.244 1225.85 L462.313 1212.28 L453.101 1199.92 L458.124 1199.92 L464.999 1209.16 L471.874 1199.92 L476.897 1199.92 Z" fill="#000000" fill-rule="nonzero" fill-opacity="1" /><path clip-path="url(#clip000)" d="M482.73 1189.87 L486.434 1189.87 Q489.906 1195.34 491.619 1200.57 Q493.355 1205.8 493.355 1210.96 Q493.355 1216.15 491.619 1221.4 Q489.906 1226.66 486.434 1232.1 L482.73 1232.1 Q485.809 1226.8 487.313 1221.56 Q488.841 1216.31 488.841 1210.96 Q488.841 1205.61 487.313 1200.41 Q485.809 1195.2 482.73 1189.87 Z" fill="#000000" fill-rule="nonzero" fill-opacity="1" /><path clip-path="url(#clip000)" d="M1801.94 1300.33 L3152.76 1300.33 L3152.76 102.682 L1801.94 102.682  Z" fill="#ffffff" fill-rule="evenodd" fill-opacity="1"/>
<polyline clip-path="url(#clip001)" style="stroke:#000000; stroke-linecap:round; stroke-linejoin:round; stroke-width:2; stroke-opacity:0.1; fill:none" points="1840.17,1300.33 1840.17,102.682 "/>
<polyline clip-path="url(#clip001)" style="stroke:#000000; stroke-linecap:round; stroke-linejoin:round; stroke-width:2; stroke-opacity:0.1; fill:none" points="2042.99,1300.33 2042.99,102.682 "/>
<polyline clip-path="url(#clip001)" style="stroke:#000000; stroke-linecap:round; stroke-linejoin:round; stroke-width:2; stroke-opacity:0.1; fill:none" points="2245.81,1300.33 2245.81,102.682 "/>
<polyline clip-path="url(#clip001)" style="stroke:#000000; stroke-linecap:round; stroke-linejoin:round; stroke-width:2; stroke-opacity:0.1; fill:none" points="2448.63,1300.33 2448.63,102.682 "/>
<polyline clip-path="url(#clip001)" style="stroke:#000000; stroke-linecap:round; stroke-linejoin:round; stroke-width:2; stroke-opacity:0.1; fill:none" points="2651.45,1300.33 2651.45,102.682 "/>
<polyline clip-path="url(#clip001)" style="stroke:#000000; stroke-linecap:round; stroke-linejoin:round; stroke-width:2; stroke-opacity:0.1; fill:none" points="2854.27,1300.33 2854.27,102.682 "/>
<polyline clip-path="url(#clip001)" style="stroke:#000000; stroke-linecap:round; stroke-linejoin:round; stroke-width:2; stroke-opacity:0.1; fill:none" points="3057.09,1300.33 3057.09,102.682 "/>
<polyline clip-path="url(#clip001)" style="stroke:#000000; stroke-linecap:round; stroke-linejoin:round; stroke-width:2; stroke-opacity:0.1; fill:none" points="1801.94,1265.19 3152.76,1265.19 "/>
<polyline clip-path="url(#clip001)" style="stroke:#000000; stroke-linecap:round; stroke-linejoin:round; stroke-width:2; stroke-opacity:0.1; fill:none" points="1801.94,983.346 3152.76,983.346 "/>
<polyline clip-path="url(#clip001)" style="stroke:#000000; stroke-linecap:round; stroke-linejoin:round; stroke-width:2; stroke-opacity:0.1; fill:none" points="1801.94,701.505 3152.76,701.505 "/>
<polyline clip-path="url(#clip001)" style="stroke:#000000; stroke-linecap:round; stroke-linejoin:round; stroke-width:2; stroke-opacity:0.1; fill:none" points="1801.94,419.664 3152.76,419.664 "/>
<polyline clip-path="url(#clip001)" style="stroke:#000000; stroke-linecap:round; stroke-linejoin:round; stroke-width:2; stroke-opacity:0.1; fill:none" points="1801.94,137.824 3152.76,137.824 "/>
<polyline clip-path="url(#clip000)" style="stroke:#000000; stroke-linecap:round; stroke-linejoin:round; stroke-width:4; stroke-opacity:1; fill:none" points="1801.94,1300.33 3152.76,1300.33 "/>
<polyline clip-path="url(#clip000)" style="stroke:#000000; stroke-linecap:round; stroke-linejoin:round; stroke-width:4; stroke-opacity:1; fill:none" points="1840.17,1300.33 1840.17,1281.43 "/>
<polyline clip-path="url(#clip000)" style="stroke:#000000; stroke-linecap:round; stroke-linejoin:round; stroke-width:4; stroke-opacity:1; fill:none" points="2042.99,1300.33 2042.99,1281.43 "/>
<polyline clip-path="url(#clip000)" style="stroke:#000000; stroke-linecap:round; stroke-linejoin:round; stroke-width:4; stroke-opacity:1; fill:none" points="2245.81,1300.33 2245.81,1281.43 "/>
<polyline clip-path="url(#clip000)" style="stroke:#000000; stroke-linecap:round; stroke-linejoin:round; stroke-width:4; stroke-opacity:1; fill:none" points="2448.63,1300.33 2448.63,1281.43 "/>
<polyline clip-path="url(#clip000)" style="stroke:#000000; stroke-linecap:round; stroke-linejoin:round; stroke-width:4; stroke-opacity:1; fill:none" points="2651.45,1300.33 2651.45,1281.43 "/>
<polyline clip-path="url(#clip000)" style="stroke:#000000; stroke-linecap:round; stroke-linejoin:round; stroke-width:4; stroke-opacity:1; fill:none" points="2854.27,1300.33 2854.27,1281.43 "/>
<polyline clip-path="url(#clip000)" style="stroke:#000000; stroke-linecap:round; stroke-linejoin:round; stroke-width:4; stroke-opacity:1; fill:none" points="3057.09,1300.33 3057.09,1281.43 "/>
<path clip-path="url(#clip000)" d="M1840.17 1337.65 Q1836.56 1337.65 1834.73 1341.21 Q1832.92 1344.75 1832.92 1351.88 Q1832.92 1358.99 1834.73 1362.55 Q1836.56 1366.1 1840.17 1366.1 Q1843.8 1366.1 1845.61 1362.55 Q1847.44 1358.99 1847.44 1351.88 Q1847.44 1344.75 1845.61 1341.21 Q1843.8 1337.65 1840.17 1337.65 M1840.17 1333.94 Q1845.98 1333.94 1849.03 1338.55 Q1852.11 1343.13 1852.11 1351.88 Q1852.11 1360.61 1849.03 1365.22 Q1845.98 1369.8 1840.17 1369.8 Q1834.36 1369.8 1831.28 1365.22 Q1828.22 1360.61 1828.22 1351.88 Q1828.22 1343.13 1831.28 1338.55 Q1834.36 1333.94 1840.17 1333.94 Z" fill="#000000" fill-rule="nonzero" fill-opacity="1" /><path clip-path="url(#clip000)" d="M2033.37 1365.19 L2041.01 1365.19 L2041.01 1338.83 L2032.7 1340.49 L2032.7 1336.23 L2040.96 1334.57 L2045.64 1334.57 L2045.64 1365.19 L2053.28 1365.19 L2053.28 1369.13 L2033.37 1369.13 L2033.37 1365.19 Z" fill="#000000" fill-rule="nonzero" fill-opacity="1" /><path clip-path="url(#clip000)" d="M2240.46 1365.19 L2256.78 1365.19 L2256.78 1369.13 L2234.84 1369.13 L2234.84 1365.19 Q2237.5 1362.44 2242.08 1357.81 Q2246.69 1353.16 2247.87 1351.81 Q2250.11 1349.29 2250.99 1347.55 Q2251.9 1345.79 2251.9 1344.1 Q2251.9 1341.35 2249.95 1339.61 Q2248.03 1337.88 2244.93 1337.88 Q2242.73 1337.88 2240.28 1338.64 Q2237.84 1339.41 2235.07 1340.96 L2235.07 1336.23 Q2237.89 1335.1 2240.34 1334.52 Q2242.8 1333.94 2244.84 1333.94 Q2250.21 1333.94 2253.4 1336.63 Q2256.59 1339.31 2256.59 1343.8 Q2256.59 1345.93 2255.78 1347.85 Q2255 1349.75 2252.89 1352.35 Q2252.31 1353.02 2249.21 1356.23 Q2246.11 1359.43 2240.46 1365.19 Z" fill="#000000" fill-rule="nonzero" fill-opacity="1" /><path clip-path="url(#clip000)" d="M2452.88 1350.49 Q2456.23 1351.21 2458.11 1353.48 Q2460.01 1355.75 2460.01 1359.08 Q2460.01 1364.2 2456.49 1367 Q2452.97 1369.8 2446.49 1369.8 Q2444.31 1369.8 2442 1369.36 Q2439.7 1368.94 2437.25 1368.09 L2437.25 1363.57 Q2439.2 1364.71 2441.51 1365.29 Q2443.82 1365.86 2446.35 1365.86 Q2450.75 1365.86 2453.04 1364.13 Q2455.35 1362.39 2455.35 1359.08 Q2455.35 1356.03 2453.2 1354.31 Q2451.07 1352.58 2447.25 1352.58 L2443.22 1352.58 L2443.22 1348.73 L2447.44 1348.73 Q2450.88 1348.73 2452.71 1347.37 Q2454.54 1345.98 2454.54 1343.39 Q2454.54 1340.73 2452.64 1339.31 Q2450.77 1337.88 2447.25 1337.88 Q2445.33 1337.88 2443.13 1338.29 Q2440.93 1338.71 2438.29 1339.59 L2438.29 1335.42 Q2440.95 1334.68 2443.27 1334.31 Q2445.61 1333.94 2447.67 1333.94 Q2452.99 1333.94 2456.09 1336.37 Q2459.2 1338.78 2459.2 1342.9 Q2459.2 1345.77 2457.55 1347.76 Q2455.91 1349.73 2452.88 1350.49 Z" fill="#000000" fill-rule="nonzero" fill-opacity="1" /><path clip-path="url(#clip000)" d="M2654.46 1338.64 L2642.65 1357.09 L2654.46 1357.09 L2654.46 1338.64 M2653.23 1334.57 L2659.11 1334.57 L2659.11 1357.09 L2664.04 1357.09 L2664.04 1360.98 L2659.11 1360.98 L2659.11 1369.13 L2654.46 1369.13 L2654.46 1360.98 L2638.86 1360.98 L2638.86 1356.47 L2653.23 1334.57 Z" fill="#000000" fill-rule="nonzero" fill-opacity="1" /><path clip-path="url(#clip000)" d="M2844.55 1334.57 L2862.9 1334.57 L2862.9 1338.5 L2848.83 1338.5 L2848.83 1346.98 Q2849.85 1346.63 2850.87 1346.47 Q2851.88 1346.28 2852.9 1346.28 Q2858.69 1346.28 2862.07 1349.45 Q2865.45 1352.62 2865.45 1358.04 Q2865.45 1363.62 2861.98 1366.72 Q2858.51 1369.8 2852.19 1369.8 Q2850.01 1369.8 2847.74 1369.43 Q2845.5 1369.06 2843.09 1368.32 L2843.09 1363.62 Q2845.17 1364.75 2847.39 1365.31 Q2849.62 1365.86 2852.09 1365.86 Q2856.1 1365.86 2858.44 1363.76 Q2860.77 1361.65 2860.77 1358.04 Q2860.77 1354.43 2858.44 1352.32 Q2856.1 1350.22 2852.09 1350.22 Q2850.22 1350.22 2848.34 1350.63 Q2846.49 1351.05 2844.55 1351.93 L2844.55 1334.57 Z" fill="#000000" fill-rule="nonzero" fill-opacity="1" /><path clip-path="url(#clip000)" d="M3057.49 1349.98 Q3054.35 1349.98 3052.49 1352.14 Q3050.67 1354.29 3050.67 1358.04 Q3050.67 1361.77 3052.49 1363.94 Q3054.35 1366.1 3057.49 1366.1 Q3060.64 1366.1 3062.47 1363.94 Q3064.32 1361.77 3064.32 1358.04 Q3064.32 1354.29 3062.47 1352.14 Q3060.64 1349.98 3057.49 1349.98 M3066.78 1335.33 L3066.78 1339.59 Q3065.02 1338.76 3063.21 1338.32 Q3061.43 1337.88 3059.67 1337.88 Q3055.04 1337.88 3052.59 1341 Q3050.16 1344.13 3049.81 1350.45 Q3051.18 1348.43 3053.24 1347.37 Q3055.3 1346.28 3057.77 1346.28 Q3062.98 1346.28 3065.99 1349.45 Q3069.02 1352.6 3069.02 1358.04 Q3069.02 1363.36 3065.87 1366.58 Q3062.73 1369.8 3057.49 1369.8 Q3051.5 1369.8 3048.33 1365.22 Q3045.16 1360.61 3045.16 1351.88 Q3045.16 1343.69 3049.05 1338.83 Q3052.93 1333.94 3059.49 1333.94 Q3061.24 1333.94 3063.03 1334.29 Q3064.83 1334.64 3066.78 1335.33 Z" fill="#000000" fill-rule="nonzero" fill-opacity="1" /><polyline clip-path="url(#clip000)" style="stroke:#000000; stroke-linecap:round; stroke-linejoin:round; stroke-width:4; stroke-opacity:1; fill:none" points="1801.94,1300.33 1801.94,102.682 "/>
<polyline clip-path="url(#clip000)" style="stroke:#000000; stroke-linecap:round; stroke-linejoin:round; stroke-width:4; stroke-opacity:1; fill:none" points="1801.94,1265.19 1820.83,1265.19 "/>
<polyline clip-path="url(#clip000)" style="stroke:#000000; stroke-linecap:round; stroke-linejoin:round; stroke-width:4; stroke-opacity:1; fill:none" points="1801.94,983.346 1820.83,983.346 "/>
<polyline clip-path="url(#clip000)" style="stroke:#000000; stroke-linecap:round; stroke-linejoin:round; stroke-width:4; stroke-opacity:1; fill:none" points="1801.94,701.505 1820.83,701.505 "/>
<polyline clip-path="url(#clip000)" style="stroke:#000000; stroke-linecap:round; stroke-linejoin:round; stroke-width:4; stroke-opacity:1; fill:none" points="1801.94,419.664 1820.83,419.664 "/>
<polyline clip-path="url(#clip000)" style="stroke:#000000; stroke-linecap:round; stroke-linejoin:round; stroke-width:4; stroke-opacity:1; fill:none" points="1801.94,137.824 1820.83,137.824 "/>
<path clip-path="url(#clip000)" d="M1646.99 1265.64 L1676.67 1265.64 L1676.67 1269.57 L1646.99 1269.57 L1646.99 1265.64 Z" fill="#000000" fill-rule="nonzero" fill-opacity="1" /><path clip-path="url(#clip000)" d="M1687.57 1278.53 L1695.21 1278.53 L1695.21 1252.17 L1686.9 1253.83 L1686.9 1249.57 L1695.16 1247.91 L1699.84 1247.91 L1699.84 1278.53 L1707.48 1278.53 L1707.48 1282.47 L1687.57 1282.47 L1687.57 1278.53 Z" fill="#000000" fill-rule="nonzero" fill-opacity="1" /><path clip-path="url(#clip000)" d="M1716.92 1276.59 L1721.81 1276.59 L1721.81 1282.47 L1716.92 1282.47 L1716.92 1276.59 Z" fill="#000000" fill-rule="nonzero" fill-opacity="1" /><path clip-path="url(#clip000)" d="M1741.99 1250.98 Q1738.38 1250.98 1736.55 1254.55 Q1734.75 1258.09 1734.75 1265.22 Q1734.75 1272.33 1736.55 1275.89 Q1738.38 1279.43 1741.99 1279.43 Q1745.63 1279.43 1747.43 1275.89 Q1749.26 1272.33 1749.26 1265.22 Q1749.26 1258.09 1747.43 1254.55 Q1745.63 1250.98 1741.99 1250.98 M1741.99 1247.28 Q1747.8 1247.28 1750.86 1251.89 Q1753.94 1256.47 1753.94 1265.22 Q1753.94 1273.95 1750.86 1278.55 Q1747.8 1283.14 1741.99 1283.14 Q1736.18 1283.14 1733.1 1278.55 Q1730.05 1273.95 1730.05 1265.22 Q1730.05 1256.47 1733.1 1251.89 Q1736.18 1247.28 1741.99 1247.28 Z" fill="#000000" fill-rule="nonzero" fill-opacity="1" /><path clip-path="url(#clip000)" d="M1647.99 983.797 L1677.66 983.797 L1677.66 987.732 L1647.99 987.732 L1647.99 983.797 Z" fill="#000000" fill-rule="nonzero" fill-opacity="1" /><path clip-path="url(#clip000)" d="M1697.76 969.144 Q1694.14 969.144 1692.32 972.709 Q1690.51 976.251 1690.51 983.38 Q1690.51 990.487 1692.32 994.052 Q1694.14 997.593 1697.76 997.593 Q1701.39 997.593 1703.2 994.052 Q1705.02 990.487 1705.02 983.38 Q1705.02 976.251 1703.2 972.709 Q1701.39 969.144 1697.76 969.144 M1697.76 965.441 Q1703.57 965.441 1706.62 970.047 Q1709.7 974.63 1709.7 983.38 Q1709.7 992.107 1706.62 996.714 Q1703.57 1001.3 1697.76 1001.3 Q1691.95 1001.3 1688.87 996.714 Q1685.81 992.107 1685.81 983.38 Q1685.81 974.63 1688.87 970.047 Q1691.95 965.441 1697.76 965.441 Z" fill="#000000" fill-rule="nonzero" fill-opacity="1" /><path clip-path="url(#clip000)" d="M1717.92 994.746 L1722.8 994.746 L1722.8 1000.63 L1717.92 1000.63 L1717.92 994.746 Z" fill="#000000" fill-rule="nonzero" fill-opacity="1" /><path clip-path="url(#clip000)" d="M1733.03 966.066 L1751.39 966.066 L1751.39 970.001 L1737.32 970.001 L1737.32 978.473 Q1738.33 978.126 1739.35 977.964 Q1740.37 977.778 1741.39 977.778 Q1747.18 977.778 1750.56 980.95 Q1753.94 984.121 1753.94 989.538 Q1753.94 995.116 1750.46 998.218 Q1746.99 1001.3 1740.67 1001.3 Q1738.5 1001.3 1736.23 1000.93 Q1733.98 1000.56 1731.58 999.815 L1731.58 995.116 Q1733.66 996.251 1735.88 996.806 Q1738.1 997.362 1740.58 997.362 Q1744.58 997.362 1746.92 995.255 Q1749.26 993.149 1749.26 989.538 Q1749.26 985.927 1746.92 983.82 Q1744.58 981.714 1740.58 981.714 Q1738.7 981.714 1736.83 982.13 Q1734.98 982.547 1733.03 983.427 L1733.03 966.066 Z" fill="#000000" fill-rule="nonzero" fill-opacity="1" /><path clip-path="url(#clip000)" d="M1696.76 687.304 Q1693.15 687.304 1691.32 690.868 Q1689.52 694.41 1689.52 701.54 Q1689.52 708.646 1691.32 712.211 Q1693.15 715.753 1696.76 715.753 Q1700.39 715.753 1702.2 712.211 Q1704.03 708.646 1704.03 701.54 Q1704.03 694.41 1702.2 690.868 Q1700.39 687.304 1696.76 687.304 M1696.76 683.6 Q1702.57 683.6 1705.63 688.206 Q1708.7 692.79 1708.7 701.54 Q1708.7 710.267 1705.63 714.873 Q1702.57 719.456 1696.76 719.456 Q1690.95 719.456 1687.87 714.873 Q1684.82 710.267 1684.82 701.54 Q1684.82 692.79 1687.87 688.206 Q1690.95 683.6 1696.76 683.6 Z" fill="#000000" fill-rule="nonzero" fill-opacity="1" /><path clip-path="url(#clip000)" d="M1716.92 712.905 L1721.81 712.905 L1721.81 718.785 L1716.92 718.785 L1716.92 712.905 Z" fill="#000000" fill-rule="nonzero" fill-opacity="1" /><path clip-path="url(#clip000)" d="M1741.99 687.304 Q1738.38 687.304 1736.55 690.868 Q1734.75 694.41 1734.75 701.54 Q1734.75 708.646 1736.55 712.211 Q1738.38 715.753 1741.99 715.753 Q1745.63 715.753 1747.43 712.211 Q1749.26 708.646 1749.26 701.54 Q1749.26 694.41 1747.43 690.868 Q1745.63 687.304 1741.99 687.304 M1741.99 683.6 Q1747.8 683.6 1750.86 688.206 Q1753.94 692.79 1753.94 701.54 Q1753.94 710.267 1750.86 714.873 Q1747.8 719.456 1741.99 719.456 Q1736.18 719.456 1733.1 714.873 Q1730.05 710.267 1730.05 701.54 Q1730.05 692.79 1733.1 688.206 Q1736.18 683.6 1741.99 683.6 Z" fill="#000000" fill-rule="nonzero" fill-opacity="1" /><path clip-path="url(#clip000)" d="M1697.76 405.463 Q1694.14 405.463 1692.32 409.028 Q1690.51 412.57 1690.51 419.699 Q1690.51 426.806 1692.32 430.37 Q1694.14 433.912 1697.76 433.912 Q1701.39 433.912 1703.2 430.37 Q1705.02 426.806 1705.02 419.699 Q1705.02 412.57 1703.2 409.028 Q1701.39 405.463 1697.76 405.463 M1697.76 401.759 Q1703.57 401.759 1706.62 406.366 Q1709.7 410.949 1709.7 419.699 Q1709.7 428.426 1706.62 433.032 Q1703.57 437.616 1697.76 437.616 Q1691.95 437.616 1688.87 433.032 Q1685.81 428.426 1685.81 419.699 Q1685.81 410.949 1688.87 406.366 Q1691.95 401.759 1697.76 401.759 Z" fill="#000000" fill-rule="nonzero" fill-opacity="1" /><path clip-path="url(#clip000)" d="M1717.92 431.065 L1722.8 431.065 L1722.8 436.944 L1717.92 436.944 L1717.92 431.065 Z" fill="#000000" fill-rule="nonzero" fill-opacity="1" /><path clip-path="url(#clip000)" d="M1733.03 402.384 L1751.39 402.384 L1751.39 406.32 L1737.32 406.32 L1737.32 414.792 Q1738.33 414.445 1739.35 414.282 Q1740.37 414.097 1741.39 414.097 Q1747.18 414.097 1750.56 417.269 Q1753.94 420.44 1753.94 425.857 Q1753.94 431.435 1750.46 434.537 Q1746.99 437.616 1740.67 437.616 Q1738.5 437.616 1736.23 437.245 Q1733.98 436.875 1731.58 436.134 L1731.58 431.435 Q1733.66 432.569 1735.88 433.125 Q1738.1 433.681 1740.58 433.681 Q1744.58 433.681 1746.92 431.574 Q1749.26 429.468 1749.26 425.857 Q1749.26 422.245 1746.92 420.139 Q1744.58 418.032 1740.58 418.032 Q1738.7 418.032 1736.83 418.449 Q1734.98 418.866 1733.03 419.745 L1733.03 402.384 Z" fill="#000000" fill-rule="nonzero" fill-opacity="1" /><path clip-path="url(#clip000)" d="M1687.57 151.169 L1695.21 151.169 L1695.21 124.803 L1686.9 126.47 L1686.9 122.21 L1695.16 120.544 L1699.84 120.544 L1699.84 151.169 L1707.48 151.169 L1707.48 155.104 L1687.57 155.104 L1687.57 151.169 Z" fill="#000000" fill-rule="nonzero" fill-opacity="1" /><path clip-path="url(#clip000)" d="M1716.92 149.224 L1721.81 149.224 L1721.81 155.104 L1716.92 155.104 L1716.92 149.224 Z" fill="#000000" fill-rule="nonzero" fill-opacity="1" /><path clip-path="url(#clip000)" d="M1741.99 123.623 Q1738.38 123.623 1736.55 127.187 Q1734.75 130.729 1734.75 137.859 Q1734.75 144.965 1736.55 148.53 Q1738.38 152.071 1741.99 152.071 Q1745.63 152.071 1747.43 148.53 Q1749.26 144.965 1749.26 137.859 Q1749.26 130.729 1747.43 127.187 Q1745.63 123.623 1741.99 123.623 M1741.99 119.919 Q1747.8 119.919 1750.86 124.525 Q1753.94 129.109 1753.94 137.859 Q1753.94 146.585 1750.86 151.192 Q1747.8 155.775 1741.99 155.775 Q1736.18 155.775 1733.1 151.192 Q1730.05 146.585 1730.05 137.859 Q1730.05 129.109 1733.1 124.525 Q1736.18 119.919 1741.99 119.919 Z" fill="#000000" fill-rule="nonzero" fill-opacity="1" /><path clip-path="url(#clip000)" d="M2049.19 44.2197 Q2051.82 45.1109 2054.29 48.0275 Q2056.8 50.9442 2059.31 56.0483 L2067.62 72.576 L2058.83 72.576 L2051.09 57.061 Q2048.09 50.9847 2045.26 48.9997 Q2042.46 47.0148 2037.6 47.0148 L2028.69 47.0148 L2028.69 72.576 L2020.51 72.576 L2020.51 12.096 L2038.98 12.096 Q2049.35 12.096 2054.45 16.4305 Q2059.56 20.7649 2059.56 29.5149 Q2059.56 35.2267 2056.88 38.994 Q2054.25 42.7613 2049.19 44.2197 M2028.69 18.8205 L2028.69 40.2903 L2038.98 40.2903 Q2044.89 40.2903 2047.89 37.5762 Q2050.93 34.8216 2050.93 29.5149 Q2050.93 24.2082 2047.89 21.5346 Q2044.89 18.8205 2038.98 18.8205 L2028.69 18.8205 Z" fill="#000000" fill-rule="nonzero" fill-opacity="1" /><path clip-path="url(#clip000)" d="M2077.83 27.2059 L2085.28 27.2059 L2085.28 72.576 L2077.83 72.576 L2077.83 27.2059 M2077.83 9.54393 L2085.28 9.54393 L2085.28 18.9825 L2077.83 18.9825 L2077.83 9.54393 Z" fill="#000000" fill-rule="nonzero" fill-opacity="1" /><path clip-path="url(#clip000)" d="M2130.73 49.3643 Q2130.73 41.2625 2127.37 36.8065 Q2124.05 32.3505 2118.01 32.3505 Q2112.02 32.3505 2108.65 36.8065 Q2105.33 41.2625 2105.33 49.3643 Q2105.33 57.4256 2108.65 61.8816 Q2112.02 66.3376 2118.01 66.3376 Q2124.05 66.3376 2127.37 61.8816 Q2130.73 57.4256 2130.73 49.3643 M2138.18 66.9452 Q2138.18 78.5308 2133.04 84.1616 Q2127.89 89.8329 2117.28 89.8329 Q2113.35 89.8329 2109.87 89.2252 Q2106.38 88.6581 2103.1 87.4428 L2103.1 80.1917 Q2106.38 81.9741 2109.58 82.8248 Q2112.78 83.6755 2116.11 83.6755 Q2123.44 83.6755 2127.08 79.8271 Q2130.73 76.0193 2130.73 68.282 L2130.73 64.5957 Q2128.42 68.6061 2124.82 70.5911 Q2121.21 72.576 2116.19 72.576 Q2107.84 72.576 2102.74 66.2161 Q2097.63 59.8562 2097.63 49.3643 Q2097.63 38.832 2102.74 32.472 Q2107.84 26.1121 2116.19 26.1121 Q2121.21 26.1121 2124.82 28.0971 Q2128.42 30.082 2130.73 34.0924 L2130.73 27.2059 L2138.18 27.2059 L2138.18 66.9452 Z" fill="#000000" fill-rule="nonzero" fill-opacity="1" /><path clip-path="url(#clip000)" d="M2191.25 45.1919 L2191.25 72.576 L2183.8 72.576 L2183.8 45.4349 Q2183.8 38.994 2181.29 35.7938 Q2178.77 32.5936 2173.75 32.5936 Q2167.72 32.5936 2164.23 36.4419 Q2160.75 40.2903 2160.75 46.9338 L2160.75 72.576 L2153.25 72.576 L2153.25 9.54393 L2160.75 9.54393 L2160.75 34.2544 Q2163.42 30.163 2167.03 28.1376 Q2170.67 26.1121 2175.41 26.1121 Q2183.23 26.1121 2187.24 30.9732 Q2191.25 35.7938 2191.25 45.1919 Z" fill="#000000" fill-rule="nonzero" fill-opacity="1" /><path clip-path="url(#clip000)" d="M2213.49 14.324 L2213.49 27.2059 L2228.84 27.2059 L2228.84 32.9987 L2213.49 32.9987 L2213.49 57.6282 Q2213.49 63.1779 2214.99 64.7578 Q2216.53 66.3376 2221.19 66.3376 L2228.84 66.3376 L2228.84 72.576 L2221.19 72.576 Q2212.56 72.576 2209.28 69.3758 Q2206 66.1351 2206 57.6282 L2206 32.9987 L2200.53 32.9987 L2200.53 27.2059 L2206 27.2059 L2206 14.324 L2213.49 14.324 Z" fill="#000000" fill-rule="nonzero" fill-opacity="1" /><path clip-path="url(#clip000)" d="M2256.55 9.62495 Q2251.12 18.942 2248.49 28.0566 Q2245.86 37.1711 2245.86 46.5287 Q2245.86 55.8863 2248.49 65.0818 Q2251.16 74.2369 2256.55 83.5134 L2250.07 83.5134 Q2243.99 73.9938 2240.96 64.7983 Q2237.96 55.6027 2237.96 46.5287 Q2237.96 37.4952 2240.96 28.3401 Q2243.95 19.1851 2250.07 9.62495 L2256.55 9.62495 Z" fill="#000000" fill-rule="nonzero" fill-opacity="1" /><path clip-path="url(#clip000)" d="M2279.52 18.8205 L2279.52 65.8515 L2289.4 65.8515 Q2301.92 65.8515 2307.71 60.1802 Q2313.55 54.509 2313.55 42.2752 Q2313.55 30.1225 2307.71 24.4918 Q2301.92 18.8205 2289.4 18.8205 L2279.52 18.8205 M2271.34 12.096 L2288.15 12.096 Q2305.73 12.096 2313.95 19.4281 Q2322.18 26.7198 2322.18 42.2752 Q2322.18 57.9117 2313.91 65.2439 Q2305.65 72.576 2288.15 72.576 L2271.34 72.576 L2271.34 12.096 Z" fill="#000000" fill-rule="nonzero" fill-opacity="1" /><path clip-path="url(#clip000)" d="M2373.7 48.0275 L2373.7 51.6733 L2339.43 51.6733 Q2339.92 59.3701 2344.05 63.421 Q2348.22 67.4314 2355.64 67.4314 Q2359.93 67.4314 2363.94 66.3781 Q2367.99 65.3249 2371.96 63.2184 L2371.96 70.267 Q2367.95 71.9684 2363.74 72.8596 Q2359.53 73.7508 2355.19 73.7508 Q2344.33 73.7508 2337.97 67.4314 Q2331.66 61.1119 2331.66 50.3365 Q2331.66 39.1965 2337.65 32.6746 Q2343.69 26.1121 2353.89 26.1121 Q2363.05 26.1121 2368.36 32.0264 Q2373.7 37.9003 2373.7 48.0275 M2366.25 45.84 Q2366.17 39.7232 2362.81 36.0774 Q2359.48 32.4315 2353.98 32.4315 Q2347.74 32.4315 2343.97 35.9558 Q2340.24 39.4801 2339.68 45.8805 L2366.25 45.84 Z" fill="#000000" fill-rule="nonzero" fill-opacity="1" /><path clip-path="url(#clip000)" d="M2412.23 34.1734 Q2410.97 33.4443 2409.47 33.1202 Q2408.01 32.7556 2406.23 32.7556 Q2399.91 32.7556 2396.51 36.8875 Q2393.15 40.9789 2393.15 48.6757 L2393.15 72.576 L2385.65 72.576 L2385.65 27.2059 L2393.15 27.2059 L2393.15 34.2544 Q2395.5 30.1225 2399.26 28.1376 Q2403.03 26.1121 2408.42 26.1121 Q2409.19 26.1121 2410.12 26.2337 Q2411.05 26.3147 2412.19 26.5172 L2412.23 34.1734 Z" fill="#000000" fill-rule="nonzero" fill-opacity="1" /><path clip-path="url(#clip000)" d="M2420.05 27.2059 L2427.5 27.2059 L2427.5 72.576 L2420.05 72.576 L2420.05 27.2059 M2420.05 9.54393 L2427.5 9.54393 L2427.5 18.9825 L2420.05 18.9825 L2420.05 9.54393 Z" fill="#000000" fill-rule="nonzero" fill-opacity="1" /><path clip-path="url(#clip000)" d="M2437.75 27.2059 L2445.65 27.2059 L2459.83 65.2844 L2474 27.2059 L2481.9 27.2059 L2464.89 72.576 L2454.76 72.576 L2437.75 27.2059 Z" fill="#000000" fill-rule="nonzero" fill-opacity="1" /><path clip-path="url(#clip000)" d="M2494.66 65.6895 L2508.03 65.6895 L2508.03 19.5497 L2493.49 22.4663 L2493.49 15.0127 L2507.95 12.096 L2516.13 12.096 L2516.13 65.6895 L2529.5 65.6895 L2529.5 72.576 L2494.66 72.576 L2494.66 65.6895 Z" fill="#000000" fill-rule="nonzero" fill-opacity="1" /><path clip-path="url(#clip000)" d="M2562.88 9.62495 Q2557.45 18.942 2554.82 28.0566 Q2552.19 37.1711 2552.19 46.5287 Q2552.19 55.8863 2554.82 65.0818 Q2557.49 74.2369 2562.88 83.5134 L2556.4 83.5134 Q2550.32 73.9938 2547.28 64.7983 Q2544.29 55.6027 2544.29 46.5287 Q2544.29 37.4952 2547.28 28.3401 Q2550.28 19.1851 2556.4 9.62495 L2562.88 9.62495 Z" fill="#000000" fill-rule="nonzero" fill-opacity="1" /><path clip-path="url(#clip000)" d="M2609.99 28.9478 L2609.99 35.9153 Q2606.83 34.1734 2603.63 33.3227 Q2600.47 32.4315 2597.23 32.4315 Q2589.98 32.4315 2585.97 37.0496 Q2581.96 41.6271 2581.96 49.9314 Q2581.96 58.2358 2585.97 62.8538 Q2589.98 67.4314 2597.23 67.4314 Q2600.47 67.4314 2603.63 66.5807 Q2606.83 65.6895 2609.99 63.9476 L2609.99 70.8341 Q2606.87 72.2924 2603.51 73.0216 Q2600.19 73.7508 2596.42 73.7508 Q2586.17 73.7508 2580.14 67.3098 Q2574.1 60.8689 2574.1 49.9314 Q2574.1 38.832 2580.18 32.472 Q2586.3 26.1121 2596.91 26.1121 Q2600.35 26.1121 2603.63 26.8413 Q2606.91 27.5299 2609.99 28.9478 Z" fill="#000000" fill-rule="nonzero" fill-opacity="1" /><path clip-path="url(#clip000)" d="M2640.54 32.4315 Q2634.54 32.4315 2631.06 37.1306 Q2627.57 41.7891 2627.57 49.9314 Q2627.57 58.0738 2631.02 62.7728 Q2634.5 67.4314 2640.54 67.4314 Q2646.49 67.4314 2649.98 62.7323 Q2653.46 58.0333 2653.46 49.9314 Q2653.46 41.8701 2649.98 37.1711 Q2646.49 32.4315 2640.54 32.4315 M2640.54 26.1121 Q2650.26 26.1121 2655.81 32.4315 Q2661.36 38.7509 2661.36 49.9314 Q2661.36 61.0714 2655.81 67.4314 Q2650.26 73.7508 2640.54 73.7508 Q2630.77 73.7508 2625.22 67.4314 Q2619.71 61.0714 2619.71 49.9314 Q2619.71 38.7509 2625.22 32.4315 Q2630.77 26.1121 2640.54 26.1121 Z" fill="#000000" fill-rule="nonzero" fill-opacity="1" /><path clip-path="url(#clip000)" d="M2702.64 28.5427 L2702.64 35.5912 Q2699.48 33.9709 2696.07 33.1607 Q2692.67 32.3505 2689.03 32.3505 Q2683.48 32.3505 2680.68 34.0519 Q2677.93 35.7533 2677.93 39.156 Q2677.93 41.7486 2679.91 43.2475 Q2681.9 44.7058 2687.89 46.0426 L2690.44 46.6097 Q2698.38 48.3111 2701.71 51.4303 Q2705.07 54.509 2705.07 60.0587 Q2705.07 66.3781 2700.04 70.0644 Q2695.06 73.7508 2686.31 73.7508 Q2682.67 73.7508 2678.7 73.0216 Q2674.77 72.3329 2670.39 70.9151 L2670.39 63.2184 Q2674.52 65.3654 2678.53 66.4591 Q2682.54 67.5124 2686.47 67.5124 Q2691.74 67.5124 2694.58 65.73 Q2697.41 63.9071 2697.41 60.6258 Q2697.41 57.5877 2695.35 55.9673 Q2693.32 54.3469 2686.39 52.8481 L2683.8 52.2405 Q2676.87 50.7821 2673.79 47.7845 Q2670.72 44.7463 2670.72 39.4801 Q2670.72 33.0797 2675.25 29.5959 Q2679.79 26.1121 2688.13 26.1121 Q2692.27 26.1121 2695.91 26.7198 Q2699.56 27.3274 2702.64 28.5427 Z" fill="#000000" fill-rule="nonzero" fill-opacity="1" /><path clip-path="url(#clip000)" d="M2734.84 9.62495 Q2729.41 18.942 2726.78 28.0566 Q2724.15 37.1711 2724.15 46.5287 Q2724.15 55.8863 2726.78 65.0818 Q2729.45 74.2369 2734.84 83.5134 L2728.36 83.5134 Q2722.28 73.9938 2719.25 64.7983 Q2716.25 55.6027 2716.25 46.5287 Q2716.25 37.4952 2719.25 28.3401 Q2722.24 19.1851 2728.36 9.62495 L2734.84 9.62495 Z" fill="#000000" fill-rule="nonzero" fill-opacity="1" /><path clip-path="url(#clip000)" d="M2757.41 65.6895 L2785.96 65.6895 L2785.96 72.576 L2747.56 72.576 L2747.56 65.6895 Q2752.22 60.8689 2760.24 52.7671 Q2768.3 44.6248 2770.37 42.2752 Q2774.3 37.8598 2775.84 34.8216 Q2777.42 31.7429 2777.42 28.7857 Q2777.42 23.9651 2774.01 20.927 Q2770.65 17.8888 2765.22 17.8888 Q2761.38 17.8888 2757.08 19.2256 Q2752.83 20.5624 2747.97 23.2765 L2747.97 15.0127 Q2752.91 13.0277 2757.2 12.015 Q2761.5 11.0023 2765.06 11.0023 Q2774.46 11.0023 2780.05 15.7013 Q2785.64 20.4004 2785.64 28.2591 Q2785.64 31.9859 2784.22 35.3482 Q2782.84 38.6699 2779.16 43.2069 Q2778.15 44.3817 2772.72 50.0125 Q2767.29 55.6027 2757.41 65.6895 Z" fill="#000000" fill-rule="nonzero" fill-opacity="1" /><path clip-path="url(#clip000)" d="M2797.27 27.2059 L2840.73 27.2059 L2840.73 34.6595 L2835.02 34.6595 L2835.02 62.5298 Q2835.02 65.4464 2835.99 66.7427 Q2837.01 67.9985 2839.23 67.9985 Q2839.84 67.9985 2840.73 67.9175 Q2841.62 67.7959 2841.91 67.7554 L2841.91 73.1431 Q2840.49 73.6697 2838.99 73.9128 Q2837.49 74.1559 2835.99 74.1559 Q2831.13 74.1559 2829.27 71.5228 Q2827.4 68.8492 2827.4 61.7196 L2827.4 34.6595 L2810.67 34.6595 L2810.67 72.576 L2803.06 72.576 L2803.06 34.6595 L2797.27 34.6595 L2797.27 27.2059 Z" fill="#000000" fill-rule="nonzero" fill-opacity="1" /><path clip-path="url(#clip000)" d="M2850.86 9.62495 L2857.34 9.62495 Q2863.42 19.1851 2866.42 28.3401 Q2869.45 37.4952 2869.45 46.5287 Q2869.45 55.6027 2866.42 64.7983 Q2863.42 73.9938 2857.34 83.5134 L2850.86 83.5134 Q2856.25 74.2369 2858.88 65.0818 Q2861.55 55.8863 2861.55 46.5287 Q2861.55 37.1711 2858.88 28.0566 Q2856.25 18.942 2850.86 9.62495 Z" fill="#000000" fill-rule="nonzero" fill-opacity="1" /><path clip-path="url(#clip000)" d="M2883.23 9.62495 L2889.71 9.62495 Q2895.78 19.1851 2898.78 28.3401 Q2901.82 37.4952 2901.82 46.5287 Q2901.82 55.6027 2898.78 64.7983 Q2895.78 73.9938 2889.71 83.5134 L2883.23 83.5134 Q2888.61 74.2369 2891.25 65.0818 Q2893.92 55.8863 2893.92 46.5287 Q2893.92 37.1711 2891.25 28.0566 Q2888.61 18.942 2883.23 9.62495 Z" fill="#000000" fill-rule="nonzero" fill-opacity="1" /><path clip-path="url(#clip000)" d="M2915.59 9.62495 L2922.07 9.62495 Q2928.15 19.1851 2931.15 28.3401 Q2934.19 37.4952 2934.19 46.5287 Q2934.19 55.6027 2931.15 64.7983 Q2928.15 73.9938 2922.07 83.5134 L2915.59 83.5134 Q2920.98 74.2369 2923.61 65.0818 Q2926.29 55.8863 2926.29 46.5287 Q2926.29 37.1711 2923.61 28.0566 Q2920.98 18.942 2915.59 9.62495 Z" fill="#000000" fill-rule="nonzero" fill-opacity="1" /><polyline clip-path="url(#clip001)" style="stroke:#009af9; stroke-linecap:round; stroke-linejoin:round; stroke-width:8; stroke-opacity:1; fill:none" points="1840.17,701.505 1846.57,683.749 1852.97,666.076 1859.38,648.487 1865.78,630.981 1872.19,613.558 1878.59,596.218 1884.99,578.961 1891.4,561.788 1897.8,544.698 1904.2,527.691 1910.61,510.767 1917.01,493.926 1923.42,477.169 1929.82,460.495 1936.22,444.001 1942.63,427.896 1949.03,412.187 1955.44,396.874 1961.84,381.958 1968.24,367.438 1974.65,353.314 1981.05,339.587 1987.45,326.256 1993.86,313.321 2000.26,300.782 2006.67,288.64 2013.07,276.894 2019.47,265.544 2025.88,254.602 2032.28,244.122 2038.68,234.109 2045.09,224.564 2051.49,215.486 2057.9,206.877 2064.3,198.735 2070.7,191.061 2077.11,183.854 2083.51,177.116 2089.92,170.845 2096.32,165.042 2102.72,159.706 2109.13,154.839 2115.53,150.448 2121.93,146.637 2128.34,143.437 2134.74,140.845 2141.15,138.864 2147.55,137.492 2153.95,136.73 2160.36,136.578 2166.76,137.035 2173.16,138.102 2179.57,139.779 2185.97,142.065 2192.38,144.961 2198.78,148.466 2205.18,152.58 2211.59,157.214 2217.99,162.316 2224.4,167.885 2230.8,173.922 2237.2,180.427 2243.61,187.399 2250.01,194.839 2256.41,202.747 2262.82,211.123 2269.22,219.967 2275.63,229.278 2282.03,239.057 2288.43,249.304 2294.84,260.018 2301.24,271.17 2307.64,282.717 2314.05,294.662 2320.45,307.002 2326.86,319.739 2333.26,332.872 2339.66,346.401 2346.07,360.327 2352.47,374.649 2358.88,389.367 2365.28,404.481 2371.68,419.992 2378.09,435.899 2384.49,452.202 2390.89,468.822 2397.3,485.537 2403.7,502.336 2410.11,519.218 2416.51,536.184 2422.91,553.232 2429.32,570.364 2435.72,587.579 2442.12,604.877 2448.53,622.259 2454.93,639.723 2461.34,657.271 2467.74,674.902 2474.14,692.617 2480.55,710.393 2486.95,728.108 2493.36,745.739 2499.76,763.287 2506.16,780.751 2512.57,798.133 2518.97,815.431 2525.37,832.646 2531.78,849.778 2538.18,866.826 2544.59,883.792 2550.99,900.674 2557.39,917.473 2563.8,934.188 2570.2,950.808 2576.61,967.111 2583.01,983.018 2589.41,998.529 2595.82,1013.64 2602.22,1028.36 2608.62,1042.68 2615.03,1056.61 2621.43,1070.14 2627.84,1083.27 2634.24,1096.01 2640.64,1108.35 2647.05,1120.29 2653.45,1131.84 2659.85,1142.99 2666.26,1153.71 2672.66,1163.95 2679.07,1173.73 2685.47,1183.04 2691.87,1191.89 2698.28,1200.26 2704.68,1208.17 2711.09,1215.61 2717.49,1222.58 2723.89,1229.09 2730.3,1235.13 2736.7,1240.69 2743.1,1245.8 2749.51,1250.43 2755.91,1254.54 2762.32,1258.05 2768.72,1260.95 2775.12,1263.23 2781.53,1264.91 2787.93,1265.97 2794.33,1266.43 2800.74,1266.28 2807.14,1265.52 2813.55,1264.15 2819.95,1262.16 2826.35,1259.57 2832.76,1256.37 2839.16,1252.56 2845.57,1248.17 2851.97,1243.3 2858.37,1237.97 2864.78,1232.17 2871.18,1225.89 2877.58,1219.16 2883.99,1211.95 2890.39,1204.28 2896.8,1196.13 2903.2,1187.52 2909.6,1178.45 2916.01,1168.9 2922.41,1158.89 2928.81,1148.41 2935.22,1137.47 2941.62,1126.12 2948.03,1114.37 2954.43,1102.23 2960.83,1089.69 2967.24,1076.75 2973.64,1063.42 2980.05,1049.7 2986.45,1035.57 2992.85,1021.05 2999.26,1006.14 3005.66,990.823 3012.06,975.114 3018.47,959.009 3024.87,942.515 3031.28,925.841 3037.68,909.084 3044.08,892.243 3050.49,875.319 3056.89,858.312 3063.29,841.222 3069.7,824.049 3076.1,806.792 3082.51,789.452 3088.91,772.029 3095.31,754.523 3101.72,736.934 3108.12,719.261 3114.53,701.505 "/>
<circle clip-path="url(#clip001)" cx="1840.17" cy="701.505" r="18" fill="#000000" fill-rule="evenodd" fill-opacity="1" stroke="none"/>
<circle clip-path="url(#clip001)" cx="1931.19" cy="456.933" r="18" fill="#000000" fill-rule="evenodd" fill-opacity="1" stroke="none"/>
<circle clip-path="url(#clip001)" cx="2022.22" cy="260.801" r="18" fill="#000000" fill-rule="evenodd" fill-opacity="1" stroke="none"/>
<circle clip-path="url(#clip001)" cx="2113.24" cy="151.956" r="18" fill="#000000" fill-rule="evenodd" fill-opacity="1" stroke="none"/>
<circle clip-path="url(#clip001)" cx="2204.27" cy="151.956" r="18" fill="#000000" fill-rule="evenodd" fill-opacity="1" stroke="none"/>
<circle clip-path="url(#clip001)" cx="2295.29" cy="260.801" r="18" fill="#000000" fill-rule="evenodd" fill-opacity="1" stroke="none"/>
<circle clip-path="url(#clip001)" cx="2386.32" cy="456.933" r="18" fill="#000000" fill-rule="evenodd" fill-opacity="1" stroke="none"/>
<circle clip-path="url(#clip001)" cx="2477.35" cy="701.505" r="18" fill="#000000" fill-rule="evenodd" fill-opacity="1" stroke="none"/>
<circle clip-path="url(#clip001)" cx="2568.37" cy="946.077" r="18" fill="#000000" fill-rule="evenodd" fill-opacity="1" stroke="none"/>
<circle clip-path="url(#clip001)" cx="2659.4" cy="1142.21" r="18" fill="#000000" fill-rule="evenodd" fill-opacity="1" stroke="none"/>
<circle clip-path="url(#clip001)" cx="2750.42" cy="1251.05" r="18" fill="#000000" fill-rule="evenodd" fill-opacity="1" stroke="none"/>
<circle clip-path="url(#clip001)" cx="2841.45" cy="1251.05" r="18" fill="#000000" fill-rule="evenodd" fill-opacity="1" stroke="none"/>
<circle clip-path="url(#clip001)" cx="2932.47" cy="1142.21" r="18" fill="#000000" fill-rule="evenodd" fill-opacity="1" stroke="none"/>
<circle clip-path="url(#clip001)" cx="3023.5" cy="946.077" r="18" fill="#000000" fill-rule="evenodd" fill-opacity="1" stroke="none"/>
<circle clip-path="url(#clip001)" cx="3114.53" cy="701.505" r="18" fill="#000000" fill-rule="evenodd" fill-opacity="1" stroke="none"/>
<polyline clip-path="url(#clip001)" style="stroke:#3da44d; stroke-linecap:round; stroke-linejoin:round; stroke-width:4; stroke-opacity:0.5; fill:none" stroke-dasharray="16, 10" points="1840.17,701.505 1846.57,683.71 1852.97,665.934 1859.38,648.192 1865.78,630.504 1872.19,612.886 1878.59,595.357 1884.99,577.934 1891.4,560.634 1897.8,543.474 1904.2,526.472 1910.61,509.644 1917.01,493.008 1923.42,476.579 1929.82,460.375 1936.22,444.41 1942.63,428.703 1949.03,413.267 1955.44,398.118 1961.84,383.272 1968.24,368.743 1974.65,354.546 1981.05,340.695 1987.45,327.203 1993.86,314.085 2000.26,301.352 2006.67,289.019 2013.07,277.096 2019.47,265.597 2025.88,254.532 2032.28,243.913 2038.68,233.75 2045.09,224.053 2051.49,214.833 2057.9,206.097 2064.3,197.855 2070.7,190.115 2077.11,182.885 2083.51,176.172 2089.92,169.983 2096.32,164.323 2102.72,159.199 2109.13,154.615 2115.53,150.577 2121.93,147.088 2128.34,144.151 2134.74,141.77 2141.15,139.947 2147.55,138.684 2153.95,137.982 2160.36,137.841 2166.76,138.263 2173.16,139.246 2179.57,140.789 2185.97,142.891 2192.38,145.55 2198.78,148.764 2205.18,152.528 2211.59,156.839 2217.99,161.694 2224.4,167.086 2230.8,173.012 2237.2,179.464 2243.61,186.436 2250.01,193.922 2256.41,201.914 2262.82,210.404 2269.22,219.383 2275.63,228.843 2282.03,238.774 2288.43,249.167 2294.84,260.01 2301.24,271.293 2307.64,283.005 2314.05,295.135 2320.45,307.669 2326.86,320.596 2333.26,333.903 2339.66,347.576 2346.07,361.602 2352.47,375.967 2358.88,390.657 2365.28,405.656 2371.68,420.95 2378.09,436.524 2384.49,452.361 2390.89,468.448 2397.3,484.766 2403.7,501.301 2410.11,518.035 2416.51,534.952 2422.91,552.035 2429.32,569.267 2435.72,586.631 2442.12,604.11 2448.53,621.685 2454.93,639.34 2461.34,657.057 2467.74,674.819 2474.14,692.607 2480.55,710.403 2486.95,728.191 2493.36,745.953 2499.76,763.67 2506.16,781.325 2512.57,798.9 2518.97,816.379 2525.37,833.743 2531.78,850.975 2538.18,868.058 2544.59,884.975 2550.99,901.709 2557.39,918.244 2563.8,934.562 2570.2,950.649 2576.61,966.486 2583.01,982.06 2589.41,997.354 2595.82,1012.35 2602.22,1027.04 2608.62,1041.41 2615.03,1055.43 2621.43,1069.11 2627.84,1082.41 2634.24,1095.34 2640.64,1107.88 2647.05,1120 2653.45,1131.72 2659.85,1143 2666.26,1153.84 2672.66,1164.24 2679.07,1174.17 2685.47,1183.63 2691.87,1192.61 2698.28,1201.1 2704.68,1209.09 2711.09,1216.57 2717.49,1223.55 2723.89,1230 2730.3,1235.92 2736.7,1241.32 2743.1,1246.17 2749.51,1250.48 2755.91,1254.25 2762.32,1257.46 2768.72,1260.12 2775.12,1262.22 2781.53,1263.76 2787.93,1264.75 2794.33,1265.17 2800.74,1265.03 2807.14,1264.33 2813.55,1263.06 2819.95,1261.24 2826.35,1258.86 2832.76,1255.92 2839.16,1252.43 2845.57,1248.39 2851.97,1243.81 2858.37,1238.69 2864.78,1233.03 2871.18,1226.84 2877.58,1220.12 2883.99,1212.89 2890.39,1205.15 2896.8,1196.91 2903.2,1188.18 2909.6,1178.96 2916.01,1169.26 2922.41,1159.1 2928.81,1148.48 2935.22,1137.41 2941.62,1125.91 2948.03,1113.99 2954.43,1101.66 2960.83,1088.93 2967.24,1075.81 2973.64,1062.32 2980.05,1048.46 2986.45,1034.27 2992.85,1019.74 2999.26,1004.89 3005.66,989.743 3012.06,974.307 3018.47,958.6 3024.87,942.635 3031.28,926.431 3037.68,910.002 3044.08,893.366 3050.49,876.538 3056.89,859.536 3063.29,842.376 3069.7,825.076 3076.1,807.653 3082.51,790.124 3088.91,772.506 3095.31,754.818 3101.72,737.076 3108.12,719.3 3114.53,701.505 "/>
<path clip-path="url(#clip000)" d="M1846.96 1260.41 L2117.3 1260.41 L2117.3 1053.05 L1846.96 1053.05  Z" fill="#ffffff" fill-rule="evenodd" fill-opacity="1"/>
<polyline clip-path="url(#clip000)" style="stroke:#000000; stroke-linecap:round; stroke-linejoin:round; stroke-width:4; stroke-opacity:1; fill:none" points="1846.96,1260.41 2117.3,1260.41 2117.3,1053.05 1846.96,1053.05 1846.96,1260.41 "/>
<polyline clip-path="url(#clip000)" style="stroke:#009af9; stroke-linecap:round; stroke-linejoin:round; stroke-width:8; stroke-opacity:1; fill:none" points="1861.97,1104.89 1952.03,1104.89 "/>
<path clip-path="url(#clip000)" d="M1985.46 1097 L1985.46 1101.03 Q1983.66 1100.11 1981.71 1099.64 Q1979.77 1099.18 1977.68 1099.18 Q1974.51 1099.18 1972.92 1100.15 Q1971.34 1101.12 1971.34 1103.07 Q1971.34 1104.55 1972.48 1105.41 Q1973.61 1106.24 1977.04 1107 L1978.49 1107.33 Q1983.03 1108.3 1984.93 1110.08 Q1986.85 1111.84 1986.85 1115.01 Q1986.85 1118.62 1983.98 1120.73 Q1981.13 1122.84 1976.13 1122.84 Q1974.05 1122.84 1971.78 1122.42 Q1969.54 1122.03 1967.04 1121.22 L1967.04 1116.82 Q1969.4 1118.05 1971.69 1118.67 Q1973.98 1119.27 1976.23 1119.27 Q1979.24 1119.27 1980.86 1118.25 Q1982.48 1117.21 1982.48 1115.34 Q1982.48 1113.6 1981.3 1112.68 Q1980.14 1111.75 1976.18 1110.89 L1974.7 1110.55 Q1970.74 1109.71 1968.98 1108 Q1967.22 1106.26 1967.22 1103.25 Q1967.22 1099.6 1969.81 1097.61 Q1972.41 1095.62 1977.18 1095.62 Q1979.54 1095.62 1981.62 1095.96 Q1983.7 1096.31 1985.46 1097 Z" fill="#000000" fill-rule="nonzero" fill-opacity="1" /><path clip-path="url(#clip000)" d="M1997.75 1118.28 L1997.75 1132.03 L1993.47 1132.03 L1993.47 1096.24 L1997.75 1096.24 L1997.75 1100.18 Q1999.1 1097.86 2001.13 1096.75 Q2003.19 1095.62 2006.04 1095.62 Q2010.76 1095.62 2013.7 1099.37 Q2016.67 1103.12 2016.67 1109.23 Q2016.67 1115.34 2013.7 1119.09 Q2010.76 1122.84 2006.04 1122.84 Q2003.19 1122.84 2001.13 1121.73 Q1999.1 1120.59 1997.75 1118.28 M2012.24 1109.23 Q2012.24 1104.53 2010.3 1101.87 Q2008.38 1099.18 2005 1099.18 Q2001.62 1099.18 1999.67 1101.87 Q1997.75 1104.53 1997.75 1109.23 Q1997.75 1113.93 1999.67 1116.61 Q2001.62 1119.27 2005 1119.27 Q2008.38 1119.27 2010.3 1116.61 Q2012.24 1113.93 2012.24 1109.23 Z" fill="#000000" fill-rule="nonzero" fill-opacity="1" /><path clip-path="url(#clip000)" d="M2023.73 1086.15 L2027.98 1086.15 L2027.98 1122.17 L2023.73 1122.17 L2023.73 1086.15 Z" fill="#000000" fill-rule="nonzero" fill-opacity="1" /><path clip-path="url(#clip000)" d="M2036.9 1096.24 L2041.16 1096.24 L2041.16 1122.17 L2036.9 1122.17 L2036.9 1096.24 M2036.9 1086.15 L2041.16 1086.15 L2041.16 1091.54 L2036.9 1091.54 L2036.9 1086.15 Z" fill="#000000" fill-rule="nonzero" fill-opacity="1" /><path clip-path="url(#clip000)" d="M2071.62 1106.52 L2071.62 1122.17 L2067.36 1122.17 L2067.36 1106.66 Q2067.36 1102.98 2065.92 1101.15 Q2064.49 1099.32 2061.62 1099.32 Q2058.17 1099.32 2056.18 1101.52 Q2054.19 1103.72 2054.19 1107.51 L2054.19 1122.17 L2049.91 1122.17 L2049.91 1096.24 L2054.19 1096.24 L2054.19 1100.27 Q2055.72 1097.93 2057.78 1096.77 Q2059.86 1095.62 2062.57 1095.62 Q2067.04 1095.62 2069.33 1098.39 Q2071.62 1101.15 2071.62 1106.52 Z" fill="#000000" fill-rule="nonzero" fill-opacity="1" /><path clip-path="url(#clip000)" d="M2102.29 1108.14 L2102.29 1110.22 L2082.71 1110.22 Q2082.98 1114.62 2085.35 1116.93 Q2087.73 1119.23 2091.97 1119.23 Q2094.42 1119.23 2096.71 1118.62 Q2099.03 1118.02 2101.29 1116.82 L2101.29 1120.85 Q2099 1121.82 2096.6 1122.33 Q2094.19 1122.84 2091.71 1122.84 Q2085.51 1122.84 2081.87 1119.23 Q2078.26 1115.62 2078.26 1109.46 Q2078.26 1103.09 2081.69 1099.37 Q2085.14 1095.62 2090.97 1095.62 Q2096.2 1095.62 2099.23 1099 Q2102.29 1102.35 2102.29 1108.14 M2098.03 1106.89 Q2097.98 1103.39 2096.06 1101.31 Q2094.17 1099.23 2091.02 1099.23 Q2087.45 1099.23 2085.3 1101.24 Q2083.17 1103.25 2082.85 1106.91 L2098.03 1106.89 Z" fill="#000000" fill-rule="nonzero" fill-opacity="1" /><circle clip-path="url(#clip000)" cx="1907" cy="1156.73" r="20.9455" fill="#000000" fill-rule="evenodd" fill-opacity="1" stroke="none"/>
<path clip-path="url(#clip000)" d="M1985.95 1152.02 L1985.95 1137.99 L1990.21 1137.99 L1990.21 1174.01 L1985.95 1174.01 L1985.95 1170.12 Q1984.61 1172.43 1982.55 1173.57 Q1980.51 1174.68 1977.64 1174.68 Q1972.94 1174.68 1969.98 1170.93 Q1967.04 1167.18 1967.04 1161.07 Q1967.04 1154.96 1969.98 1151.21 Q1972.94 1147.46 1977.64 1147.46 Q1980.51 1147.46 1982.55 1148.59 Q1984.61 1149.7 1985.95 1152.02 M1971.43 1161.07 Q1971.43 1165.77 1973.36 1168.45 Q1975.3 1171.11 1978.68 1171.11 Q1982.06 1171.11 1984 1168.45 Q1985.95 1165.77 1985.95 1161.07 Q1985.95 1156.37 1984 1153.71 Q1982.06 1151.02 1978.68 1151.02 Q1975.3 1151.02 1973.36 1153.71 Q1971.43 1156.37 1971.43 1161.07 Z" fill="#000000" fill-rule="nonzero" fill-opacity="1" /><path clip-path="url(#clip000)" d="M2010.76 1160.97 Q2005.6 1160.97 2003.61 1162.15 Q2001.62 1163.34 2001.62 1166.18 Q2001.62 1168.45 2003.1 1169.79 Q2004.61 1171.11 2007.17 1171.11 Q2010.72 1171.11 2012.85 1168.61 Q2015 1166.09 2015 1161.92 L2015 1160.97 L2010.76 1160.97 M2019.26 1159.21 L2019.26 1174.01 L2015 1174.01 L2015 1170.07 Q2013.54 1172.43 2011.36 1173.57 Q2009.19 1174.68 2006.04 1174.68 Q2002.06 1174.68 1999.7 1172.46 Q1997.36 1170.21 1997.36 1166.46 Q1997.36 1162.09 2000.28 1159.86 Q2003.22 1157.64 2009.03 1157.64 L2015 1157.64 L2015 1157.22 Q2015 1154.28 2013.05 1152.69 Q2011.13 1151.07 2007.64 1151.07 Q2005.42 1151.07 2003.31 1151.6 Q2001.2 1152.13 1999.26 1153.2 L1999.26 1149.26 Q2001.6 1148.36 2003.8 1147.92 Q2005.99 1147.46 2008.08 1147.46 Q2013.7 1147.46 2016.48 1150.37 Q2019.26 1153.29 2019.26 1159.21 Z" fill="#000000" fill-rule="nonzero" fill-opacity="1" /><path clip-path="url(#clip000)" d="M2032.24 1140.72 L2032.24 1148.08 L2041.02 1148.08 L2041.02 1151.39 L2032.24 1151.39 L2032.24 1165.46 Q2032.24 1168.64 2033.1 1169.54 Q2033.98 1170.44 2036.64 1170.44 L2041.02 1170.44 L2041.02 1174.01 L2036.64 1174.01 Q2031.71 1174.01 2029.84 1172.18 Q2027.96 1170.33 2027.96 1165.46 L2027.96 1151.39 L2024.84 1151.39 L2024.84 1148.08 L2027.96 1148.08 L2027.96 1140.72 L2032.24 1140.72 Z" fill="#000000" fill-rule="nonzero" fill-opacity="1" /><path clip-path="url(#clip000)" d="M2058.4 1160.97 Q2053.24 1160.97 2051.25 1162.15 Q2049.26 1163.34 2049.26 1166.18 Q2049.26 1168.45 2050.74 1169.79 Q2052.24 1171.11 2054.81 1171.11 Q2058.36 1171.11 2060.48 1168.61 Q2062.64 1166.09 2062.64 1161.92 L2062.64 1160.97 L2058.4 1160.97 M2066.9 1159.21 L2066.9 1174.01 L2062.64 1174.01 L2062.64 1170.07 Q2061.18 1172.43 2059 1173.57 Q2056.83 1174.68 2053.68 1174.68 Q2049.7 1174.68 2047.34 1172.46 Q2045 1170.21 2045 1166.46 Q2045 1162.09 2047.92 1159.86 Q2050.86 1157.64 2056.67 1157.64 L2062.64 1157.64 L2062.64 1157.22 Q2062.64 1154.28 2060.69 1152.69 Q2058.77 1151.07 2055.28 1151.07 Q2053.05 1151.07 2050.95 1151.6 Q2048.84 1152.13 2046.9 1153.2 L2046.9 1149.26 Q2049.23 1148.36 2051.43 1147.92 Q2053.63 1147.46 2055.72 1147.46 Q2061.34 1147.46 2064.12 1150.37 Q2066.9 1153.29 2066.9 1159.21 Z" fill="#000000" fill-rule="nonzero" fill-opacity="1" /><polyline clip-path="url(#clip000)" style="stroke:#3da44d; stroke-linecap:round; stroke-linejoin:round; stroke-width:4; stroke-opacity:0.5; fill:none" stroke-dasharray="16, 10" points="1861.97,1208.57 1952.03,1208.57 "/>
<path clip-path="url(#clip000)" d="M1985.46 1200.68 L1985.46 1204.71 Q1983.66 1203.79 1981.71 1203.32 Q1979.77 1202.86 1977.68 1202.86 Q1974.51 1202.86 1972.92 1203.83 Q1971.34 1204.8 1971.34 1206.75 Q1971.34 1208.23 1972.48 1209.09 Q1973.61 1209.92 1977.04 1210.68 L1978.49 1211.01 Q1983.03 1211.98 1984.93 1213.76 Q1986.85 1215.52 1986.85 1218.69 Q1986.85 1222.3 1983.98 1224.41 Q1981.13 1226.52 1976.13 1226.52 Q1974.05 1226.52 1971.78 1226.1 Q1969.54 1225.71 1967.04 1224.9 L1967.04 1220.5 Q1969.4 1221.73 1971.69 1222.35 Q1973.98 1222.95 1976.23 1222.95 Q1979.24 1222.95 1980.86 1221.93 Q1982.48 1220.89 1982.48 1219.02 Q1982.48 1217.28 1981.3 1216.36 Q1980.14 1215.43 1976.18 1214.57 L1974.7 1214.23 Q1970.74 1213.39 1968.98 1211.68 Q1967.22 1209.94 1967.22 1206.93 Q1967.22 1203.28 1969.81 1201.29 Q1972.41 1199.3 1977.18 1199.3 Q1979.54 1199.3 1981.62 1199.64 Q1983.7 1199.99 1985.46 1200.68 Z" fill="#000000" fill-rule="nonzero" fill-opacity="1" /><path clip-path="url(#clip000)" d="M1993.63 1199.92 L1997.89 1199.92 L1997.89 1225.85 L1993.63 1225.85 L1993.63 1199.92 M1993.63 1189.83 L1997.89 1189.83 L1997.89 1195.22 L1993.63 1195.22 L1993.63 1189.83 Z" fill="#000000" fill-rule="nonzero" fill-opacity="1" /><path clip-path="url(#clip000)" d="M2028.36 1210.2 L2028.36 1225.85 L2024.1 1225.85 L2024.1 1210.34 Q2024.1 1206.66 2022.66 1204.83 Q2021.23 1203 2018.36 1203 Q2014.91 1203 2012.92 1205.2 Q2010.92 1207.4 2010.92 1211.19 L2010.92 1225.85 L2006.64 1225.85 L2006.64 1199.92 L2010.92 1199.92 L2010.92 1203.95 Q2012.45 1201.61 2014.51 1200.45 Q2016.6 1199.3 2019.3 1199.3 Q2023.77 1199.3 2026.06 1202.07 Q2028.36 1204.83 2028.36 1210.2 Z" fill="#000000" fill-rule="nonzero" fill-opacity="1" /><path clip-path="url(#clip000)" d="M2047.08 1189.87 Q2043.98 1195.2 2042.48 1200.41 Q2040.97 1205.61 2040.97 1210.96 Q2040.97 1216.31 2042.48 1221.56 Q2044 1226.8 2047.08 1232.1 L2043.38 1232.1 Q2039.91 1226.66 2038.17 1221.4 Q2036.46 1216.15 2036.46 1210.96 Q2036.46 1205.8 2038.17 1200.57 Q2039.88 1195.34 2043.38 1189.87 L2047.08 1189.87 Z" fill="#000000" fill-rule="nonzero" fill-opacity="1" /><path clip-path="url(#clip000)" d="M2076.9 1199.92 L2067.52 1212.54 L2077.38 1225.85 L2072.36 1225.85 L2064.81 1215.66 L2057.27 1225.85 L2052.24 1225.85 L2062.31 1212.28 L2053.1 1199.92 L2058.12 1199.92 L2065 1209.16 L2071.87 1199.92 L2076.9 1199.92 Z" fill="#000000" fill-rule="nonzero" fill-opacity="1" /><path clip-path="url(#clip000)" d="M2082.73 1189.87 L2086.43 1189.87 Q2089.91 1195.34 2091.62 1200.57 Q2093.35 1205.8 2093.35 1210.96 Q2093.35 1216.15 2091.62 1221.4 Q2089.91 1226.66 2086.43 1232.1 L2082.73 1232.1 Q2085.81 1226.8 2087.31 1221.56 Q2088.84 1216.31 2088.84 1210.96 Q2088.84 1205.61 2087.31 1200.41 Q2085.81 1195.2 2082.73 1189.87 Z" fill="#000000" fill-rule="nonzero" fill-opacity="1" /></svg>
