<?xml version="1.0" encoding="utf-8"?>
<svg xmlns="http://www.w3.org/2000/svg" xmlns:xlink="http://www.w3.org/1999/xlink" width="600" height="400" viewBox="0 0 2400 1600">
<defs>
  <clipPath id="clip880">
    <rect x="0" y="0" width="2400" height="1600"/>
  </clipPath>
</defs>
<path clip-path="url(#clip880)" d="M0 1600 L2400 1600 L2400 0 L0 0  Z" fill="#ffffff" fill-rule="evenodd" fill-opacity="1"/>
<defs>
  <clipPath id="clip881">
    <rect x="257" y="123" width="2097" height="1301"/>
  </clipPath>
</defs>
<path clip-path="url(#clip880)" d="M257.204 1423.18 L2352.76 1423.18 L2352.76 123.472 L257.204 123.472  Z" fill="#ffffff" fill-rule="evenodd" fill-opacity="1"/>
<polyline clip-path="url(#clip881)" style="stroke:#000000; stroke-linecap:round; stroke-linejoin:round; stroke-width:2; stroke-opacity:0.1; fill:none" points="316.512,1423.18 316.512,123.472 "/>
<polyline clip-path="url(#clip881)" style="stroke:#000000; stroke-linecap:round; stroke-linejoin:round; stroke-width:2; stroke-opacity:0.1; fill:none" points="631.151,1423.18 631.151,123.472 "/>
<polyline clip-path="url(#clip881)" style="stroke:#000000; stroke-linecap:round; stroke-linejoin:round; stroke-width:2; stroke-opacity:0.1; fill:none" points="945.79,1423.18 945.79,123.472 "/>
<polyline clip-path="url(#clip881)" style="stroke:#000000; stroke-linecap:round; stroke-linejoin:round; stroke-width:2; stroke-opacity:0.1; fill:none" points="1260.43,1423.18 1260.43,123.472 "/>
<polyline clip-path="url(#clip881)" style="stroke:#000000; stroke-linecap:round; stroke-linejoin:round; stroke-width:2; stroke-opacity:0.1; fill:none" points="1575.07,1423.18 1575.07,123.472 "/>
<polyline clip-path="url(#clip881)" style="stroke:#000000; stroke-linecap:round; stroke-linejoin:round; stroke-width:2; stroke-opacity:0.1; fill:none" points="1889.71,1423.18 1889.71,123.472 "/>
<polyline clip-path="url(#clip881)" style="stroke:#000000; stroke-linecap:round; stroke-linejoin:round; stroke-width:2; stroke-opacity:0.1; fill:none" points="2204.35,1423.18 2204.35,123.472 "/>
<polyline clip-path="url(#clip881)" style="stroke:#000000; stroke-linecap:round; stroke-linejoin:round; stroke-width:2; stroke-opacity:0.1; fill:none" points="257.204,1386.41 2352.76,1386.41 "/>
<polyline clip-path="url(#clip881)" style="stroke:#000000; stroke-linecap:round; stroke-linejoin:round; stroke-width:2; stroke-opacity:0.1; fill:none" points="257.204,1079.87 2352.76,1079.87 "/>
<polyline clip-path="url(#clip881)" style="stroke:#000000; stroke-linecap:round; stroke-linejoin:round; stroke-width:2; stroke-opacity:0.1; fill:none" points="257.204,773.326 2352.76,773.326 "/>
<polyline clip-path="url(#clip881)" style="stroke:#000000; stroke-linecap:round; stroke-linejoin:round; stroke-width:2; stroke-opacity:0.1; fill:none" points="257.204,466.782 2352.76,466.782 "/>
<polyline clip-path="url(#clip881)" style="stroke:#000000; stroke-linecap:round; stroke-linejoin:round; stroke-width:2; stroke-opacity:0.1; fill:none" points="257.204,160.237 2352.76,160.237 "/>
<polyline clip-path="url(#clip880)" style="stroke:#000000; stroke-linecap:round; stroke-linejoin:round; stroke-width:4; stroke-opacity:1; fill:none" points="257.204,1423.18 2352.76,1423.18 "/>
<polyline clip-path="url(#clip880)" style="stroke:#000000; stroke-linecap:round; stroke-linejoin:round; stroke-width:4; stroke-opacity:1; fill:none" points="316.512,1423.18 316.512,1404.28 "/>
<polyline clip-path="url(#clip880)" style="stroke:#000000; stroke-linecap:round; stroke-linejoin:round; stroke-width:4; stroke-opacity:1; fill:none" points="631.151,1423.18 631.151,1404.28 "/>
<polyline clip-path="url(#clip880)" style="stroke:#000000; stroke-linecap:round; stroke-linejoin:round; stroke-width:4; stroke-opacity:1; fill:none" points="945.79,1423.18 945.79,1404.28 "/>
<polyline clip-path="url(#clip880)" style="stroke:#000000; stroke-linecap:round; stroke-linejoin:round; stroke-width:4; stroke-opacity:1; fill:none" points="1260.43,1423.18 1260.43,1404.28 "/>
<polyline clip-path="url(#clip880)" style="stroke:#000000; stroke-linecap:round; stroke-linejoin:round; stroke-width:4; stroke-opacity:1; fill:none" points="1575.07,1423.18 1575.07,1404.28 "/>
<polyline clip-path="url(#clip880)" style="stroke:#000000; stroke-linecap:round; stroke-linejoin:round; stroke-width:4; stroke-opacity:1; fill:none" points="1889.71,1423.18 1889.71,1404.28 "/>
<polyline clip-path="url(#clip880)" style="stroke:#000000; stroke-linecap:round; stroke-linejoin:round; stroke-width:4; stroke-opacity:1; fill:none" points="2204.35,1423.18 2204.35,1404.28 "/>
<path clip-path="url(#clip880)" d="M316.512 1454.1 Q312.901 1454.1 311.072 1457.66 Q309.267 1461.2 309.267 1468.33 Q309.267 1475.44 311.072 1479.01 Q312.901 1482.55 316.512 1482.55 Q320.146 1482.55 321.952 1479.01 Q323.781 1475.44 323.781 1468.33 Q323.781 1461.2 321.952 1457.66 Q320.146 1454.1 316.512 1454.1 M316.512 1450.39 Q322.322 1450.39 325.378 1455 Q328.456 1459.58 328.456 1468.33 Q328.456 1477.06 325.378 1481.67 Q322.322 1486.25 316.512 1486.25 Q310.702 1486.25 307.623 1481.67 Q304.568 1477.06 304.568 1468.33 Q304.568 1459.58 307.623 1455 Q310.702 1450.39 316.512 1450.39 Z" fill="#000000" fill-rule="nonzero" fill-opacity="1" /><path clip-path="url(#clip880)" d="M621.533 1481.64 L629.172 1481.64 L629.172 1455.28 L620.862 1456.95 L620.862 1452.69 L629.126 1451.02 L633.802 1451.02 L633.802 1481.64 L641.44 1481.64 L641.44 1485.58 L621.533 1485.58 L621.533 1481.64 Z" fill="#000000" fill-rule="nonzero" fill-opacity="1" /><path clip-path="url(#clip880)" d="M940.443 1481.64 L956.762 1481.64 L956.762 1485.58 L934.818 1485.58 L934.818 1481.64 Q937.48 1478.89 942.063 1474.26 Q946.67 1469.61 947.85 1468.27 Q950.096 1465.74 950.975 1464.01 Q951.878 1462.25 951.878 1460.56 Q951.878 1457.8 949.934 1456.07 Q948.012 1454.33 944.911 1454.33 Q942.712 1454.33 940.258 1455.09 Q937.827 1455.86 935.05 1457.41 L935.05 1452.69 Q937.874 1451.55 940.327 1450.97 Q942.781 1450.39 944.818 1450.39 Q950.188 1450.39 953.383 1453.08 Q956.577 1455.77 956.577 1460.26 Q956.577 1462.39 955.767 1464.31 Q954.98 1466.2 952.874 1468.8 Q952.295 1469.47 949.193 1472.69 Q946.091 1475.88 940.443 1481.64 Z" fill="#000000" fill-rule="nonzero" fill-opacity="1" /><path clip-path="url(#clip880)" d="M1264.68 1466.95 Q1268.03 1467.66 1269.91 1469.93 Q1271.81 1472.2 1271.81 1475.53 Q1271.81 1480.65 1268.29 1483.45 Q1264.77 1486.25 1258.29 1486.25 Q1256.11 1486.25 1253.8 1485.81 Q1251.51 1485.39 1249.05 1484.54 L1249.05 1480.02 Q1251 1481.16 1253.31 1481.74 Q1255.63 1482.32 1258.15 1482.32 Q1262.55 1482.32 1264.84 1480.58 Q1267.15 1478.84 1267.15 1475.53 Q1267.15 1472.48 1265 1470.77 Q1262.87 1469.03 1259.05 1469.03 L1255.02 1469.03 L1255.02 1465.19 L1259.24 1465.19 Q1262.69 1465.19 1264.52 1463.82 Q1266.34 1462.43 1266.34 1459.84 Q1266.34 1457.18 1264.45 1455.77 Q1262.57 1454.33 1259.05 1454.33 Q1257.13 1454.33 1254.93 1454.75 Q1252.73 1455.16 1250.09 1456.04 L1250.09 1451.88 Q1252.76 1451.14 1255.07 1450.77 Q1257.41 1450.39 1259.47 1450.39 Q1264.79 1450.39 1267.89 1452.83 Q1271 1455.23 1271 1459.35 Q1271 1462.22 1269.35 1464.21 Q1267.71 1466.18 1264.68 1466.95 Z" fill="#000000" fill-rule="nonzero" fill-opacity="1" /><path clip-path="url(#clip880)" d="M1578.08 1455.09 L1566.27 1473.54 L1578.08 1473.54 L1578.08 1455.09 M1576.85 1451.02 L1582.73 1451.02 L1582.73 1473.54 L1587.66 1473.54 L1587.66 1477.43 L1582.73 1477.43 L1582.73 1485.58 L1578.08 1485.58 L1578.08 1477.43 L1562.48 1477.43 L1562.48 1472.92 L1576.85 1451.02 Z" fill="#000000" fill-rule="nonzero" fill-opacity="1" /><path clip-path="url(#clip880)" d="M1879.99 1451.02 L1898.34 1451.02 L1898.34 1454.96 L1884.27 1454.96 L1884.27 1463.43 Q1885.29 1463.08 1886.3 1462.92 Q1887.32 1462.73 1888.34 1462.73 Q1894.13 1462.73 1897.51 1465.9 Q1900.89 1469.08 1900.89 1474.49 Q1900.89 1480.07 1897.42 1483.17 Q1893.94 1486.25 1887.62 1486.25 Q1885.45 1486.25 1883.18 1485.88 Q1880.93 1485.51 1878.53 1484.77 L1878.53 1480.07 Q1880.61 1481.2 1882.83 1481.76 Q1885.05 1482.32 1887.53 1482.32 Q1891.54 1482.32 1893.87 1480.21 Q1896.21 1478.1 1896.21 1474.49 Q1896.21 1470.88 1893.87 1468.77 Q1891.54 1466.67 1887.53 1466.67 Q1885.66 1466.67 1883.78 1467.08 Q1881.93 1467.5 1879.99 1468.38 L1879.99 1451.02 Z" fill="#000000" fill-rule="nonzero" fill-opacity="1" /><path clip-path="url(#clip880)" d="M2204.75 1466.44 Q2201.6 1466.44 2199.75 1468.59 Q2197.92 1470.74 2197.92 1474.49 Q2197.92 1478.22 2199.75 1480.39 Q2201.6 1482.55 2204.75 1482.55 Q2207.9 1482.55 2209.73 1480.39 Q2211.58 1478.22 2211.58 1474.49 Q2211.58 1470.74 2209.73 1468.59 Q2207.9 1466.44 2204.75 1466.44 M2214.03 1451.78 L2214.03 1456.04 Q2212.27 1455.21 2210.47 1454.77 Q2208.69 1454.33 2206.93 1454.33 Q2202.3 1454.33 2199.84 1457.45 Q2197.41 1460.58 2197.07 1466.9 Q2198.43 1464.89 2200.49 1463.82 Q2202.55 1462.73 2205.03 1462.73 Q2210.24 1462.73 2213.25 1465.9 Q2216.28 1469.05 2216.28 1474.49 Q2216.28 1479.82 2213.13 1483.03 Q2209.98 1486.25 2204.75 1486.25 Q2198.76 1486.25 2195.59 1481.67 Q2192.41 1477.06 2192.41 1468.33 Q2192.41 1460.14 2196.3 1455.28 Q2200.19 1450.39 2206.74 1450.39 Q2208.5 1450.39 2210.28 1450.74 Q2212.09 1451.09 2214.03 1451.78 Z" fill="#000000" fill-rule="nonzero" fill-opacity="1" /><path clip-path="url(#clip880)" d="M1321.59 1532.4 L1308.7 1549.74 L1322.26 1568.04 L1315.36 1568.04 L1304.98 1554.04 L1294.6 1568.04 L1287.7 1568.04 L1301.54 1549.39 L1288.87 1532.4 L1295.78 1532.4 L1305.23 1545.1 L1314.69 1532.4 L1321.59 1532.4 Z" fill="#000000" fill-rule="nonzero" fill-opacity="1" /><polyline clip-path="url(#clip880)" style="stroke:#000000; stroke-linecap:round; stroke-linejoin:round; stroke-width:4; stroke-opacity:1; fill:none" points="257.204,1423.18 257.204,123.472 "/>
<polyline clip-path="url(#clip880)" style="stroke:#000000; stroke-linecap:round; stroke-linejoin:round; stroke-width:4; stroke-opacity:1; fill:none" points="257.204,1386.41 276.102,1386.41 "/>
<polyline clip-path="url(#clip880)" style="stroke:#000000; stroke-linecap:round; stroke-linejoin:round; stroke-width:4; stroke-opacity:1; fill:none" points="257.204,1079.87 276.102,1079.87 "/>
<polyline clip-path="url(#clip880)" style="stroke:#000000; stroke-linecap:round; stroke-linejoin:round; stroke-width:4; stroke-opacity:1; fill:none" points="257.204,773.326 276.102,773.326 "/>
<polyline clip-path="url(#clip880)" style="stroke:#000000; stroke-linecap:round; stroke-linejoin:round; stroke-width:4; stroke-opacity:1; fill:none" points="257.204,466.782 276.102,466.782 "/>
<polyline clip-path="url(#clip880)" style="stroke:#000000; stroke-linecap:round; stroke-linejoin:round; stroke-width:4; stroke-opacity:1; fill:none" points="257.204,160.237 276.102,160.237 "/>
<path clip-path="url(#clip880)" d="M114.26 1386.87 L143.936 1386.87 L143.936 1390.8 L114.26 1390.8 L114.26 1386.87 Z" fill="#000000" fill-rule="nonzero" fill-opacity="1" /><path clip-path="url(#clip880)" d="M154.839 1399.76 L162.477 1399.76 L162.477 1373.39 L154.167 1375.06 L154.167 1370.8 L162.431 1369.13 L167.107 1369.13 L167.107 1399.76 L174.746 1399.76 L174.746 1403.69 L154.839 1403.69 L154.839 1399.76 Z" fill="#000000" fill-rule="nonzero" fill-opacity="1" /><path clip-path="url(#clip880)" d="M184.19 1397.82 L189.075 1397.82 L189.075 1403.69 L184.19 1403.69 L184.19 1397.82 Z" fill="#000000" fill-rule="nonzero" fill-opacity="1" /><path clip-path="url(#clip880)" d="M209.26 1372.21 Q205.649 1372.21 203.82 1375.78 Q202.014 1379.32 202.014 1386.45 Q202.014 1393.56 203.82 1397.12 Q205.649 1400.66 209.26 1400.66 Q212.894 1400.66 214.699 1397.12 Q216.528 1393.56 216.528 1386.45 Q216.528 1379.32 214.699 1375.78 Q212.894 1372.21 209.26 1372.21 M209.26 1368.51 Q215.07 1368.51 218.125 1373.12 Q221.204 1377.7 221.204 1386.45 Q221.204 1395.18 218.125 1399.78 Q215.07 1404.37 209.26 1404.37 Q203.449 1404.37 200.371 1399.78 Q197.315 1395.18 197.315 1386.45 Q197.315 1377.7 200.371 1373.12 Q203.449 1368.51 209.26 1368.51 Z" fill="#000000" fill-rule="nonzero" fill-opacity="1" /><path clip-path="url(#clip880)" d="M115.256 1080.32 L144.931 1080.32 L144.931 1084.26 L115.256 1084.26 L115.256 1080.32 Z" fill="#000000" fill-rule="nonzero" fill-opacity="1" /><path clip-path="url(#clip880)" d="M165.024 1065.67 Q161.413 1065.67 159.584 1069.23 Q157.778 1072.78 157.778 1079.91 Q157.778 1087.01 159.584 1090.58 Q161.413 1094.12 165.024 1094.12 Q168.658 1094.12 170.464 1090.58 Q172.292 1087.01 172.292 1079.91 Q172.292 1072.78 170.464 1069.23 Q168.658 1065.67 165.024 1065.67 M165.024 1061.97 Q170.834 1061.97 173.889 1066.57 Q176.968 1071.16 176.968 1079.91 Q176.968 1088.63 173.889 1093.24 Q170.834 1097.82 165.024 1097.82 Q159.214 1097.82 156.135 1093.24 Q153.079 1088.63 153.079 1079.91 Q153.079 1071.16 156.135 1066.57 Q159.214 1061.97 165.024 1061.97 Z" fill="#000000" fill-rule="nonzero" fill-opacity="1" /><path clip-path="url(#clip880)" d="M185.186 1091.27 L190.07 1091.27 L190.07 1097.15 L185.186 1097.15 L185.186 1091.27 Z" fill="#000000" fill-rule="nonzero" fill-opacity="1" /><path clip-path="url(#clip880)" d="M200.301 1062.59 L218.658 1062.59 L218.658 1066.53 L204.584 1066.53 L204.584 1075 Q205.602 1074.65 206.621 1074.49 Q207.639 1074.3 208.658 1074.3 Q214.445 1074.3 217.824 1077.47 Q221.204 1080.65 221.204 1086.06 Q221.204 1091.64 217.732 1094.74 Q214.26 1097.82 207.94 1097.82 Q205.764 1097.82 203.496 1097.45 Q201.25 1097.08 198.843 1096.34 L198.843 1091.64 Q200.926 1092.78 203.149 1093.33 Q205.371 1093.89 207.848 1093.89 Q211.852 1093.89 214.19 1091.78 Q216.528 1089.67 216.528 1086.06 Q216.528 1082.45 214.19 1080.34 Q211.852 1078.24 207.848 1078.24 Q205.973 1078.24 204.098 1078.66 Q202.246 1079.07 200.301 1079.95 L200.301 1062.59 Z" fill="#000000" fill-rule="nonzero" fill-opacity="1" /><path clip-path="url(#clip880)" d="M164.028 759.125 Q160.417 759.125 158.589 762.689 Q156.783 766.231 156.783 773.361 Q156.783 780.467 158.589 784.032 Q160.417 787.574 164.028 787.574 Q167.663 787.574 169.468 784.032 Q171.297 780.467 171.297 773.361 Q171.297 766.231 169.468 762.689 Q167.663 759.125 164.028 759.125 M164.028 755.421 Q169.839 755.421 172.894 760.027 Q175.973 764.611 175.973 773.361 Q175.973 782.088 172.894 786.694 Q169.839 791.277 164.028 791.277 Q158.218 791.277 155.14 786.694 Q152.084 782.088 152.084 773.361 Q152.084 764.611 155.14 760.027 Q158.218 755.421 164.028 755.421 Z" fill="#000000" fill-rule="nonzero" fill-opacity="1" /><path clip-path="url(#clip880)" d="M184.19 784.726 L189.075 784.726 L189.075 790.606 L184.19 790.606 L184.19 784.726 Z" fill="#000000" fill-rule="nonzero" fill-opacity="1" /><path clip-path="url(#clip880)" d="M209.26 759.125 Q205.649 759.125 203.82 762.689 Q202.014 766.231 202.014 773.361 Q202.014 780.467 203.82 784.032 Q205.649 787.574 209.26 787.574 Q212.894 787.574 214.699 784.032 Q216.528 780.467 216.528 773.361 Q216.528 766.231 214.699 762.689 Q212.894 759.125 209.26 759.125 M209.26 755.421 Q215.07 755.421 218.125 760.027 Q221.204 764.611 221.204 773.361 Q221.204 782.088 218.125 786.694 Q215.07 791.277 209.26 791.277 Q203.449 791.277 200.371 786.694 Q197.315 782.088 197.315 773.361 Q197.315 764.611 200.371 760.027 Q203.449 755.421 209.26 755.421 Z" fill="#000000" fill-rule="nonzero" fill-opacity="1" /><path clip-path="url(#clip880)" d="M165.024 452.58 Q161.413 452.58 159.584 456.145 Q157.778 459.687 157.778 466.816 Q157.778 473.923 159.584 477.488 Q161.413 481.029 165.024 481.029 Q168.658 481.029 170.464 477.488 Q172.292 473.923 172.292 466.816 Q172.292 459.687 170.464 456.145 Q168.658 452.58 165.024 452.58 M165.024 448.877 Q170.834 448.877 173.889 453.483 Q176.968 458.066 176.968 466.816 Q176.968 475.543 173.889 480.15 Q170.834 484.733 165.024 484.733 Q159.214 484.733 156.135 480.15 Q153.079 475.543 153.079 466.816 Q153.079 458.066 156.135 453.483 Q159.214 448.877 165.024 448.877 Z" fill="#000000" fill-rule="nonzero" fill-opacity="1" /><path clip-path="url(#clip880)" d="M185.186 478.182 L190.07 478.182 L190.07 484.062 L185.186 484.062 L185.186 478.182 Z" fill="#000000" fill-rule="nonzero" fill-opacity="1" /><path clip-path="url(#clip880)" d="M200.301 449.502 L218.658 449.502 L218.658 453.437 L204.584 453.437 L204.584 461.909 Q205.602 461.562 206.621 461.4 Q207.639 461.214 208.658 461.214 Q214.445 461.214 217.824 464.386 Q221.204 467.557 221.204 472.974 Q221.204 478.552 217.732 481.654 Q214.26 484.733 207.94 484.733 Q205.764 484.733 203.496 484.363 Q201.25 483.992 198.843 483.251 L198.843 478.552 Q200.926 479.687 203.149 480.242 Q205.371 480.798 207.848 480.798 Q211.852 480.798 214.19 478.691 Q216.528 476.585 216.528 472.974 Q216.528 469.363 214.19 467.256 Q211.852 465.15 207.848 465.15 Q205.973 465.15 204.098 465.566 Q202.246 465.983 200.301 466.863 L200.301 449.502 Z" fill="#000000" fill-rule="nonzero" fill-opacity="1" /><path clip-path="url(#clip880)" d="M154.839 173.582 L162.477 173.582 L162.477 147.216 L154.167 148.883 L154.167 144.624 L162.431 142.957 L167.107 142.957 L167.107 173.582 L174.746 173.582 L174.746 177.517 L154.839 177.517 L154.839 173.582 Z" fill="#000000" fill-rule="nonzero" fill-opacity="1" /><path clip-path="url(#clip880)" d="M184.19 171.638 L189.075 171.638 L189.075 177.517 L184.19 177.517 L184.19 171.638 Z" fill="#000000" fill-rule="nonzero" fill-opacity="1" /><path clip-path="url(#clip880)" d="M209.26 146.036 Q205.649 146.036 203.82 149.601 Q202.014 153.142 202.014 160.272 Q202.014 167.378 203.82 170.943 Q205.649 174.485 209.26 174.485 Q212.894 174.485 214.699 170.943 Q216.528 167.378 216.528 160.272 Q216.528 153.142 214.699 149.601 Q212.894 146.036 209.26 146.036 M209.26 142.332 Q215.07 142.332 218.125 146.939 Q221.204 151.522 221.204 160.272 Q221.204 168.999 218.125 173.605 Q215.07 178.188 209.26 178.188 Q203.449 178.188 200.371 173.605 Q197.315 168.999 197.315 160.272 Q197.315 151.522 200.371 146.939 Q203.449 142.332 209.26 142.332 Z" fill="#000000" fill-rule="nonzero" fill-opacity="1" /><path clip-path="url(#clip880)" d="M67.3143 771.639 Q73.68 774.122 75.6216 776.477 Q77.5631 778.832 77.5631 782.779 L77.5631 787.458 L72.6615 787.458 L72.6615 784.02 Q72.6615 781.601 71.5157 780.265 Q70.3699 778.928 66.1048 777.305 L63.4312 776.254 L28.3562 790.673 L28.3562 784.466 L56.238 773.326 L28.3562 762.186 L28.3562 755.979 L67.3143 771.639 Z" fill="#000000" fill-rule="nonzero" fill-opacity="1" /><path clip-path="url(#clip880)" d="M722.338 12.096 L730.521 12.096 L730.521 65.6895 L759.971 65.6895 L759.971 72.576 L722.338 72.576 L722.338 12.096 Z" fill="#000000" fill-rule="nonzero" fill-opacity="1" /><path clip-path="url(#clip880)" d="M768.235 27.2059 L775.689 27.2059 L775.689 72.576 L768.235 72.576 L768.235 27.2059 M768.235 9.54393 L775.689 9.54393 L775.689 18.9825 L768.235 18.9825 L768.235 9.54393 Z" fill="#000000" fill-rule="nonzero" fill-opacity="1" /><path clip-path="url(#clip880)" d="M828.999 45.1919 L828.999 72.576 L821.545 72.576 L821.545 45.4349 Q821.545 38.994 819.033 35.7938 Q816.522 32.5936 811.499 32.5936 Q805.463 32.5936 801.979 36.4419 Q798.495 40.2903 798.495 46.9338 L798.495 72.576 L791.001 72.576 L791.001 27.2059 L798.495 27.2059 L798.495 34.2544 Q801.169 30.163 804.774 28.1376 Q808.42 26.1121 813.16 26.1121 Q820.978 26.1121 824.988 30.9732 Q828.999 35.7938 828.999 45.1919 Z" fill="#000000" fill-rule="nonzero" fill-opacity="1" /><path clip-path="url(#clip880)" d="M882.673 48.0275 L882.673 51.6733 L848.403 51.6733 Q848.889 59.3701 853.021 63.421 Q857.193 67.4314 864.606 67.4314 Q868.9 67.4314 872.911 66.3781 Q876.961 65.3249 880.931 63.2184 L880.931 70.267 Q876.921 71.9684 872.708 72.8596 Q868.495 73.7508 864.161 73.7508 Q853.304 73.7508 846.944 67.4314 Q840.625 61.1119 840.625 50.3365 Q840.625 39.1965 846.62 32.6746 Q852.656 26.1121 862.864 26.1121 Q872.019 26.1121 877.326 32.0264 Q882.673 37.9003 882.673 48.0275 M875.22 45.84 Q875.139 39.7232 871.776 36.0774 Q868.455 32.4315 862.945 32.4315 Q856.707 32.4315 852.94 35.9558 Q849.213 39.4801 848.646 45.8805 L875.22 45.84 Z" fill="#000000" fill-rule="nonzero" fill-opacity="1" /><path clip-path="url(#clip880)" d="M915.526 49.7694 Q906.493 49.7694 903.009 51.8354 Q899.525 53.9013 899.525 58.8839 Q899.525 62.8538 902.118 65.2034 Q904.751 67.5124 909.247 67.5124 Q915.445 67.5124 919.172 63.1374 Q922.939 58.7219 922.939 51.4303 L922.939 49.7694 L915.526 49.7694 M930.393 46.6907 L930.393 72.576 L922.939 72.576 L922.939 65.6895 Q920.387 69.8214 916.579 71.8063 Q912.771 73.7508 907.262 73.7508 Q900.295 73.7508 896.163 69.8619 Q892.071 65.9325 892.071 59.3701 Q892.071 51.7138 897.175 47.825 Q902.32 43.9361 912.488 43.9361 L922.939 43.9361 L922.939 43.2069 Q922.939 38.0623 919.536 35.2672 Q916.174 32.4315 910.057 32.4315 Q906.168 32.4315 902.482 33.3632 Q898.796 34.295 895.393 36.1584 L895.393 29.2718 Q899.484 27.692 903.333 26.9223 Q907.181 26.1121 910.827 26.1121 Q920.671 26.1121 925.532 31.2163 Q930.393 36.3204 930.393 46.6907 Z" fill="#000000" fill-rule="nonzero" fill-opacity="1" /><path clip-path="url(#clip880)" d="M972.036 34.1734 Q970.78 33.4443 969.282 33.1202 Q967.823 32.7556 966.041 32.7556 Q959.721 32.7556 956.319 36.8875 Q952.956 40.9789 952.956 48.6757 L952.956 72.576 L945.462 72.576 L945.462 27.2059 L952.956 27.2059 L952.956 34.2544 Q955.306 30.1225 959.073 28.1376 Q962.841 26.1121 968.228 26.1121 Q968.998 26.1121 969.93 26.2337 Q970.861 26.3147 971.996 26.5172 L972.036 34.1734 Z" fill="#000000" fill-rule="nonzero" fill-opacity="1" /><path clip-path="url(#clip880)" d="M1006.55 12.096 L1014.73 12.096 L1014.73 72.576 L1006.55 72.576 L1006.55 12.096 Z" fill="#000000" fill-rule="nonzero" fill-opacity="1" /><path clip-path="url(#clip880)" d="M1068.41 45.1919 L1068.41 72.576 L1060.95 72.576 L1060.95 45.4349 Q1060.95 38.994 1058.44 35.7938 Q1055.93 32.5936 1050.91 32.5936 Q1044.87 32.5936 1041.39 36.4419 Q1037.9 40.2903 1037.9 46.9338 L1037.9 72.576 L1030.41 72.576 L1030.41 27.2059 L1037.9 27.2059 L1037.9 34.2544 Q1040.58 30.163 1044.18 28.1376 Q1047.83 26.1121 1052.57 26.1121 Q1060.39 26.1121 1064.4 30.9732 Q1068.41 35.7938 1068.41 45.1919 Z" fill="#000000" fill-rule="nonzero" fill-opacity="1" /><path clip-path="url(#clip880)" d="M1090.65 14.324 L1090.65 27.2059 L1106 27.2059 L1106 32.9987 L1090.65 32.9987 L1090.65 57.6282 Q1090.65 63.1779 1092.15 64.7578 Q1093.68 66.3376 1098.34 66.3376 L1106 66.3376 L1106 72.576 L1098.34 72.576 Q1089.71 72.576 1086.43 69.3758 Q1083.15 66.1351 1083.15 57.6282 L1083.15 32.9987 L1077.68 32.9987 L1077.68 27.2059 L1083.15 27.2059 L1083.15 14.324 L1090.65 14.324 Z" fill="#000000" fill-rule="nonzero" fill-opacity="1" /><path clip-path="url(#clip880)" d="M1154.61 48.0275 L1154.61 51.6733 L1120.34 51.6733 Q1120.83 59.3701 1124.96 63.421 Q1129.13 67.4314 1136.54 67.4314 Q1140.84 67.4314 1144.85 66.3781 Q1148.9 65.3249 1152.87 63.2184 L1152.87 70.267 Q1148.86 71.9684 1144.65 72.8596 Q1140.43 73.7508 1136.1 73.7508 Q1125.24 73.7508 1118.88 67.4314 Q1112.56 61.1119 1112.56 50.3365 Q1112.56 39.1965 1118.56 32.6746 Q1124.59 26.1121 1134.8 26.1121 Q1143.96 26.1121 1149.26 32.0264 Q1154.61 37.9003 1154.61 48.0275 M1147.16 45.84 Q1147.08 39.7232 1143.71 36.0774 Q1140.39 32.4315 1134.88 32.4315 Q1128.64 32.4315 1124.88 35.9558 Q1121.15 39.4801 1120.58 45.8805 L1147.16 45.84 Z" fill="#000000" fill-rule="nonzero" fill-opacity="1" /><path clip-path="url(#clip880)" d="M1193.13 34.1734 Q1191.88 33.4443 1190.38 33.1202 Q1188.92 32.7556 1187.14 32.7556 Q1180.82 32.7556 1177.42 36.8875 Q1174.05 40.9789 1174.05 48.6757 L1174.05 72.576 L1166.56 72.576 L1166.56 27.2059 L1174.05 27.2059 L1174.05 34.2544 Q1176.4 30.1225 1180.17 28.1376 Q1183.94 26.1121 1189.33 26.1121 Q1190.1 26.1121 1191.03 26.2337 Q1191.96 26.3147 1193.09 26.5172 L1193.13 34.1734 Z" fill="#000000" fill-rule="nonzero" fill-opacity="1" /><path clip-path="url(#clip880)" d="M1208.16 65.7705 L1208.16 89.8329 L1200.67 89.8329 L1200.67 27.2059 L1208.16 27.2059 L1208.16 34.0924 Q1210.51 30.0415 1214.08 28.0971 Q1217.68 26.1121 1222.67 26.1121 Q1230.93 26.1121 1236.07 32.6746 Q1241.26 39.2371 1241.26 49.9314 Q1241.26 60.6258 1236.07 67.1883 Q1230.93 73.7508 1222.67 73.7508 Q1217.68 73.7508 1214.08 71.8063 Q1210.51 69.8214 1208.16 65.7705 M1233.52 49.9314 Q1233.52 41.7081 1230.12 37.0496 Q1226.76 32.3505 1220.84 32.3505 Q1214.93 32.3505 1211.53 37.0496 Q1208.16 41.7081 1208.16 49.9314 Q1208.16 58.1548 1211.53 62.8538 Q1214.93 67.5124 1220.84 67.5124 Q1226.76 67.5124 1230.12 62.8538 Q1233.52 58.1548 1233.52 49.9314 Z" fill="#000000" fill-rule="nonzero" fill-opacity="1" /><path clip-path="url(#clip880)" d="M1271.2 32.4315 Q1265.2 32.4315 1261.72 37.1306 Q1258.23 41.7891 1258.23 49.9314 Q1258.23 58.0738 1261.68 62.7728 Q1265.16 67.4314 1271.2 67.4314 Q1277.15 67.4314 1280.63 62.7323 Q1284.12 58.0333 1284.12 49.9314 Q1284.12 41.8701 1280.63 37.1711 Q1277.15 32.4315 1271.2 32.4315 M1271.2 26.1121 Q1280.92 26.1121 1286.47 32.4315 Q1292.02 38.7509 1292.02 49.9314 Q1292.02 61.0714 1286.47 67.4314 Q1280.92 73.7508 1271.2 73.7508 Q1261.43 73.7508 1255.88 67.4314 Q1250.37 61.0714 1250.37 49.9314 Q1250.37 38.7509 1255.88 32.4315 Q1261.43 26.1121 1271.2 26.1121 Z" fill="#000000" fill-rule="nonzero" fill-opacity="1" /><path clip-path="url(#clip880)" d="M1304.37 9.54393 L1311.83 9.54393 L1311.83 72.576 L1304.37 72.576 L1304.37 9.54393 Z" fill="#000000" fill-rule="nonzero" fill-opacity="1" /><path clip-path="url(#clip880)" d="M1348.04 49.7694 Q1339.01 49.7694 1335.52 51.8354 Q1332.04 53.9013 1332.04 58.8839 Q1332.04 62.8538 1334.63 65.2034 Q1337.27 67.5124 1341.76 67.5124 Q1347.96 67.5124 1351.69 63.1374 Q1355.45 58.7219 1355.45 51.4303 L1355.45 49.7694 L1348.04 49.7694 M1362.91 46.6907 L1362.91 72.576 L1355.45 72.576 L1355.45 65.6895 Q1352.9 69.8214 1349.09 71.8063 Q1345.29 73.7508 1339.78 73.7508 Q1332.81 73.7508 1328.68 69.8619 Q1324.59 65.9325 1324.59 59.3701 Q1324.59 51.7138 1329.69 47.825 Q1334.84 43.9361 1345 43.9361 L1355.45 43.9361 L1355.45 43.2069 Q1355.45 38.0623 1352.05 35.2672 Q1348.69 32.4315 1342.57 32.4315 Q1338.68 32.4315 1335 33.3632 Q1331.31 34.295 1327.91 36.1584 L1327.91 29.2718 Q1332 27.692 1335.85 26.9223 Q1339.7 26.1121 1343.34 26.1121 Q1353.19 26.1121 1358.05 31.2163 Q1362.91 36.3204 1362.91 46.6907 Z" fill="#000000" fill-rule="nonzero" fill-opacity="1" /><path clip-path="url(#clip880)" d="M1385.63 14.324 L1385.63 27.2059 L1400.99 27.2059 L1400.99 32.9987 L1385.63 32.9987 L1385.63 57.6282 Q1385.63 63.1779 1387.13 64.7578 Q1388.67 66.3376 1393.33 66.3376 L1400.99 66.3376 L1400.99 72.576 L1393.33 72.576 Q1384.7 72.576 1381.42 69.3758 Q1378.14 66.1351 1378.14 57.6282 L1378.14 32.9987 L1372.67 32.9987 L1372.67 27.2059 L1378.14 27.2059 L1378.14 14.324 L1385.63 14.324 Z" fill="#000000" fill-rule="nonzero" fill-opacity="1" /><path clip-path="url(#clip880)" d="M1410.79 27.2059 L1418.24 27.2059 L1418.24 72.576 L1410.79 72.576 L1410.79 27.2059 M1410.79 9.54393 L1418.24 9.54393 L1418.24 18.9825 L1410.79 18.9825 L1410.79 9.54393 Z" fill="#000000" fill-rule="nonzero" fill-opacity="1" /><path clip-path="url(#clip880)" d="M1451.42 32.4315 Q1445.42 32.4315 1441.94 37.1306 Q1438.46 41.7891 1438.46 49.9314 Q1438.46 58.0738 1441.9 62.7728 Q1445.38 67.4314 1451.42 67.4314 Q1457.37 67.4314 1460.86 62.7323 Q1464.34 58.0333 1464.34 49.9314 Q1464.34 41.8701 1460.86 37.1711 Q1457.37 32.4315 1451.42 32.4315 M1451.42 26.1121 Q1461.14 26.1121 1466.69 32.4315 Q1472.24 38.7509 1472.24 49.9314 Q1472.24 61.0714 1466.69 67.4314 Q1461.14 73.7508 1451.42 73.7508 Q1441.66 73.7508 1436.11 67.4314 Q1430.6 61.0714 1430.6 49.9314 Q1430.6 38.7509 1436.11 32.4315 Q1441.66 26.1121 1451.42 26.1121 Z" fill="#000000" fill-rule="nonzero" fill-opacity="1" /><path clip-path="url(#clip880)" d="M1522.31 45.1919 L1522.31 72.576 L1514.86 72.576 L1514.86 45.4349 Q1514.86 38.994 1512.35 35.7938 Q1509.83 32.5936 1504.81 32.5936 Q1498.78 32.5936 1495.29 36.4419 Q1491.81 40.2903 1491.81 46.9338 L1491.81 72.576 L1484.31 72.576 L1484.31 27.2059 L1491.81 27.2059 L1491.81 34.2544 Q1494.48 30.163 1498.09 28.1376 Q1501.73 26.1121 1506.47 26.1121 Q1514.29 26.1121 1518.3 30.9732 Q1522.31 35.7938 1522.31 45.1919 Z" fill="#000000" fill-rule="nonzero" fill-opacity="1" /><path clip-path="url(#clip880)" d="M1581.13 32.4315 Q1575.13 32.4315 1571.65 37.1306 Q1568.17 41.7891 1568.17 49.9314 Q1568.17 58.0738 1571.61 62.7728 Q1575.09 67.4314 1581.13 67.4314 Q1587.08 67.4314 1590.57 62.7323 Q1594.05 58.0333 1594.05 49.9314 Q1594.05 41.8701 1590.57 37.1711 Q1587.08 32.4315 1581.13 32.4315 M1581.13 26.1121 Q1590.85 26.1121 1596.4 32.4315 Q1601.95 38.7509 1601.95 49.9314 Q1601.95 61.0714 1596.4 67.4314 Q1590.85 73.7508 1581.13 73.7508 Q1571.37 73.7508 1565.82 67.4314 Q1560.31 61.0714 1560.31 49.9314 Q1560.31 38.7509 1565.82 32.4315 Q1571.37 26.1121 1581.13 26.1121 Z" fill="#000000" fill-rule="nonzero" fill-opacity="1" /><path clip-path="url(#clip880)" d="M1637.28 9.54393 L1637.28 15.7418 L1630.15 15.7418 Q1626.14 15.7418 1624.56 17.3622 Q1623.02 18.9825 1623.02 23.1955 L1623.02 27.2059 L1635.29 27.2059 L1635.29 32.9987 L1623.02 32.9987 L1623.02 72.576 L1615.52 72.576 L1615.52 32.9987 L1608.39 32.9987 L1608.39 27.2059 L1615.52 27.2059 L1615.52 24.0462 Q1615.52 16.471 1619.05 13.0277 Q1622.57 9.54393 1630.23 9.54393 L1637.28 9.54393 Z" fill="#000000" fill-rule="nonzero" fill-opacity="1" /><path clip-path="url(#clip880)" d="M1698.81 28.5427 L1698.81 35.5912 Q1695.65 33.9709 1692.25 33.1607 Q1688.84 32.3505 1685.2 32.3505 Q1679.65 32.3505 1676.85 34.0519 Q1674.1 35.7533 1674.1 39.156 Q1674.1 41.7486 1676.08 43.2475 Q1678.07 44.7058 1684.06 46.0426 L1686.62 46.6097 Q1694.56 48.3111 1697.88 51.4303 Q1701.24 54.509 1701.24 60.0587 Q1701.24 66.3781 1696.22 70.0644 Q1691.23 73.7508 1682.48 73.7508 Q1678.84 73.7508 1674.87 73.0216 Q1670.94 72.3329 1666.56 70.9151 L1666.56 63.2184 Q1670.7 65.3654 1674.71 66.4591 Q1678.72 67.5124 1682.65 67.5124 Q1687.91 67.5124 1690.75 65.73 Q1693.58 63.9071 1693.58 60.6258 Q1693.58 57.5877 1691.52 55.9673 Q1689.49 54.3469 1682.56 52.8481 L1679.97 52.2405 Q1673.05 50.7821 1669.97 47.7845 Q1666.89 44.7463 1666.89 39.4801 Q1666.89 33.0797 1671.42 29.5959 Q1675.96 26.1121 1684.31 26.1121 Q1688.44 26.1121 1692.08 26.7198 Q1695.73 27.3274 1698.81 28.5427 Z" fill="#000000" fill-rule="nonzero" fill-opacity="1" /><path clip-path="url(#clip880)" d="M1713.11 27.2059 L1720.56 27.2059 L1720.56 72.576 L1713.11 72.576 L1713.11 27.2059 M1713.11 9.54393 L1720.56 9.54393 L1720.56 18.9825 L1713.11 18.9825 L1713.11 9.54393 Z" fill="#000000" fill-rule="nonzero" fill-opacity="1" /><path clip-path="url(#clip880)" d="M1773.87 45.1919 L1773.87 72.576 L1766.42 72.576 L1766.42 45.4349 Q1766.42 38.994 1763.91 35.7938 Q1761.4 32.5936 1756.37 32.5936 Q1750.34 32.5936 1746.85 36.4419 Q1743.37 40.2903 1743.37 46.9338 L1743.37 72.576 L1735.87 72.576 L1735.87 27.2059 L1743.37 27.2059 L1743.37 34.2544 Q1746.04 30.163 1749.65 28.1376 Q1753.29 26.1121 1758.03 26.1121 Q1765.85 26.1121 1769.86 30.9732 Q1773.87 35.7938 1773.87 45.1919 Z" fill="#000000" fill-rule="nonzero" fill-opacity="1" /><path clip-path="url(#clip880)" d="M1806.64 9.62495 Q1801.22 18.942 1798.58 28.0566 Q1795.95 37.1711 1795.95 46.5287 Q1795.95 55.8863 1798.58 65.0818 Q1801.26 74.2369 1806.64 83.5134 L1800.16 83.5134 Q1794.09 73.9938 1791.05 64.7983 Q1788.05 55.6027 1788.05 46.5287 Q1788.05 37.4952 1791.05 28.3401 Q1794.05 19.1851 1800.16 9.62495 L1806.64 9.62495 Z" fill="#000000" fill-rule="nonzero" fill-opacity="1" /><path clip-path="url(#clip880)" d="M1858.82 27.2059 L1842.41 49.2833 L1859.67 72.576 L1850.88 72.576 L1837.67 54.752 L1824.47 72.576 L1815.68 72.576 L1833.3 48.8377 L1817.18 27.2059 L1825.97 27.2059 L1838 43.369 L1850.03 27.2059 L1858.82 27.2059 Z" fill="#000000" fill-rule="nonzero" fill-opacity="1" /><path clip-path="url(#clip880)" d="M1869.03 9.62495 L1875.51 9.62495 Q1881.59 19.1851 1884.58 28.3401 Q1887.62 37.4952 1887.62 46.5287 Q1887.62 55.6027 1884.58 64.7983 Q1881.59 73.9938 1875.51 83.5134 L1869.03 83.5134 Q1874.42 74.2369 1877.05 65.0818 Q1879.72 55.8863 1879.72 46.5287 Q1879.72 37.1711 1877.05 28.0566 Q1874.42 18.942 1869.03 9.62495 Z" fill="#000000" fill-rule="nonzero" fill-opacity="1" /><polyline clip-path="url(#clip881)" style="stroke:#009af9; stroke-linecap:round; stroke-linejoin:round; stroke-width:8; stroke-opacity:1; fill:none" points="316.512,773.326 326.446,754.319 336.381,735.313 346.315,716.306 356.25,697.299 366.184,678.293 376.118,659.286 386.053,640.279 395.987,621.273 405.921,602.266 415.856,583.26 425.79,565.337 435.724,548.39 445.659,531.443 455.593,514.496 465.527,497.549 475.462,480.602 485.396,463.655 495.33,446.708 505.265,429.761 515.199,412.814 525.133,396.072 535.068,383.021 545.002,369.97 554.937,356.92 564.871,343.869 574.805,330.818 584.74,317.767 594.674,304.716 604.608,291.665 614.543,278.615 624.477,265.564 634.411,255.587 644.346,247.847 654.28,240.106 664.214,232.366 674.149,224.625 684.083,216.885 694.017,209.145 703.952,201.404 713.886,193.664 723.82,185.923 733.755,178.83 743.689,177.239 753.624,175.648 763.558,174.056 773.492,172.465 783.427,170.874 793.361,169.283 803.295,167.691 813.23,166.1 823.164,164.509 833.098,162.917 843.033,165.319 852.967,170.049 862.901,174.78 872.836,179.51 882.77,184.24 892.704,188.971 902.639,193.701 912.573,198.431 922.507,203.162 932.442,207.892 942.376,213.54 952.311,224.079 962.245,234.619 972.179,245.158 982.114,255.697 992.048,266.237 1001.98,276.776 1011.92,287.316 1021.85,297.855 1031.79,308.394 1041.72,318.934 1051.65,332.666 1061.59,347.873 1071.52,363.079 1081.46,378.285 1091.39,393.491 1101.33,408.698 1111.26,423.904 1121.19,439.11 1131.13,454.317 1141.06,469.523 1151,485.365 1160.93,503.59 1170.87,521.816 1180.8,540.041 1190.73,558.266 1200.67,576.492 1210.6,594.717 1220.54,612.943 1230.47,631.168 1240.41,649.393 1250.34,667.619 1260.28,686.613 1270.21,705.883 1280.14,725.152 1290.08,744.422 1300.01,763.691 1309.95,782.961 1319.88,802.23 1329.82,821.5 1339.75,840.769 1349.68,860.039 1359.62,879.033 1369.55,897.259 1379.49,915.484 1389.42,933.709 1399.36,951.935 1409.29,970.16 1419.22,988.386 1429.16,1006.61 1439.09,1024.84 1449.03,1043.06 1458.96,1061.29 1468.9,1077.13 1478.83,1092.34 1488.77,1107.54 1498.7,1122.75 1508.63,1137.95 1518.57,1153.16 1528.5,1168.37 1538.44,1183.57 1548.37,1198.78 1558.31,1213.99 1568.24,1227.72 1578.17,1238.26 1588.11,1248.8 1598.04,1259.34 1607.98,1269.88 1617.91,1280.42 1627.85,1290.95 1637.78,1301.49 1647.72,1312.03 1657.65,1322.57 1667.58,1333.11 1677.52,1338.76 1687.45,1343.49 1697.39,1348.22 1707.32,1352.95 1717.26,1357.68 1727.19,1362.41 1737.12,1367.14 1747.06,1371.87 1756.99,1376.6 1766.93,1381.33 1776.86,1383.73 1786.8,1382.14 1796.73,1380.55 1806.66,1378.96 1816.6,1377.37 1826.53,1375.78 1836.47,1374.19 1846.4,1372.6 1856.34,1371 1866.27,1369.41 1876.21,1367.82 1886.14,1360.73 1896.07,1352.99 1906.01,1345.25 1915.94,1337.51 1925.88,1329.77 1935.81,1322.03 1945.75,1314.29 1955.68,1306.55 1965.61,1298.81 1975.55,1291.06 1985.48,1281.09 1995.42,1268.04 2005.35,1254.99 2015.29,1241.94 2025.22,1228.88 2035.15,1215.83 2045.09,1202.78 2055.02,1189.73 2064.96,1176.68 2074.89,1163.63 2084.83,1150.58 2094.76,1133.84 2104.7,1116.89 2114.63,1099.94 2124.56,1083 2134.5,1066.05 2144.43,1049.1 2154.37,1032.16 2164.3,1015.21 2174.24,998.262 2184.17,981.315 2194.1,963.392 2204.04,944.386 2213.97,925.379 2223.91,906.373 2233.84,887.366 2243.78,868.359 2253.71,849.353 2263.64,830.346 2273.58,811.339 2283.51,792.333 2293.45,773.326 "/>
<circle clip-path="url(#clip881)" cx="316.512" cy="773.326" r="21.6" fill="#ff0000" fill-rule="evenodd" fill-opacity="1" stroke="#000000" stroke-opacity="1" stroke-width="3.2"/>
<circle clip-path="url(#clip881)" cx="420.561" cy="574.256" r="21.6" fill="#ff0000" fill-rule="evenodd" fill-opacity="1" stroke="#000000" stroke-opacity="1" stroke-width="3.2"/>
<circle clip-path="url(#clip881)" cx="524.611" cy="396.759" r="21.6" fill="#ff0000" fill-rule="evenodd" fill-opacity="1" stroke="#000000" stroke-opacity="1" stroke-width="3.2"/>
<circle clip-path="url(#clip881)" cx="628.66" cy="260.069" r="21.6" fill="#ff0000" fill-rule="evenodd" fill-opacity="1" stroke="#000000" stroke-opacity="1" stroke-width="3.2"/>
<circle clip-path="url(#clip881)" cx="732.709" cy="178.998" r="21.6" fill="#ff0000" fill-rule="evenodd" fill-opacity="1" stroke="#000000" stroke-opacity="1" stroke-width="3.2"/>
<circle clip-path="url(#clip881)" cx="836.758" cy="162.331" r="21.6" fill="#ff0000" fill-rule="evenodd" fill-opacity="1" stroke="#000000" stroke-opacity="1" stroke-width="3.2"/>
<circle clip-path="url(#clip881)" cx="940.808" cy="211.876" r="21.6" fill="#ff0000" fill-rule="evenodd" fill-opacity="1" stroke="#000000" stroke-opacity="1" stroke-width="3.2"/>
<circle clip-path="url(#clip881)" cx="1044.86" cy="322.262" r="21.6" fill="#ff0000" fill-rule="evenodd" fill-opacity="1" stroke="#000000" stroke-opacity="1" stroke-width="3.2"/>
<circle clip-path="url(#clip881)" cx="1148.91" cy="481.528" r="21.6" fill="#ff0000" fill-rule="evenodd" fill-opacity="1" stroke="#000000" stroke-opacity="1" stroke-width="3.2"/>
<circle clip-path="url(#clip881)" cx="1252.96" cy="672.415" r="21.6" fill="#ff0000" fill-rule="evenodd" fill-opacity="1" stroke="#000000" stroke-opacity="1" stroke-width="3.2"/>
<circle clip-path="url(#clip881)" cx="1357" cy="874.237" r="21.6" fill="#ff0000" fill-rule="evenodd" fill-opacity="1" stroke="#000000" stroke-opacity="1" stroke-width="3.2"/>
<circle clip-path="url(#clip881)" cx="1461.05" cy="1065.12" r="21.6" fill="#ff0000" fill-rule="evenodd" fill-opacity="1" stroke="#000000" stroke-opacity="1" stroke-width="3.2"/>
<circle clip-path="url(#clip881)" cx="1565.1" cy="1224.39" r="21.6" fill="#ff0000" fill-rule="evenodd" fill-opacity="1" stroke="#000000" stroke-opacity="1" stroke-width="3.2"/>
<circle clip-path="url(#clip881)" cx="1669.15" cy="1334.78" r="21.6" fill="#ff0000" fill-rule="evenodd" fill-opacity="1" stroke="#000000" stroke-opacity="1" stroke-width="3.2"/>
<circle clip-path="url(#clip881)" cx="1773.2" cy="1384.32" r="21.6" fill="#ff0000" fill-rule="evenodd" fill-opacity="1" stroke="#000000" stroke-opacity="1" stroke-width="3.2"/>
<circle clip-path="url(#clip881)" cx="1877.25" cy="1367.65" r="21.6" fill="#ff0000" fill-rule="evenodd" fill-opacity="1" stroke="#000000" stroke-opacity="1" stroke-width="3.2"/>
<circle clip-path="url(#clip881)" cx="1981.3" cy="1286.58" r="21.6" fill="#ff0000" fill-rule="evenodd" fill-opacity="1" stroke="#000000" stroke-opacity="1" stroke-width="3.2"/>
<circle clip-path="url(#clip881)" cx="2085.35" cy="1149.89" r="21.6" fill="#ff0000" fill-rule="evenodd" fill-opacity="1" stroke="#000000" stroke-opacity="1" stroke-width="3.2"/>
<circle clip-path="url(#clip881)" cx="2189.4" cy="972.396" r="21.6" fill="#ff0000" fill-rule="evenodd" fill-opacity="1" stroke="#000000" stroke-opacity="1" stroke-width="3.2"/>
<circle clip-path="url(#clip881)" cx="2293.45" cy="773.326" r="21.6" fill="#ff0000" fill-rule="evenodd" fill-opacity="1" stroke="#000000" stroke-opacity="1" stroke-width="3.2"/>
<polyline clip-path="url(#clip881)" style="stroke:#3da44d; stroke-linecap:round; stroke-linejoin:round; stroke-width:4; stroke-opacity:0.5; fill:none" stroke-dasharray="16, 10" points="316.512,773.326 326.446,753.972 336.381,734.637 346.315,715.34 356.25,696.102 366.184,676.94 376.118,657.874 386.053,638.924 395.987,620.107 405.921,601.443 415.856,582.951 425.79,564.648 435.724,546.553 445.659,528.685 455.593,511.06 465.527,493.697 475.462,476.612 485.396,459.823 495.33,443.347 505.265,427.2 515.199,411.397 525.133,395.956 535.068,380.89 545.002,366.216 554.937,351.948 564.871,338.099 574.805,324.685 584.74,311.717 594.674,299.21 604.608,287.176 614.543,275.626 624.477,264.572 634.411,254.025 644.346,243.996 654.28,234.495 664.214,225.53 674.149,217.112 684.083,209.248 694.017,201.947 703.952,195.215 713.886,189.059 723.82,183.486 733.755,178.501 743.689,174.108 753.624,170.313 763.558,167.119 773.492,164.53 783.427,162.547 793.361,161.173 803.295,160.409 813.23,160.256 823.164,160.715 833.098,161.784 843.033,163.462 852.967,165.749 862.901,168.641 872.836,172.136 882.77,176.23 892.704,180.919 902.639,186.199 912.573,192.065 922.507,198.509 932.442,205.527 942.376,213.11 952.311,221.252 962.245,229.945 972.179,239.179 982.114,248.945 992.048,259.234 1001.98,270.036 1011.92,281.339 1021.85,293.133 1031.79,305.405 1041.72,318.144 1051.65,331.337 1061.59,344.97 1071.52,359.03 1081.46,373.503 1091.39,388.375 1101.33,403.63 1111.26,419.254 1121.19,435.231 1131.13,451.545 1141.06,468.18 1151,485.118 1160.93,502.345 1170.87,519.841 1180.8,537.59 1190.73,555.574 1200.67,573.775 1210.6,592.175 1220.54,610.755 1230.47,629.498 1240.41,648.383 1250.34,667.394 1260.28,686.51 1270.21,705.712 1280.14,724.982 1290.08,744.301 1300.01,763.648 1309.95,783.004 1319.88,802.351 1329.82,821.67 1339.75,840.94 1349.68,860.142 1359.62,879.258 1369.55,898.269 1379.49,917.154 1389.42,935.897 1399.36,954.477 1409.29,972.877 1419.22,991.078 1429.16,1009.06 1439.09,1026.81 1449.03,1044.31 1458.96,1061.53 1468.9,1078.47 1478.83,1095.11 1488.77,1111.42 1498.7,1127.4 1508.63,1143.02 1518.57,1158.28 1528.5,1173.15 1538.44,1187.62 1548.37,1201.68 1558.31,1215.32 1568.24,1228.51 1578.17,1241.25 1588.11,1253.52 1598.04,1265.31 1607.98,1276.62 1617.91,1287.42 1627.85,1297.71 1637.78,1307.47 1647.72,1316.71 1657.65,1325.4 1667.58,1333.54 1677.52,1341.13 1687.45,1348.14 1697.39,1354.59 1707.32,1360.45 1717.26,1365.73 1727.19,1370.42 1737.12,1374.52 1747.06,1378.01 1756.99,1380.9 1766.93,1383.19 1776.86,1384.87 1786.8,1385.94 1796.73,1386.4 1806.66,1386.24 1816.6,1385.48 1826.53,1384.11 1836.47,1382.12 1846.4,1379.53 1856.34,1376.34 1866.27,1372.54 1876.21,1368.15 1886.14,1363.17 1896.07,1357.59 1906.01,1351.44 1915.94,1344.71 1925.88,1337.4 1935.81,1329.54 1945.75,1321.12 1955.68,1312.16 1965.61,1302.66 1975.55,1292.63 1985.48,1282.08 1995.42,1271.03 2005.35,1259.48 2015.29,1247.44 2025.22,1234.93 2035.15,1221.97 2045.09,1208.55 2055.02,1194.7 2064.96,1180.44 2074.89,1165.76 2084.83,1150.7 2094.76,1135.25 2104.7,1119.45 2114.63,1103.31 2124.56,1086.83 2134.5,1070.04 2144.43,1052.96 2154.37,1035.59 2164.3,1017.97 2174.24,1000.1 2184.17,982.004 2194.1,963.701 2204.04,945.209 2213.97,926.545 2223.91,907.728 2233.84,888.778 2243.78,869.712 2253.71,850.55 2263.64,831.312 2273.58,812.015 2283.51,792.68 2293.45,773.326 "/>
<path clip-path="url(#clip880)" d="M1617.03 374.156 L2282.9 374.156 L2282.9 166.796 L1617.03 166.796  Z" fill="#ffffff" fill-rule="evenodd" fill-opacity="1"/>
<polyline clip-path="url(#clip880)" style="stroke:#000000; stroke-linecap:round; stroke-linejoin:round; stroke-width:4; stroke-opacity:1; fill:none" points="1617.03,374.156 2282.9,374.156 2282.9,166.796 1617.03,166.796 1617.03,374.156 "/>
<polyline clip-path="url(#clip880)" style="stroke:#009af9; stroke-linecap:round; stroke-linejoin:round; stroke-width:8; stroke-opacity:1; fill:none" points="1640.32,218.636 1780.02,218.636 "/>
<path clip-path="url(#clip880)" d="M1803.3 201.356 L1807.98 201.356 L1807.98 231.981 L1824.81 231.981 L1824.81 235.916 L1803.3 235.916 L1803.3 201.356 Z" fill="#000000" fill-rule="nonzero" fill-opacity="1" /><path clip-path="url(#clip880)" d="M1829.53 209.99 L1833.79 209.99 L1833.79 235.916 L1829.53 235.916 L1829.53 209.99 M1829.53 199.897 L1833.79 199.897 L1833.79 205.291 L1829.53 205.291 L1829.53 199.897 Z" fill="#000000" fill-rule="nonzero" fill-opacity="1" /><path clip-path="url(#clip880)" d="M1864.25 220.268 L1864.25 235.916 L1859.99 235.916 L1859.99 220.407 Q1859.99 216.726 1858.56 214.897 Q1857.12 213.069 1854.25 213.069 Q1850.8 213.069 1848.81 215.268 Q1846.82 217.467 1846.82 221.263 L1846.82 235.916 L1842.54 235.916 L1842.54 209.99 L1846.82 209.99 L1846.82 214.018 Q1848.35 211.68 1850.41 210.522 Q1852.49 209.365 1855.2 209.365 Q1859.67 209.365 1861.96 212.143 Q1864.25 214.897 1864.25 220.268 Z" fill="#000000" fill-rule="nonzero" fill-opacity="1" /><path clip-path="url(#clip880)" d="M1894.92 221.888 L1894.92 223.971 L1875.34 223.971 Q1875.62 228.369 1877.98 230.684 Q1880.36 232.976 1884.6 232.976 Q1887.05 232.976 1889.34 232.374 Q1891.66 231.772 1893.93 230.569 L1893.93 234.596 Q1891.64 235.568 1889.23 236.078 Q1886.82 236.587 1884.34 236.587 Q1878.14 236.587 1874.51 232.976 Q1870.9 229.365 1870.9 223.207 Q1870.9 216.842 1874.32 213.115 Q1877.77 209.365 1883.6 209.365 Q1888.84 209.365 1891.87 212.745 Q1894.92 216.101 1894.92 221.888 M1890.66 220.638 Q1890.62 217.143 1888.7 215.059 Q1886.8 212.976 1883.65 212.976 Q1880.09 212.976 1877.93 214.99 Q1875.8 217.004 1875.48 220.661 L1890.66 220.638 Z" fill="#000000" fill-rule="nonzero" fill-opacity="1" /><path clip-path="url(#clip880)" d="M1913.7 222.883 Q1908.53 222.883 1906.54 224.064 Q1904.55 225.244 1904.55 228.092 Q1904.55 230.36 1906.03 231.703 Q1907.54 233.022 1910.11 233.022 Q1913.65 233.022 1915.78 230.522 Q1917.93 227.999 1917.93 223.832 L1917.93 222.883 L1913.7 222.883 M1922.19 221.124 L1922.19 235.916 L1917.93 235.916 L1917.93 231.981 Q1916.47 234.342 1914.3 235.476 Q1912.12 236.587 1908.97 236.587 Q1904.99 236.587 1902.63 234.365 Q1900.29 232.119 1900.29 228.369 Q1900.29 223.994 1903.21 221.772 Q1906.15 219.55 1911.96 219.55 L1917.93 219.55 L1917.93 219.133 Q1917.93 216.194 1915.99 214.596 Q1914.07 212.976 1910.57 212.976 Q1908.35 212.976 1906.24 213.508 Q1904.14 214.041 1902.19 215.106 L1902.19 211.17 Q1904.53 210.268 1906.73 209.828 Q1908.93 209.365 1911.01 209.365 Q1916.64 209.365 1919.41 212.282 Q1922.19 215.198 1922.19 221.124 Z" fill="#000000" fill-rule="nonzero" fill-opacity="1" /><path clip-path="url(#clip880)" d="M1945.99 213.971 Q1945.27 213.555 1944.41 213.37 Q1943.58 213.161 1942.56 213.161 Q1938.95 213.161 1937.01 215.522 Q1935.08 217.86 1935.08 222.258 L1935.08 235.916 L1930.8 235.916 L1930.8 209.99 L1935.08 209.99 L1935.08 214.018 Q1936.43 211.657 1938.58 210.522 Q1940.73 209.365 1943.81 209.365 Q1944.25 209.365 1944.78 209.434 Q1945.32 209.481 1945.96 209.596 L1945.99 213.971 Z" fill="#000000" fill-rule="nonzero" fill-opacity="1" /><path clip-path="url(#clip880)" d="M1965.52 209.99 L1969.78 209.99 L1969.78 235.916 L1965.52 235.916 L1965.52 209.99 M1965.52 199.897 L1969.78 199.897 L1969.78 205.291 L1965.52 205.291 L1965.52 199.897 Z" fill="#000000" fill-rule="nonzero" fill-opacity="1" /><path clip-path="url(#clip880)" d="M2000.25 220.268 L2000.25 235.916 L1995.99 235.916 L1995.99 220.407 Q1995.99 216.726 1994.55 214.897 Q1993.12 213.069 1990.25 213.069 Q1986.8 213.069 1984.81 215.268 Q1982.82 217.467 1982.82 221.263 L1982.82 235.916 L1978.53 235.916 L1978.53 209.99 L1982.82 209.99 L1982.82 214.018 Q1984.34 211.68 1986.4 210.522 Q1988.49 209.365 1991.2 209.365 Q1995.66 209.365 1997.96 212.143 Q2000.25 214.897 2000.25 220.268 Z" fill="#000000" fill-rule="nonzero" fill-opacity="1" /><path clip-path="url(#clip880)" d="M2012.95 202.629 L2012.95 209.99 L2021.73 209.99 L2021.73 213.3 L2012.95 213.3 L2012.95 227.374 Q2012.95 230.545 2013.81 231.448 Q2014.69 232.351 2017.35 232.351 L2021.73 232.351 L2021.73 235.916 L2017.35 235.916 Q2012.42 235.916 2010.55 234.087 Q2008.67 232.235 2008.67 227.374 L2008.67 213.3 L2005.55 213.3 L2005.55 209.99 L2008.67 209.99 L2008.67 202.629 L2012.95 202.629 Z" fill="#000000" fill-rule="nonzero" fill-opacity="1" /><path clip-path="url(#clip880)" d="M2049.51 221.888 L2049.51 223.971 L2029.92 223.971 Q2030.2 228.369 2032.56 230.684 Q2034.95 232.976 2039.18 232.976 Q2041.64 232.976 2043.93 232.374 Q2046.24 231.772 2048.51 230.569 L2048.51 234.596 Q2046.22 235.568 2043.81 236.078 Q2041.4 236.587 2038.93 236.587 Q2032.72 236.587 2029.09 232.976 Q2025.48 229.365 2025.48 223.207 Q2025.48 216.842 2028.9 213.115 Q2032.35 209.365 2038.19 209.365 Q2043.42 209.365 2046.45 212.745 Q2049.51 216.101 2049.51 221.888 M2045.25 220.638 Q2045.2 217.143 2043.28 215.059 Q2041.38 212.976 2038.23 212.976 Q2034.67 212.976 2032.52 214.99 Q2030.39 217.004 2030.06 220.661 L2045.25 220.638 Z" fill="#000000" fill-rule="nonzero" fill-opacity="1" /><path clip-path="url(#clip880)" d="M2071.52 213.971 Q2070.8 213.555 2069.95 213.37 Q2069.11 213.161 2068.09 213.161 Q2064.48 213.161 2062.54 215.522 Q2060.62 217.86 2060.62 222.258 L2060.62 235.916 L2056.33 235.916 L2056.33 209.99 L2060.62 209.99 L2060.62 214.018 Q2061.96 211.657 2064.11 210.522 Q2066.26 209.365 2069.34 209.365 Q2069.78 209.365 2070.32 209.434 Q2070.85 209.481 2071.5 209.596 L2071.52 213.971 Z" fill="#000000" fill-rule="nonzero" fill-opacity="1" /><path clip-path="url(#clip880)" d="M2080.11 232.027 L2080.11 245.777 L2075.82 245.777 L2075.82 209.99 L2080.11 209.99 L2080.11 213.925 Q2081.45 211.61 2083.49 210.499 Q2085.55 209.365 2088.39 209.365 Q2093.12 209.365 2096.06 213.115 Q2099.02 216.865 2099.02 222.976 Q2099.02 229.087 2096.06 232.837 Q2093.12 236.587 2088.39 236.587 Q2085.55 236.587 2083.49 235.476 Q2081.45 234.342 2080.11 232.027 M2094.6 222.976 Q2094.6 218.277 2092.65 215.615 Q2090.73 212.93 2087.35 212.93 Q2083.97 212.93 2082.03 215.615 Q2080.11 218.277 2080.11 222.976 Q2080.11 227.675 2082.03 230.36 Q2083.97 233.022 2087.35 233.022 Q2090.73 233.022 2092.65 230.36 Q2094.6 227.675 2094.6 222.976 Z" fill="#000000" fill-rule="nonzero" fill-opacity="1" /><path clip-path="url(#clip880)" d="M2116.13 212.976 Q2112.7 212.976 2110.71 215.661 Q2108.72 218.323 2108.72 222.976 Q2108.72 227.629 2110.69 230.314 Q2112.68 232.976 2116.13 232.976 Q2119.53 232.976 2121.52 230.291 Q2123.51 227.606 2123.51 222.976 Q2123.51 218.37 2121.52 215.684 Q2119.53 212.976 2116.13 212.976 M2116.13 209.365 Q2121.68 209.365 2124.85 212.976 Q2128.02 216.587 2128.02 222.976 Q2128.02 229.342 2124.85 232.976 Q2121.68 236.587 2116.13 236.587 Q2110.55 236.587 2107.38 232.976 Q2104.23 229.342 2104.23 222.976 Q2104.23 216.587 2107.38 212.976 Q2110.55 209.365 2116.13 209.365 Z" fill="#000000" fill-rule="nonzero" fill-opacity="1" /><path clip-path="url(#clip880)" d="M2135.08 199.897 L2139.34 199.897 L2139.34 235.916 L2135.08 235.916 L2135.08 199.897 Z" fill="#000000" fill-rule="nonzero" fill-opacity="1" /><path clip-path="url(#clip880)" d="M2160.04 222.883 Q2154.88 222.883 2152.88 224.064 Q2150.89 225.244 2150.89 228.092 Q2150.89 230.36 2152.38 231.703 Q2153.88 233.022 2156.45 233.022 Q2159.99 233.022 2162.12 230.522 Q2164.27 227.999 2164.27 223.832 L2164.27 222.883 L2160.04 222.883 M2168.53 221.124 L2168.53 235.916 L2164.27 235.916 L2164.27 231.981 Q2162.82 234.342 2160.64 235.476 Q2158.46 236.587 2155.32 236.587 Q2151.33 236.587 2148.97 234.365 Q2146.63 232.119 2146.63 228.369 Q2146.63 223.994 2149.55 221.772 Q2152.49 219.55 2158.3 219.55 L2164.27 219.55 L2164.27 219.133 Q2164.27 216.194 2162.33 214.596 Q2160.41 212.976 2156.91 212.976 Q2154.69 212.976 2152.58 213.508 Q2150.48 214.041 2148.53 215.106 L2148.53 211.17 Q2150.87 210.268 2153.07 209.828 Q2155.27 209.365 2157.35 209.365 Q2162.98 209.365 2165.76 212.282 Q2168.53 215.198 2168.53 221.124 Z" fill="#000000" fill-rule="nonzero" fill-opacity="1" /><path clip-path="url(#clip880)" d="M2181.52 202.629 L2181.52 209.99 L2190.29 209.99 L2190.29 213.3 L2181.52 213.3 L2181.52 227.374 Q2181.52 230.545 2182.38 231.448 Q2183.25 232.351 2185.92 232.351 L2190.29 232.351 L2190.29 235.916 L2185.92 235.916 Q2180.99 235.916 2179.11 234.087 Q2177.24 232.235 2177.24 227.374 L2177.24 213.3 L2174.11 213.3 L2174.11 209.99 L2177.24 209.99 L2177.24 202.629 L2181.52 202.629 Z" fill="#000000" fill-rule="nonzero" fill-opacity="1" /><path clip-path="url(#clip880)" d="M2195.89 209.99 L2200.15 209.99 L2200.15 235.916 L2195.89 235.916 L2195.89 209.99 M2195.89 199.897 L2200.15 199.897 L2200.15 205.291 L2195.89 205.291 L2195.89 199.897 Z" fill="#000000" fill-rule="nonzero" fill-opacity="1" /><path clip-path="url(#clip880)" d="M2219.11 212.976 Q2215.69 212.976 2213.69 215.661 Q2211.7 218.323 2211.7 222.976 Q2211.7 227.629 2213.67 230.314 Q2215.66 232.976 2219.11 232.976 Q2222.51 232.976 2224.5 230.291 Q2226.5 227.606 2226.5 222.976 Q2226.5 218.37 2224.5 215.684 Q2222.51 212.976 2219.11 212.976 M2219.11 209.365 Q2224.67 209.365 2227.84 212.976 Q2231.01 216.587 2231.01 222.976 Q2231.01 229.342 2227.84 232.976 Q2224.67 236.587 2219.11 236.587 Q2213.53 236.587 2210.36 232.976 Q2207.21 229.342 2207.21 222.976 Q2207.21 216.587 2210.36 212.976 Q2213.53 209.365 2219.11 209.365 Z" fill="#000000" fill-rule="nonzero" fill-opacity="1" /><path clip-path="url(#clip880)" d="M2259.62 220.268 L2259.62 235.916 L2255.36 235.916 L2255.36 220.407 Q2255.36 216.726 2253.93 214.897 Q2252.49 213.069 2249.62 213.069 Q2246.17 213.069 2244.18 215.268 Q2242.19 217.467 2242.19 221.263 L2242.19 235.916 L2237.91 235.916 L2237.91 209.99 L2242.19 209.99 L2242.19 214.018 Q2243.72 211.68 2245.78 210.522 Q2247.86 209.365 2250.57 209.365 Q2255.04 209.365 2257.33 212.143 Q2259.62 214.897 2259.62 220.268 Z" fill="#000000" fill-rule="nonzero" fill-opacity="1" /><circle clip-path="url(#clip880)" cx="1710.17" cy="270.476" r="21.2677" fill="#ff0000" fill-rule="evenodd" fill-opacity="1" stroke="#000000" stroke-opacity="1" stroke-width="3.15077"/>
<path clip-path="url(#clip880)" d="M1807.98 257.038 L1807.98 283.913 L1813.63 283.913 Q1820.78 283.913 1824.09 280.672 Q1827.42 277.432 1827.42 270.441 Q1827.42 263.497 1824.09 260.279 Q1820.78 257.038 1813.63 257.038 L1807.98 257.038 M1803.3 253.196 L1812.91 253.196 Q1822.96 253.196 1827.65 257.386 Q1832.35 261.552 1832.35 270.441 Q1832.35 279.376 1827.63 283.566 Q1822.91 287.756 1812.91 287.756 L1803.3 287.756 L1803.3 253.196 Z" fill="#000000" fill-rule="nonzero" fill-opacity="1" /><path clip-path="url(#clip880)" d="M1851.4 274.723 Q1846.24 274.723 1844.25 275.904 Q1842.26 277.084 1842.26 279.932 Q1842.26 282.2 1843.74 283.543 Q1845.25 284.862 1847.82 284.862 Q1851.36 284.862 1853.49 282.362 Q1855.64 279.839 1855.64 275.672 L1855.64 274.723 L1851.4 274.723 M1859.9 272.964 L1859.9 287.756 L1855.64 287.756 L1855.64 283.821 Q1854.18 286.182 1852.01 287.316 Q1849.83 288.427 1846.68 288.427 Q1842.7 288.427 1840.34 286.205 Q1838 283.959 1838 280.209 Q1838 275.834 1840.92 273.612 Q1843.86 271.39 1849.67 271.39 L1855.64 271.39 L1855.64 270.973 Q1855.64 268.034 1853.7 266.436 Q1851.78 264.816 1848.28 264.816 Q1846.06 264.816 1843.95 265.348 Q1841.84 265.881 1839.9 266.946 L1839.9 263.01 Q1842.24 262.108 1844.44 261.668 Q1846.64 261.205 1848.72 261.205 Q1854.34 261.205 1857.12 264.122 Q1859.9 267.038 1859.9 272.964 Z" fill="#000000" fill-rule="nonzero" fill-opacity="1" /><path clip-path="url(#clip880)" d="M1872.89 254.469 L1872.89 261.83 L1881.66 261.83 L1881.66 265.14 L1872.89 265.14 L1872.89 279.214 Q1872.89 282.385 1873.74 283.288 Q1874.62 284.191 1877.28 284.191 L1881.66 284.191 L1881.66 287.756 L1877.28 287.756 Q1872.35 287.756 1870.48 285.927 Q1868.6 284.075 1868.6 279.214 L1868.6 265.14 L1865.48 265.14 L1865.48 261.83 L1868.6 261.83 L1868.6 254.469 L1872.89 254.469 Z" fill="#000000" fill-rule="nonzero" fill-opacity="1" /><path clip-path="url(#clip880)" d="M1899.04 274.723 Q1893.88 274.723 1891.89 275.904 Q1889.9 277.084 1889.9 279.932 Q1889.9 282.2 1891.38 283.543 Q1892.89 284.862 1895.46 284.862 Q1899 284.862 1901.13 282.362 Q1903.28 279.839 1903.28 275.672 L1903.28 274.723 L1899.04 274.723 M1907.54 272.964 L1907.54 287.756 L1903.28 287.756 L1903.28 283.821 Q1901.82 286.182 1899.65 287.316 Q1897.47 288.427 1894.32 288.427 Q1890.34 288.427 1887.98 286.205 Q1885.64 283.959 1885.64 280.209 Q1885.64 275.834 1888.56 273.612 Q1891.5 271.39 1897.31 271.39 L1903.28 271.39 L1903.28 270.973 Q1903.28 268.034 1901.34 266.436 Q1899.41 264.816 1895.92 264.816 Q1893.7 264.816 1891.59 265.348 Q1889.48 265.881 1887.54 266.946 L1887.54 263.01 Q1889.88 262.108 1892.08 261.668 Q1894.28 261.205 1896.36 261.205 Q1901.98 261.205 1904.76 264.122 Q1907.54 267.038 1907.54 272.964 Z" fill="#000000" fill-rule="nonzero" fill-opacity="1" /><path clip-path="url(#clip880)" d="M1935.5 283.867 L1935.5 297.617 L1931.22 297.617 L1931.22 261.83 L1935.5 261.83 L1935.5 265.765 Q1936.84 263.45 1938.88 262.339 Q1940.94 261.205 1943.79 261.205 Q1948.51 261.205 1951.45 264.955 Q1954.41 268.705 1954.41 274.816 Q1954.41 280.927 1951.45 284.677 Q1948.51 288.427 1943.79 288.427 Q1940.94 288.427 1938.88 287.316 Q1936.84 286.182 1935.5 283.867 M1949.99 274.816 Q1949.99 270.117 1948.05 267.455 Q1946.13 264.77 1942.75 264.77 Q1939.37 264.77 1937.42 267.455 Q1935.5 270.117 1935.5 274.816 Q1935.5 279.515 1937.42 282.2 Q1939.37 284.862 1942.75 284.862 Q1946.13 284.862 1948.05 282.2 Q1949.99 279.515 1949.99 274.816 Z" fill="#000000" fill-rule="nonzero" fill-opacity="1" /><path clip-path="url(#clip880)" d="M1971.52 264.816 Q1968.09 264.816 1966.1 267.501 Q1964.11 270.163 1964.11 274.816 Q1964.11 279.469 1966.08 282.154 Q1968.07 284.816 1971.52 284.816 Q1974.92 284.816 1976.91 282.131 Q1978.9 279.446 1978.9 274.816 Q1978.9 270.21 1976.91 267.524 Q1974.92 264.816 1971.52 264.816 M1971.52 261.205 Q1977.08 261.205 1980.25 264.816 Q1983.42 268.427 1983.42 274.816 Q1983.42 281.182 1980.25 284.816 Q1977.08 288.427 1971.52 288.427 Q1965.94 288.427 1962.77 284.816 Q1959.62 281.182 1959.62 274.816 Q1959.62 268.427 1962.77 264.816 Q1965.94 261.205 1971.52 261.205 Z" fill="#000000" fill-rule="nonzero" fill-opacity="1" /><path clip-path="url(#clip880)" d="M1990.48 261.83 L1994.74 261.83 L1994.74 287.756 L1990.48 287.756 L1990.48 261.83 M1990.48 251.737 L1994.74 251.737 L1994.74 257.131 L1990.48 257.131 L1990.48 251.737 Z" fill="#000000" fill-rule="nonzero" fill-opacity="1" /><path clip-path="url(#clip880)" d="M2025.2 272.108 L2025.2 287.756 L2020.94 287.756 L2020.94 272.247 Q2020.94 268.566 2019.51 266.737 Q2018.07 264.909 2015.2 264.909 Q2011.75 264.909 2009.76 267.108 Q2007.77 269.307 2007.77 273.103 L2007.77 287.756 L2003.49 287.756 L2003.49 261.83 L2007.77 261.83 L2007.77 265.858 Q2009.3 263.52 2011.36 262.362 Q2013.44 261.205 2016.15 261.205 Q2020.62 261.205 2022.91 263.983 Q2025.2 266.737 2025.2 272.108 Z" fill="#000000" fill-rule="nonzero" fill-opacity="1" /><path clip-path="url(#clip880)" d="M2037.91 254.469 L2037.91 261.83 L2046.68 261.83 L2046.68 265.14 L2037.91 265.14 L2037.91 279.214 Q2037.91 282.385 2038.76 283.288 Q2039.64 284.191 2042.31 284.191 L2046.68 284.191 L2046.68 287.756 L2042.31 287.756 Q2037.38 287.756 2035.5 285.927 Q2033.63 284.075 2033.63 279.214 L2033.63 265.14 L2030.5 265.14 L2030.5 261.83 L2033.63 261.83 L2033.63 254.469 L2037.91 254.469 Z" fill="#000000" fill-rule="nonzero" fill-opacity="1" /><path clip-path="url(#clip880)" d="M2068.81 262.594 L2068.81 266.622 Q2067.01 265.696 2065.06 265.233 Q2063.12 264.77 2061.03 264.77 Q2057.86 264.77 2056.26 265.742 Q2054.69 266.714 2054.69 268.659 Q2054.69 270.14 2055.83 270.997 Q2056.96 271.83 2060.39 272.594 L2061.84 272.918 Q2066.38 273.89 2068.28 275.672 Q2070.2 277.432 2070.2 280.603 Q2070.2 284.214 2067.33 286.321 Q2064.48 288.427 2059.48 288.427 Q2057.4 288.427 2055.13 288.01 Q2052.89 287.617 2050.39 286.807 L2050.39 282.409 Q2052.75 283.635 2055.04 284.26 Q2057.33 284.862 2059.58 284.862 Q2062.58 284.862 2064.2 283.844 Q2065.83 282.802 2065.83 280.927 Q2065.83 279.191 2064.64 278.265 Q2063.49 277.339 2059.53 276.483 L2058.05 276.135 Q2054.09 275.302 2052.33 273.589 Q2050.57 271.853 2050.57 268.844 Q2050.57 265.186 2053.16 263.196 Q2055.76 261.205 2060.52 261.205 Q2062.89 261.205 2064.97 261.552 Q2067.05 261.899 2068.81 262.594 Z" fill="#000000" fill-rule="nonzero" fill-opacity="1" /><polyline clip-path="url(#clip880)" style="stroke:#3da44d; stroke-linecap:round; stroke-linejoin:round; stroke-width:4; stroke-opacity:0.5; fill:none" stroke-dasharray="16, 10" points="1640.32,322.316 1780.02,322.316 "/>
<path clip-path="url(#clip880)" d="M1803.3 305.036 L1832.54 305.036 L1832.54 308.971 L1820.27 308.971 L1820.27 339.596 L1815.57 339.596 L1815.57 308.971 L1803.3 308.971 L1803.3 305.036 Z" fill="#000000" fill-rule="nonzero" fill-opacity="1" /><path clip-path="url(#clip880)" d="M1844.92 317.651 Q1844.21 317.235 1843.35 317.05 Q1842.52 316.841 1841.5 316.841 Q1837.89 316.841 1835.94 319.202 Q1834.02 321.54 1834.02 325.938 L1834.02 339.596 L1829.74 339.596 L1829.74 313.67 L1834.02 313.67 L1834.02 317.698 Q1835.36 315.337 1837.52 314.202 Q1839.67 313.045 1842.75 313.045 Q1843.19 313.045 1843.72 313.114 Q1844.25 313.161 1844.9 313.276 L1844.92 317.651 Z" fill="#000000" fill-rule="nonzero" fill-opacity="1" /><path clip-path="url(#clip880)" d="M1848.95 329.364 L1848.95 313.67 L1853.21 313.67 L1853.21 329.202 Q1853.21 332.883 1854.65 334.735 Q1856.08 336.563 1858.95 336.563 Q1862.4 336.563 1864.39 334.364 Q1866.4 332.165 1866.4 328.369 L1866.4 313.67 L1870.66 313.67 L1870.66 339.596 L1866.4 339.596 L1866.4 335.614 Q1864.85 337.975 1862.79 339.133 Q1860.76 340.267 1858.05 340.267 Q1853.58 340.267 1851.27 337.489 Q1848.95 334.711 1848.95 329.364 M1859.67 313.045 L1859.67 313.045 Z" fill="#000000" fill-rule="nonzero" fill-opacity="1" /><path clip-path="url(#clip880)" d="M1901.61 325.568 L1901.61 327.651 L1882.03 327.651 Q1882.31 332.049 1884.67 334.364 Q1887.05 336.656 1891.29 336.656 Q1893.74 336.656 1896.03 336.054 Q1898.35 335.452 1900.62 334.249 L1900.62 338.276 Q1898.33 339.248 1895.92 339.758 Q1893.51 340.267 1891.03 340.267 Q1884.83 340.267 1881.2 336.656 Q1877.59 333.045 1877.59 326.887 Q1877.59 320.522 1881.01 316.795 Q1884.46 313.045 1890.29 313.045 Q1895.52 313.045 1898.56 316.425 Q1901.61 319.781 1901.61 325.568 M1897.35 324.318 Q1897.31 320.823 1895.39 318.739 Q1893.49 316.656 1890.34 316.656 Q1886.78 316.656 1884.62 318.67 Q1882.49 320.684 1882.17 324.341 L1897.35 324.318 Z" fill="#000000" fill-rule="nonzero" fill-opacity="1" /><path clip-path="url(#clip880)" d="M1940.2 314.434 L1940.2 318.462 Q1938.4 317.536 1936.45 317.073 Q1934.51 316.61 1932.42 316.61 Q1929.25 316.61 1927.65 317.582 Q1926.08 318.554 1926.08 320.499 Q1926.08 321.98 1927.21 322.837 Q1928.35 323.67 1931.77 324.434 L1933.23 324.758 Q1937.77 325.73 1939.67 327.512 Q1941.59 329.272 1941.59 332.443 Q1941.59 336.054 1938.72 338.161 Q1935.87 340.267 1930.87 340.267 Q1928.79 340.267 1926.52 339.85 Q1924.27 339.457 1921.77 338.647 L1921.77 334.249 Q1924.14 335.475 1926.43 336.1 Q1928.72 336.702 1930.96 336.702 Q1933.97 336.702 1935.59 335.684 Q1937.21 334.642 1937.21 332.767 Q1937.21 331.031 1936.03 330.105 Q1934.88 329.179 1930.92 328.323 L1929.44 327.975 Q1925.48 327.142 1923.72 325.429 Q1921.96 323.693 1921.96 320.684 Q1921.96 317.026 1924.55 315.036 Q1927.15 313.045 1931.91 313.045 Q1934.27 313.045 1936.36 313.392 Q1938.44 313.739 1940.2 314.434 Z" fill="#000000" fill-rule="nonzero" fill-opacity="1" /><path clip-path="url(#clip880)" d="M1948.37 313.67 L1952.63 313.67 L1952.63 339.596 L1948.37 339.596 L1948.37 313.67 M1948.37 303.577 L1952.63 303.577 L1952.63 308.971 L1948.37 308.971 L1948.37 303.577 Z" fill="#000000" fill-rule="nonzero" fill-opacity="1" /><path clip-path="url(#clip880)" d="M1983.09 323.948 L1983.09 339.596 L1978.83 339.596 L1978.83 324.087 Q1978.83 320.406 1977.4 318.577 Q1975.96 316.749 1973.09 316.749 Q1969.64 316.749 1967.65 318.948 Q1965.66 321.147 1965.66 324.943 L1965.66 339.596 L1961.38 339.596 L1961.38 313.67 L1965.66 313.67 L1965.66 317.698 Q1967.19 315.36 1969.25 314.202 Q1971.33 313.045 1974.04 313.045 Q1978.51 313.045 1980.8 315.823 Q1983.09 318.577 1983.09 323.948 Z" fill="#000000" fill-rule="nonzero" fill-opacity="1" /><path clip-path="url(#clip880)" d="M2001.82 303.624 Q1998.72 308.948 1997.21 314.156 Q1995.71 319.364 1995.71 324.712 Q1995.71 330.059 1997.21 335.313 Q1998.74 340.545 2001.82 345.846 L1998.12 345.846 Q1994.64 340.406 1992.91 335.151 Q1991.2 329.897 1991.2 324.712 Q1991.2 319.55 1992.91 314.318 Q1994.62 309.087 1998.12 303.624 L2001.82 303.624 Z" fill="#000000" fill-rule="nonzero" fill-opacity="1" /><path clip-path="url(#clip880)" d="M2031.64 313.67 L2022.26 326.286 L2032.12 339.596 L2027.1 339.596 L2019.55 329.411 L2012.01 339.596 L2006.98 339.596 L2017.05 326.031 L2007.84 313.67 L2012.86 313.67 L2019.74 322.906 L2026.61 313.67 L2031.64 313.67 Z" fill="#000000" fill-rule="nonzero" fill-opacity="1" /><path clip-path="url(#clip880)" d="M2037.47 303.624 L2041.17 303.624 Q2044.64 309.087 2046.36 314.318 Q2048.09 319.55 2048.09 324.712 Q2048.09 329.897 2046.36 335.151 Q2044.64 340.406 2041.17 345.846 L2037.47 345.846 Q2040.55 340.545 2042.05 335.313 Q2043.58 330.059 2043.58 324.712 Q2043.58 319.364 2042.05 314.156 Q2040.55 308.948 2037.47 303.624 Z" fill="#000000" fill-rule="nonzero" fill-opacity="1" /></svg>
